#VRML V2.0 utf8
# 3D model generated by easyeda2kicad.py (https://github.com/uPesy/easyeda2kicad.py)

Shape{
    appearance Appearance {
        material  Material 	{
            diffuseColor 0.0 1.0 0.0
            specularColor 0.0 0.5019607843137255 0.0
            ambientIntensity 0.587
            transparency 0.0
            shininess 0.5
        }
    }
    geometry IndexedFaceSet {
        ccw TRUE
        solid FALSE
        coord DEF co Coordinate {
            point [
                -0.1195 0.5195 0.0039, -0.1502 0.4407 0.0039, -0.1834 0.4402 0.0039, -0.5413 -0.5906 0.0039, -0.5512 -0.5906 0.0039, -0.5512 -0.4183 0.0039, 0.5315 0.4626 0.0039, 0.3346 0.4626 0.0039, 0.2756 0.5906 0.0039, 0.2756 0.4402 0.0039, 0.5512 0.5906 0.0039, 0.5512 0.4402 0.0039, 0.5315 0.4402 0.0039, 0.5512 0.4069 0.0039, 0.5315 0.4069 0.0039, 0.5315 0.3051 0.0039, 0.5512 0.2559 0.0039, 0.3346 0.3051 0.0039, 0.2756 0.2559 0.0039, 0.3346 0.4069 0.0039, -0.3346 -0.4183 0.0039, -0.3346 -0.3051 0.0039, -0.2756 -0.2559 0.0039, -0.5413 -0.2559 0.0039, -0.5315 -0.3051 0.0039, -0.5413 -0.4183 0.0039, -0.5315 -0.4183 0.0039, -0.5315 -0.4626 0.0039, -0.2756 -0.5906 0.0039, 0.1249 0.4069 0.0039, 0.1249 0.374 0.0039, 0.0553 0.4069 0.0039, 0.0553 0.374 0.0039, -0.0024 0.4069 0.0039, -0.0024 0.374 0.0039, -0.1834 0.4069 0.0039, -0.1834 0.374 0.0039, -0.2756 0.4069 0.0039, 0.2165 0.2559 0.0039, 0.2165 0.374 0.0039, 0.2756 0.4069 0.0039, 0.3346 0.4402 0.0039, 0.2756 0.0 0.0039, 0.2165 0.0 0.0039, 0.2756 -0.2559 0.0039, 0.2165 -0.2559 0.0039, 0.2165 -0.2756 0.0039, 0.2756 -0.4183 0.0039, 0.1249 -0.3673 0.0039, 0.1249 -0.4183 0.0039, 0.1181 -0.374 0.0039, 0.0553 -0.374 0.0039, 0.0553 -0.4183 0.0039, -0.0024 -0.374 0.0039, -0.0024 -0.4183 0.0039, -0.1834 -0.374 0.0039, -0.1834 -0.4183 0.0039, -0.2165 -0.374 0.0039, -0.2756 -0.4183 0.0039, -0.2165 -0.2559 0.0039, -0.2165 0.374 0.0039, -0.2165 0.2559 0.0039, -0.2756 0.2559 0.0039, -0.2165 0.0 0.0039, -0.2756 0.0 0.0039, -0.3346 -0.4626 0.0039, 0.3346 -0.3051 0.0039, 0.5315 -0.3051 0.0039, 0.5512 -0.2559 0.0039, 0.5315 -0.4183 0.0039, 0.5512 -0.4183 0.0039, 0.5315 -0.4626 0.0039, 0.5512 -0.5906 0.0039, 0.3346 -0.4626 0.0039, 0.2756 -0.5906 0.0039, 0.3346 -0.4183 0.0039, -0.5315 0.3051 0.0039, -0.3346 0.3051 0.0039, -0.5413 0.2559 0.0039, -0.5413 0.4069 0.0039, -0.5315 0.4069 0.0039, -0.5413 0.4402 0.0039, -0.5315 0.4402 0.0039, -0.5315 0.4626 0.0039, -0.5413 0.5906 0.0039, -0.3346 0.4626 0.0039, -0.2756 0.5906 0.0039, -0.3346 0.4402 0.0039, 0.0629 0.4534 0.0039, 0.0629 0.4448 0.0039, 0.0553 0.4402 0.0039, 0.0713 0.4414 0.0039, 0.072 0.5198 0.0039, 0.0629 0.5173 0.0039, 0.0553 0.5906 0.0039, 0.0629 0.5067 0.0039, 0.0718 0.5105 0.0039, 0.0643 0.4527 0.0039, 0.0814 0.5118 0.0039, 0.0891 0.5109 0.0039, 0.1019 0.4434 0.0039, 0.1083 0.4474 0.0039, 0.1249 0.4402 0.0039, 0.1142 0.4537 0.0039, 0.1184 0.4612 0.0039, 0.1174 0.4987 0.0039, 0.1127 0.5061 0.0039, 0.1249 0.5906 0.0039, 0.1056 0.5129 0.0039, 0.095 0.5088 0.0039, 0.1005 0.5051 0.0039, 0.1052 0.4999 0.0039, 0.1109 0.4793 0.0039, 0.1102 0.4707 0.0039, 0.108 0.464 0.0039, 0.0905 0.4492 0.0039, 0.0831 0.4484 0.0039, 0.0962 0.4513 0.0039, 0.1011 0.4546 0.0039, 0.1048 0.4585 0.0039, 0.0727 0.4496 0.0039, 0.1085 0.4938 0.0039, 0.1106 0.4854 0.0039, 0.1207 0.4695 0.0039, 0.1215 0.4786 0.0039, 0.1204 0.4898 0.0039, 0.0982 0.5172 0.0039, 0.0894 0.5198 0.0039, 0.0815 0.5204 0.0039, 0.0793 0.4402 0.0039, 0.0824 0.4398 0.0039, 0.0846 0.4398 0.0039, 0.0892 0.4402 0.0039, 0.0943 0.4408 0.0039, -0.1834 -0.5906 0.0039, -0.0024 -0.5906 0.0039, 0.0553 -0.5906 0.0039, 0.1249 -0.5906 0.0039, 0.5315 -0.0492 0.0039, 0.5512 0.0 0.0039, 0.5315 -0.2067 0.0039, 0.3346 -0.2067 0.0039, 0.3346 -0.0492 0.0039, -0.5315 -0.0492 0.0039, -0.5413 0.0 0.0039, -0.3346 -0.0492 0.0039, -0.3346 -0.2067 0.0039, -0.5315 -0.2067 0.0039, 0.5315 0.2067 0.0039, 0.5315 0.0492 0.0039, 0.3346 0.0492 0.0039, 0.3346 0.2067 0.0039, -0.5315 0.2067 0.0039, -0.3346 0.2067 0.0039, -0.3346 0.0492 0.0039, -0.5315 0.0492 0.0039, -0.2756 0.4402 0.0039, -0.0024 0.4402 0.0039, 0.1282 0.4494 0.0039, 0.1282 0.4407 0.0039, 0.1686 0.4407 0.0039, 0.158 0.4494 0.0039, 0.158 0.5195 0.0039, 0.1686 0.5195 0.0039, 0.0053 0.4494 0.0039, 0.0053 0.4407 0.0039, 0.0476 0.4407 0.0039, 0.0476 0.5195 0.0039, -0.0024 0.5906 0.0039, 0.0072 0.5195 0.0039, 0.0072 0.5108 0.0039, 0.037 0.5108 0.0039, 0.037 0.4849 0.0039, 0.037 0.4763 0.0039, 0.037 0.4494 0.0039, 0.0092 0.4763 0.0039, 0.0092 0.4849 0.0039, -0.0315 0.4407 0.0039, -0.01 0.4407 0.0039, -0.01 0.5195 0.0039, -0.1834 0.5906 0.0039, -0.1089 0.5195 0.0039, -0.1307 0.4628 0.0039, -0.0982 0.4628 0.0039, -0.1387 0.4407 0.0039, -0.0907 0.4407 0.0039, -0.0792 0.4407 0.0039, -0.0695 0.4623 0.0039, -0.065 0.4553 0.0039, -0.0585 0.4491 0.0039, -0.0503 0.4443 0.0039, -0.0412 0.4416 0.0039, -0.0323 0.5195 0.0039, -0.0436 0.5182 0.0039, -0.0529 0.515 0.0039, -0.0614 0.5093 0.0039, -0.0615 0.5092 0.0039, -0.0671 0.503 0.0039, -0.0707 0.4962 0.0039, -0.0728 0.4885 0.0039, -0.0734 0.4811 0.0039, -0.0723 0.4705 0.0039, -0.3346 0.4069 0.0039, -0.5512 -0.2559 0.0039, -0.5512 0.0 0.0039, -0.5512 0.2559 0.0039, -0.5512 0.4069 0.0039, -0.5512 0.4402 0.0039, -0.5512 0.5906 0.0039, -0.3937 -0.2598 0.2126, -0.3937 0.2598 0.2126, -0.3976 -0.2598 0.2126, -0.3976 0.2598 0.2126, 0.5512 -0.5906 0.2126, 0.4987 -0.5152 0.2126, 0.4947 -0.5247 0.2126, 0.4884 -0.5329 0.2126, 0.4802 -0.5392 0.2126, 0.4706 -0.5432 0.2126, 0.4604 -0.5445 0.2126, 0.4501 -0.5432 0.2126, -0.5512 -0.5906 0.2126, 0.4406 -0.5392 0.2126, 0.4324 -0.5329 0.2126, 0.4261 -0.5247 0.2126, 0.4221 -0.5152 0.2126, 0.3976 0.2598 0.2126, 0.4208 -0.5049 0.2126, 0.4221 -0.4946 0.2126, 0.4261 -0.4851 0.2126, 0.4324 -0.4769 0.2126, 0.4406 -0.4706 0.2126, -0.3956 0.4318 0.2126, -0.3895 0.4493 0.2126, -0.5512 0.5906 0.2126, 0.4884 -0.4769 0.2126, 0.4947 -0.4851 0.2126, 0.5512 0.5906 0.2126, 0.4987 -0.4946 0.2126, 0.5 -0.5049 0.2126, -0.3976 0.4134 0.2126, 0.3895 0.4493 0.2126, 0.3956 0.4318 0.2126, 0.3976 0.4134 0.2126, 0.3937 0.2598 0.2126, 0.3937 -0.2598 0.2126, 0.3976 -0.2598 0.2126, 0.3976 -0.4134 0.2126, 0.3956 -0.4318 0.2126, 0.3334 0.494 0.2126, 0.3508 0.4879 0.2126, 0.4501 -0.4666 0.2126, 0.4604 -0.4653 0.2126, 0.4706 -0.4666 0.2126, 0.4802 -0.4706 0.2126, 0.3895 -0.4493 0.2126, 0.3796 -0.4649 0.2126, 0.3665 -0.478 0.2126, 0.3508 -0.4879 0.2126, -0.3665 -0.478 0.2126, -0.3508 -0.4879 0.2126, -0.3334 -0.494 0.2126, -0.3796 -0.4649 0.2126, -0.3895 -0.4493 0.2126, -0.3956 -0.4318 0.2126, -0.3796 0.4649 0.2126, -0.3665 0.478 0.2126, -0.3508 0.4879 0.2126, 0.3665 0.478 0.2126, 0.3796 0.4649 0.2126, 0.3334 -0.494 0.2126, 0.315 -0.4961 0.2126, -0.315 -0.4961 0.2126, -0.3976 -0.4134 0.2126, -0.3334 0.494 0.2126, -0.315 0.4961 0.2126, 0.315 0.4961 0.2126
            ]
        }
        coordIndex [
            0,1,2,-1,3,4,5,-1,6,7,8,-1,8,7,9,-1,8,10,6,-1,6,10,11,-1,6,11,12,-1,12,11,13,-1,12,13,14,-1,14,13,15,-1,15,13,16,-1,15,16,17,-1,17,16,18,-1,17,18,19,-1,20,21,22,-1,22,21,23,-1,23,21,24,-1,23,24,25,-1,24,26,25,-1,25,26,27,-1,25,27,3,-1,3,27,28,-1,29,30,31,-1,31,30,32,-1,31,32,33,-1,33,32,34,-1,33,34,35,-1,35,34,36,-1,35,36,37,-1,38,39,40,-1,7,41,9,-1,9,41,19,-1,9,19,40,-1,40,19,18,-1,40,18,38,-1,38,18,42,-1,38,42,43,-1,43,42,44,-1,43,44,45,-1,46,47,48,-1,48,47,49,-1,48,49,50,-1,50,49,51,-1,51,49,52,-1,51,52,53,-1,53,52,54,-1,53,54,55,-1,55,54,56,-1,55,56,57,-1,57,56,58,-1,57,58,59,-1,60,61,62,-1,62,61,63,-1,62,63,64,-1,64,63,59,-1,64,59,22,-1,22,59,58,-1,22,58,20,-1,20,58,65,-1,66,47,44,-1,44,47,46,-1,44,46,45,-1,66,44,67,-1,67,44,68,-1,67,68,69,-1,69,68,70,-1,69,70,71,-1,71,70,72,-1,71,72,73,-1,73,72,74,-1,73,74,75,-1,76,77,62,-1,62,77,37,-1,62,37,60,-1,60,37,36,-1,62,78,76,-1,76,78,79,-1,76,79,80,-1,80,79,81,-1,80,81,82,-1,82,81,83,-1,83,81,84,-1,83,84,85,-1,85,84,86,-1,85,86,87,-1,88,89,90,-1,90,89,91,-1,92,93,94,-1,94,93,95,-1,94,95,88,-1,88,95,96,-1,88,96,97,-1,97,96,98,-1,97,98,99,-1,100,101,102,-1,102,101,103,-1,102,103,104,-1,105,106,107,-1,107,106,108,-1,99,109,97,-1,97,109,110,-1,97,110,111,-1,112,113,97,-1,97,113,114,-1,115,116,117,-1,117,116,118,-1,114,119,97,-1,97,119,118,-1,97,118,120,-1,120,118,116,-1,111,121,97,-1,97,121,122,-1,97,122,112,-1,104,123,102,-1,102,123,124,-1,102,124,107,-1,107,124,125,-1,107,125,105,-1,108,126,107,-1,107,126,127,-1,107,127,94,-1,94,127,128,-1,94,128,92,-1,129,130,31,-1,31,130,131,-1,31,131,29,-1,29,131,132,-1,29,132,102,-1,102,132,133,-1,102,133,100,-1,27,65,28,-1,28,65,58,-1,28,58,134,-1,134,58,56,-1,134,56,135,-1,135,56,54,-1,135,54,136,-1,136,54,52,-1,136,52,137,-1,137,52,49,-1,137,49,74,-1,74,49,47,-1,74,47,75,-1,75,47,66,-1,138,139,140,-1,140,139,68,-1,140,68,141,-1,141,68,44,-1,141,44,142,-1,142,44,42,-1,142,42,138,-1,138,42,139,-1,143,144,145,-1,145,144,64,-1,145,64,146,-1,146,64,22,-1,146,22,147,-1,147,22,23,-1,147,23,143,-1,143,23,144,-1,148,16,149,-1,149,16,139,-1,149,139,150,-1,150,139,42,-1,150,42,151,-1,151,42,18,-1,151,18,148,-1,148,18,16,-1,152,78,153,-1,153,78,62,-1,153,62,154,-1,154,62,64,-1,154,64,155,-1,155,64,144,-1,155,144,152,-1,152,144,78,-1,37,156,35,-1,35,156,2,-1,35,2,33,-1,33,2,157,-1,33,157,31,-1,31,157,90,-1,31,90,129,-1,129,90,91,-1,107,158,102,-1,102,158,159,-1,102,159,160,-1,161,158,162,-1,162,158,107,-1,162,107,163,-1,163,107,8,-1,163,8,160,-1,160,8,9,-1,160,9,102,-1,102,9,40,-1,102,40,29,-1,29,40,39,-1,29,39,30,-1,164,165,157,-1,157,165,90,-1,90,165,166,-1,90,166,167,-1,88,90,94,-1,94,90,167,-1,94,167,168,-1,168,167,169,-1,168,169,170,-1,170,171,172,-1,173,174,175,-1,175,174,164,-1,175,164,176,-1,177,178,157,-1,172,176,170,-1,170,176,164,-1,170,164,168,-1,168,164,157,-1,168,157,179,-1,179,157,178,-1,180,168,181,-1,182,183,184,-1,184,183,185,-1,186,187,188,-1,188,189,186,-1,186,189,190,-1,186,190,191,-1,179,192,168,-1,168,192,193,-1,168,193,181,-1,181,193,194,-1,181,194,195,-1,195,196,181,-1,181,196,197,-1,181,197,198,-1,191,177,186,-1,186,177,157,-1,186,157,185,-1,185,157,2,-1,185,2,184,-1,184,2,1,-1,198,199,181,-1,181,199,200,-1,181,200,186,-1,186,200,201,-1,186,201,187,-1,77,202,37,-1,37,202,87,-1,37,87,156,-1,156,87,86,-1,156,86,2,-1,2,86,180,-1,2,180,0,-1,0,180,181,-1,3,5,25,-1,25,5,203,-1,25,203,23,-1,23,203,204,-1,23,204,144,-1,144,204,205,-1,144,205,78,-1,78,205,206,-1,78,206,79,-1,79,206,207,-1,79,207,81,-1,81,207,208,-1,81,208,84,-1,209,210,211,-1,211,210,212,-1,213,214,215,-1,215,216,213,-1,213,216,217,-1,213,217,218,-1,218,219,213,-1,213,219,220,-1,213,220,221,-1,221,220,222,-1,222,223,221,-1,221,223,224,-1,221,224,225,-1,226,227,228,-1,228,229,226,-1,226,229,230,-1,226,230,231,-1,232,233,234,-1,235,236,237,-1,237,236,238,-1,237,238,213,-1,213,238,239,-1,213,239,214,-1,232,234,240,-1,241,242,237,-1,237,242,243,-1,244,245,226,-1,226,245,246,-1,226,246,227,-1,227,246,247,-1,227,247,248,-1,237,249,250,-1,231,251,226,-1,226,251,252,-1,226,252,243,-1,243,252,253,-1,243,253,237,-1,237,253,254,-1,237,254,235,-1,248,255,227,-1,227,255,256,-1,227,256,225,-1,225,256,257,-1,225,257,258,-1,259,221,260,-1,260,221,261,-1,259,262,221,-1,221,262,263,-1,221,263,264,-1,233,265,234,-1,234,265,266,-1,234,266,267,-1,250,268,237,-1,237,268,269,-1,237,269,241,-1,258,270,225,-1,225,270,271,-1,225,271,221,-1,221,271,272,-1,221,272,261,-1,264,273,221,-1,221,273,211,-1,221,211,234,-1,234,211,212,-1,234,212,240,-1,267,274,234,-1,234,274,275,-1,234,275,237,-1,237,275,276,-1,237,276,249,-1,
        ]
    }
}
Shape{
    appearance Appearance {
        material  Material 	{
            diffuseColor 0.7529411764705882 0.7529411764705882 0.7529411764705882
            specularColor 0.3764705882352941 0.3764705882352941 0.3764705882352941
            ambientIntensity 0.7529
            transparency 0.0
            shininess 0.5
        }
    }
    geometry IndexedFaceSet {
        ccw TRUE
        solid FALSE
        coord DEF co Coordinate {
            point [
                -0.3937 -0.2598 0.2126, -0.3937 -0.2598 0.6063, -0.3937 0.2598 0.2126, -0.3937 0.2598 0.6063, 0.3937 -0.2598 0.6063, 0.3937 -0.2598 0.2126, 0.3937 0.2598 0.6063, 0.3937 0.2598 0.2126
            ]
        }
        coordIndex [
            0,1,2,-1,2,1,3,-1,4,5,6,-1,6,5,7,-1,3,1,6,-1,6,1,4,-1,
        ]
    }
}
Shape{
    appearance Appearance {
        material  Material 	{
            diffuseColor 0.0 1.0 0.0
            specularColor 0.0 0.5019607843137255 0.0
            ambientIntensity 0.587
            transparency 0.0
            shininess 0.5
        }
    }
    geometry IndexedFaceSet {
        ccw TRUE
        solid FALSE
        coord DEF co Coordinate {
            point [
                0.5512 -0.5906 0.0039, 0.5512 -0.4183 0.0039, 0.5512 -0.5906 0.2126, 0.5512 -0.2559 0.0039, 0.5512 0.5906 0.2126, 0.5512 0.0 0.0039, 0.5512 0.2559 0.0039, 0.5512 0.4069 0.0039, 0.5512 0.4402 0.0039, 0.5512 0.5906 0.0039, 0.2756 0.5906 0.0039, 0.1249 0.5906 0.0039, 0.0553 0.5906 0.0039, -0.5512 0.5906 0.2126, -0.0024 0.5906 0.0039, -0.1834 0.5906 0.0039, -0.2756 0.5906 0.0039, -0.5413 0.5906 0.0039, -0.5512 0.5906 0.0039, -0.5512 0.4402 0.0039, -0.5512 0.4069 0.0039, -0.5512 0.2559 0.0039, -0.5512 -0.5906 0.2126, -0.5512 0.0 0.0039, -0.5512 -0.2559 0.0039, -0.5512 -0.4183 0.0039, -0.5512 -0.5906 0.0039, -0.5413 -0.5906 0.0039, -0.2756 -0.5906 0.0039, -0.1834 -0.5906 0.0039, -0.0024 -0.5906 0.0039, 0.0553 -0.5906 0.0039, 0.1249 -0.5906 0.0039, 0.2756 -0.5906 0.0039
            ]
        }
        coordIndex [
            0,1,2,-1,2,1,3,-1,2,3,4,-1,4,3,5,-1,4,5,6,-1,6,7,4,-1,4,7,8,-1,4,8,9,-1,4,9,10,-1,10,11,4,-1,4,11,12,-1,4,12,13,-1,13,12,14,-1,13,14,15,-1,15,16,13,-1,13,16,17,-1,13,17,18,-1,13,18,19,-1,19,20,13,-1,13,20,21,-1,13,21,22,-1,22,21,23,-1,23,24,22,-1,22,24,25,-1,22,25,26,-1,26,27,22,-1,22,27,28,-1,28,29,22,-1,22,29,30,-1,22,30,2,-1,2,30,31,-1,31,32,2,-1,2,32,33,-1,2,33,0,-1,
        ]
    }
}
Shape{
    appearance Appearance {
        material  Material 	{
            diffuseColor 1.0 1.0 1.0
            specularColor 0.5019607843137255 0.5019607843137255 0.5019607843137255
            ambientIntensity 1.0
            transparency 0.0
            shininess 0.5
        }
    }
    geometry IndexedFaceSet {
        ccw TRUE
        solid FALSE
        coord DEF co Coordinate {
            point [
                -0.3937 -0.2598 0.2126, -0.3976 -0.2598 0.2126, -0.3937 -0.2598 0.6063, -0.3976 -0.2598 0.6102, 0.3937 -0.2598 0.6063, 0.3976 -0.2598 0.6102, 0.3937 -0.2598 0.2126, 0.3976 -0.2598 0.2126, 0.315 -0.4961 0.6102, -0.315 -0.4961 0.6102, 0.315 -0.4961 0.2126, -0.315 -0.4961 0.2126, -0.3976 -0.4134 0.6102, -0.3976 -0.4134 0.2126, -0.3956 -0.4318 0.2126, -0.3956 -0.4318 0.6102, -0.3895 -0.4493 0.2126, -0.3895 -0.4493 0.6102, -0.3796 -0.4649 0.2126, -0.3796 -0.4649 0.6102, -0.3665 -0.478 0.2126, -0.3665 -0.478 0.6102, -0.3508 -0.4879 0.2126, -0.3508 -0.4879 0.6102, -0.3334 -0.494 0.2126, -0.3334 -0.494 0.6102, 0.3976 -0.4134 0.6102, 0.3976 -0.4134 0.2126, 0.3334 -0.494 0.2126, 0.3334 -0.494 0.6102, 0.3508 -0.4879 0.2126, 0.3508 -0.4879 0.6102, 0.3665 -0.478 0.2126, 0.3665 -0.478 0.6102, 0.3796 -0.4649 0.2126, 0.3796 -0.4649 0.6102, 0.3895 -0.4493 0.2126, 0.3895 -0.4493 0.6102, 0.3956 -0.4318 0.2126, 0.3956 -0.4318 0.6102, 0.3937 0.2598 0.2126, 0.3976 0.2598 0.2126, 0.3937 0.2598 0.6063, 0.3976 0.2598 0.6102, -0.3937 0.2598 0.6063, -0.3976 0.2598 0.6102, -0.3937 0.2598 0.2126, -0.3976 0.2598 0.2126, 0.3976 0.4134 0.6102, 0.3976 0.4134 0.2126, 0.3956 0.4318 0.2126, 0.3956 0.4318 0.6102, 0.3895 0.4493 0.2126, 0.3895 0.4493 0.6102, 0.3796 0.4649 0.2126, 0.3796 0.4649 0.6102, 0.3665 0.478 0.2126, 0.3665 0.478 0.6102, 0.3508 0.4879 0.2126, 0.3508 0.4879 0.6102, 0.3334 0.494 0.2126, 0.3334 0.494 0.6102, 0.315 0.4961 0.2126, 0.315 0.4961 0.6102, -0.315 0.4961 0.6102, -0.315 0.4961 0.2126, -0.3334 0.494 0.2126, -0.3334 0.494 0.6102, -0.3508 0.4879 0.2126, -0.3508 0.4879 0.6102, -0.3665 0.478 0.2126, -0.3665 0.478 0.6102, -0.3796 0.4649 0.2126, -0.3796 0.4649 0.6102, -0.3895 0.4493 0.2126, -0.3895 0.4493 0.6102, -0.3956 0.4318 0.2126, -0.3956 0.4318 0.6102, -0.3976 0.4134 0.2126, -0.3976 0.4134 0.6102
            ]
        }
        coordIndex [
            0,1,2,-1,2,1,3,-1,2,3,4,-1,4,3,5,-1,4,5,6,-1,6,5,7,-1,8,9,10,-1,10,9,11,-1,12,13,14,-1,12,14,15,-1,15,14,16,-1,15,16,17,-1,17,16,18,-1,17,18,19,-1,19,18,20,-1,19,20,21,-1,21,20,22,-1,21,22,23,-1,23,22,24,-1,23,24,25,-1,25,24,11,-1,25,11,9,-1,12,3,13,-1,13,3,1,-1,5,26,7,-1,7,26,27,-1,8,10,28,-1,8,28,29,-1,29,28,30,-1,29,30,31,-1,31,30,32,-1,31,32,33,-1,33,32,34,-1,33,34,35,-1,35,34,36,-1,35,36,37,-1,37,36,38,-1,37,38,39,-1,39,38,27,-1,39,27,26,-1,9,8,26,-1,5,3,26,-1,26,3,12,-1,26,12,9,-1,9,12,15,-1,19,21,23,-1,8,29,26,-1,26,29,31,-1,26,31,33,-1,33,35,26,-1,26,35,37,-1,26,37,39,-1,15,17,9,-1,9,17,19,-1,9,19,25,-1,25,19,23,-1,40,41,42,-1,42,41,43,-1,42,43,44,-1,44,43,45,-1,44,45,46,-1,46,45,47,-1,48,43,49,-1,49,43,41,-1,48,49,50,-1,48,50,51,-1,51,50,52,-1,51,52,53,-1,53,52,54,-1,53,54,55,-1,55,54,56,-1,55,56,57,-1,57,56,58,-1,57,58,59,-1,59,58,60,-1,59,60,61,-1,61,60,62,-1,61,62,63,-1,64,63,65,-1,65,63,62,-1,64,65,66,-1,64,66,67,-1,67,66,68,-1,67,68,69,-1,69,68,70,-1,69,70,71,-1,71,70,72,-1,71,72,73,-1,73,72,74,-1,73,74,75,-1,75,74,76,-1,75,76,77,-1,77,76,78,-1,77,78,79,-1,45,79,47,-1,47,79,78,-1,63,64,45,-1,69,71,79,-1,48,51,53,-1,45,64,79,-1,79,64,67,-1,79,67,69,-1,71,73,79,-1,79,73,75,-1,79,75,77,-1,53,55,48,-1,48,55,57,-1,48,57,59,-1,45,43,63,-1,63,43,48,-1,63,48,61,-1,61,48,59,-1,
        ]
    }
}
Shape{
    appearance Appearance {
        material  Material 	{
            diffuseColor 0.25098039215686274 0.25098039215686274 0.25098039215686274
            specularColor 0.12549019607843137 0.12549019607843137 0.12549019607843137
            ambientIntensity 0.251
            transparency 0.0
            shininess 0.5
        }
    }
    geometry IndexedFaceSet {
        ccw TRUE
        solid FALSE
        coord DEF co Coordinate {
            point [
                0.5 -0.5049 0.2122, 0.5 -0.5049 0.2126, 0.4987 -0.4946 0.2122, 0.4987 -0.4946 0.2126, 0.4947 -0.4851 0.2122, 0.4947 -0.4851 0.2126, 0.4884 -0.4769 0.2122, 0.4884 -0.4769 0.2126, 0.4802 -0.4706 0.2122, 0.4802 -0.4706 0.2126, 0.4706 -0.4666 0.2122, 0.4706 -0.4666 0.2126, 0.4604 -0.4653 0.2122, 0.4604 -0.4653 0.2126, 0.4501 -0.4666 0.2122, 0.4501 -0.4666 0.2126, 0.4406 -0.4706 0.2122, 0.4406 -0.4706 0.2126, 0.4324 -0.4769 0.2122, 0.4324 -0.4769 0.2126, 0.4261 -0.4851 0.2122, 0.4261 -0.4851 0.2126, 0.4221 -0.4946 0.2122, 0.4221 -0.4946 0.2126, 0.4208 -0.5049 0.2122, 0.4208 -0.5049 0.2126, 0.4221 -0.5152 0.2122, 0.4221 -0.5152 0.2126, 0.4261 -0.5247 0.2122, 0.4261 -0.5247 0.2126, 0.4324 -0.5329 0.2122, 0.4324 -0.5329 0.2126, 0.4406 -0.5392 0.2122, 0.4406 -0.5392 0.2126, 0.4501 -0.5432 0.2122, 0.4501 -0.5432 0.2126, 0.4604 -0.5445 0.2122, 0.4604 -0.5445 0.2126, 0.4706 -0.5432 0.2122, 0.4706 -0.5432 0.2126, 0.4802 -0.5392 0.2122, 0.4802 -0.5392 0.2126, 0.4884 -0.5329 0.2122, 0.4884 -0.5329 0.2126, 0.4947 -0.5247 0.2122, 0.4947 -0.5247 0.2126, 0.4987 -0.5152 0.2122, 0.4987 -0.5152 0.2126, 0.4604 -0.5049 0.2122
            ]
        }
        coordIndex [
            0,1,2,-1,2,1,3,-1,2,3,4,-1,4,3,5,-1,4,5,6,-1,6,5,7,-1,6,7,8,-1,8,7,9,-1,8,9,10,-1,10,9,11,-1,10,11,12,-1,12,11,13,-1,12,13,14,-1,14,13,15,-1,14,15,16,-1,16,15,17,-1,16,17,18,-1,18,17,19,-1,18,19,20,-1,20,19,21,-1,20,21,22,-1,22,21,23,-1,22,23,24,-1,24,23,25,-1,24,25,26,-1,26,25,27,-1,26,27,28,-1,28,27,29,-1,28,29,30,-1,30,29,31,-1,30,31,32,-1,32,31,33,-1,32,33,34,-1,34,33,35,-1,34,35,36,-1,36,35,37,-1,36,37,38,-1,38,37,39,-1,38,39,40,-1,40,39,41,-1,40,41,42,-1,42,41,43,-1,42,43,44,-1,44,43,45,-1,44,45,46,-1,46,45,47,-1,46,47,0,-1,0,47,1,-1,44,46,48,-1,48,46,0,-1,48,0,2,-1,38,40,48,-1,48,40,42,-1,48,42,44,-1,32,34,48,-1,48,34,36,-1,48,36,38,-1,26,28,48,-1,48,28,30,-1,48,30,32,-1,20,22,48,-1,48,22,24,-1,48,24,26,-1,14,16,48,-1,48,16,18,-1,48,18,20,-1,8,10,48,-1,48,10,12,-1,48,12,14,-1,2,4,48,-1,48,4,6,-1,48,6,8,-1,
        ]
    }
}
Shape{
    appearance Appearance {
        material  Material 	{
            diffuseColor 1.0 1.0 0.0
            specularColor 0.5019607843137255 0.5019607843137255 0.0
            ambientIntensity 0.886
            transparency 0.0
            shininess 0.5
        }
    }
    geometry IndexedFaceSet {
        ccw TRUE
        solid FALSE
        coord DEF co Coordinate {
            point [
                -0.2165 -0.374 0.0039, -0.2165 -0.2559 0.0039, -0.2165 -0.374 0.0, -0.2165 0.0 0.0039, -0.2165 0.374 0.0, -0.2165 0.2559 0.0039, -0.2165 0.374 0.0039, 0.1249 0.374 0.0039, 0.2165 0.374 0.0039, 0.2165 0.374 0.0, -0.1834 0.374 0.0039, -0.0024 0.374 0.0039, 0.0553 0.374 0.0039, 0.2165 0.2559 0.0039, 0.2165 0.0 0.0039, 0.2165 -0.2756 0.0, 0.2165 -0.2559 0.0039, 0.2165 -0.2756 0.0039, 0.1181 -0.374 0.0, 0.1249 -0.3673 0.0039, 0.1181 -0.374 0.0039, 0.0553 -0.374 0.0039, -0.0024 -0.374 0.0039, -0.1834 -0.374 0.0039, -0.5315 -0.3051 0.0039, -0.5315 -0.3051 0.0, -0.5315 -0.4183 0.0039, -0.5315 -0.4626 0.0, -0.5315 -0.4626 0.0039, -0.3346 -0.3051 0.0, -0.3346 -0.3051 0.0039, -0.3346 -0.4626 0.0039, -0.3346 -0.4626 0.0, -0.3346 -0.4183 0.0039, 0.5315 -0.3051 0.0, 0.3346 -0.3051 0.0, 0.5315 -0.3051 0.0039, 0.3346 -0.3051 0.0039, 0.5315 -0.4626 0.0039, 0.5315 -0.4626 0.0, 0.5315 -0.4183 0.0039, 0.3346 -0.4626 0.0, 0.3346 -0.4626 0.0039, 0.3346 -0.4183 0.0039, 0.3346 -0.0492 0.0, 0.3346 -0.2067 0.0, 0.3346 -0.0492 0.0039, 0.3346 -0.2067 0.0039, 0.5315 -0.0492 0.0, 0.5315 -0.0492 0.0039, 0.5315 -0.2067 0.0, 0.5315 -0.2067 0.0039, -0.5315 -0.2067 0.0, -0.3346 -0.2067 0.0, -0.5315 -0.2067 0.0039, -0.3346 -0.2067 0.0039, -0.5315 -0.0492 0.0, -0.5315 -0.0492 0.0039, -0.3346 -0.0492 0.0, -0.3346 -0.0492 0.0039, -0.5315 0.0492 0.0, -0.3346 0.0492 0.0, -0.5315 0.0492 0.0039, -0.3346 0.0492 0.0039, -0.5315 0.2067 0.0, -0.5315 0.2067 0.0039, -0.3346 0.2067 0.0, -0.3346 0.2067 0.0039, -0.5315 0.3051 0.0, -0.3346 0.3051 0.0, -0.5315 0.3051 0.0039, -0.3346 0.3051 0.0039, -0.5315 0.4069 0.0039, -0.5315 0.4626 0.0, -0.5315 0.4402 0.0039, -0.5315 0.4626 0.0039, -0.3346 0.4626 0.0, -0.3346 0.4626 0.0039, -0.3346 0.4069 0.0039, -0.3346 0.4402 0.0039, 0.3346 0.3051 0.0, 0.3346 0.3051 0.0039, 0.3346 0.4069 0.0039, 0.3346 0.4626 0.0, 0.3346 0.4402 0.0039, 0.3346 0.4626 0.0039, 0.5315 0.4626 0.0, 0.5315 0.4626 0.0039, 0.5315 0.3051 0.0039, 0.5315 0.3051 0.0, 0.5315 0.4069 0.0039, 0.5315 0.4402 0.0039, 0.3346 0.2067 0.0, 0.3346 0.0492 0.0, 0.3346 0.2067 0.0039, 0.3346 0.0492 0.0039, 0.5315 0.2067 0.0, 0.5315 0.2067 0.0039, 0.5315 0.0492 0.0, 0.5315 0.0492 0.0039
            ]
        }
        coordIndex [
            0,1,2,-1,2,1,3,-1,2,3,4,-1,4,3,5,-1,4,5,6,-1,7,8,9,-1,6,10,4,-1,4,10,11,-1,4,11,9,-1,9,11,12,-1,9,12,7,-1,8,13,9,-1,9,13,14,-1,9,14,15,-1,15,14,16,-1,15,16,17,-1,15,17,18,-1,18,17,19,-1,18,19,20,-1,20,21,18,-1,18,21,22,-1,18,22,2,-1,2,22,23,-1,2,23,0,-1,18,2,15,-1,15,2,4,-1,15,4,9,-1,24,25,26,-1,26,25,27,-1,26,27,28,-1,29,25,30,-1,30,25,24,-1,31,32,33,-1,33,32,29,-1,33,29,30,-1,27,32,28,-1,28,32,31,-1,29,32,25,-1,25,32,27,-1,34,35,36,-1,36,35,37,-1,38,39,40,-1,40,39,34,-1,40,34,36,-1,41,39,42,-1,42,39,38,-1,37,35,43,-1,43,35,41,-1,43,41,42,-1,39,41,34,-1,34,41,35,-1,44,45,46,-1,46,45,47,-1,48,44,49,-1,49,44,46,-1,50,48,51,-1,51,48,49,-1,45,50,47,-1,47,50,51,-1,48,50,44,-1,44,50,45,-1,52,53,54,-1,54,53,55,-1,56,52,57,-1,57,52,54,-1,58,56,59,-1,59,56,57,-1,53,58,55,-1,55,58,59,-1,56,58,52,-1,52,58,53,-1,60,61,62,-1,62,61,63,-1,64,60,65,-1,65,60,62,-1,66,64,67,-1,67,64,65,-1,61,66,63,-1,63,66,67,-1,64,66,60,-1,60,66,61,-1,68,69,70,-1,70,69,71,-1,68,70,72,-1,68,72,73,-1,73,72,74,-1,73,74,75,-1,76,73,77,-1,77,73,75,-1,71,69,78,-1,78,69,76,-1,78,76,79,-1,79,76,77,-1,73,76,68,-1,68,76,69,-1,80,81,82,-1,80,82,83,-1,83,82,84,-1,83,84,85,-1,86,83,87,-1,87,83,85,-1,88,89,90,-1,90,89,86,-1,90,86,91,-1,91,86,87,-1,80,89,81,-1,81,89,88,-1,86,89,83,-1,83,89,80,-1,92,93,94,-1,94,93,95,-1,96,92,97,-1,97,92,94,-1,98,96,99,-1,99,96,97,-1,93,98,95,-1,95,98,99,-1,96,98,92,-1,92,98,93,-1,
        ]
    }
}
Shape{
    appearance Appearance {
        material  Material 	{
            diffuseColor 0.0 0.0 0.0
            specularColor 0.0 0.0 0.0
            ambientIntensity 0.0
            transparency 0.0
            shininess 0.5
        }
    }
    geometry IndexedFaceSet {
        ccw TRUE
        solid FALSE
        coord DEF co Coordinate {
            point [
                -0.1195 0.5195 0.0043, -0.1502 0.4407 0.0043, -0.1195 0.5195 0.0039, -0.1502 0.4407 0.0039, -0.1387 0.4407 0.0043, -0.1387 0.4407 0.0039, -0.1307 0.4628 0.0043, -0.1307 0.4628 0.0039, -0.0982 0.4628 0.0043, -0.0982 0.4628 0.0039, -0.0907 0.4407 0.0043, -0.0907 0.4407 0.0039, -0.0792 0.4407 0.0043, -0.0792 0.4407 0.0039, -0.1089 0.5195 0.0043, -0.1089 0.5195 0.0039, -0.1009 0.4715 0.0043, -0.1272 0.4715 0.0043, -0.1126 0.5043 0.0043, -0.1134 0.5071 0.0043, -0.1139 0.5099 0.0043, -0.1141 0.5099 0.0043, -0.1147 0.5071 0.0043, -0.1154 0.5043 0.0043, -0.1009 0.4715 0.0039, -0.1272 0.4715 0.0039, -0.1126 0.5043 0.0039, -0.1134 0.5071 0.0039, -0.1139 0.5099 0.0039, -0.1141 0.5099 0.0039, -0.1147 0.5071 0.0039, -0.1154 0.5043 0.0039, -0.0315 0.4407 0.0043, -0.01 0.4407 0.0043, -0.0315 0.4407 0.0039, -0.01 0.4407 0.0039, -0.01 0.5195 0.0043, -0.01 0.5195 0.0039, -0.0323 0.5195 0.0043, -0.0323 0.5195 0.0039, -0.0734 0.4811 0.0043, -0.0734 0.4811 0.0039, -0.0728 0.4885 0.0039, -0.0728 0.4885 0.0043, -0.0707 0.4962 0.0039, -0.0707 0.4962 0.0043, -0.0671 0.503 0.0039, -0.0671 0.503 0.0043, -0.0615 0.5092 0.0039, -0.0615 0.5092 0.0043, -0.0614 0.5093 0.0039, -0.0614 0.5093 0.0043, -0.0529 0.515 0.0039, -0.0529 0.515 0.0043, -0.0436 0.5182 0.0039, -0.0436 0.5182 0.0043, -0.0412 0.4416 0.0039, -0.0412 0.4416 0.0043, -0.0503 0.4443 0.0039, -0.0503 0.4443 0.0043, -0.0585 0.4491 0.0039, -0.0585 0.4491 0.0043, -0.065 0.4553 0.0039, -0.065 0.4553 0.0043, -0.0695 0.4623 0.0039, -0.0695 0.4623 0.0043, -0.0723 0.4705 0.0039, -0.0723 0.4705 0.0043, -0.0576 0.4998 0.0043, -0.0538 0.5038 0.0043, -0.048 0.5076 0.0043, -0.0415 0.5098 0.0043, -0.0322 0.5108 0.0043, -0.0206 0.5108 0.0043, -0.0206 0.4494 0.0043, -0.0318 0.4494 0.0043, -0.0401 0.4501 0.0043, -0.0467 0.4522 0.0043, -0.0521 0.4554 0.0043, -0.0565 0.4598 0.0043, -0.0598 0.4652 0.0043, -0.0621 0.4726 0.0043, -0.0629 0.4809 0.0043, -0.0622 0.4887 0.0043, -0.0603 0.4949 0.0043, -0.0322 0.5108 0.0039, -0.0206 0.5108 0.0039, -0.0415 0.5098 0.0039, -0.048 0.5076 0.0039, -0.0538 0.5038 0.0039, -0.0576 0.4998 0.0039, -0.0603 0.4949 0.0039, -0.0622 0.4887 0.0039, -0.0629 0.4809 0.0039, -0.0621 0.4726 0.0039, -0.0598 0.4652 0.0039, -0.0565 0.4598 0.0039, -0.0521 0.4554 0.0039, -0.0467 0.4522 0.0039, -0.0401 0.4501 0.0039, -0.0318 0.4494 0.0039, -0.0206 0.4494 0.0039, 0.0053 0.4494 0.0043, 0.0053 0.4407 0.0043, 0.0053 0.4494 0.0039, 0.0053 0.4407 0.0039, 0.0476 0.4407 0.0043, 0.0476 0.4407 0.0039, 0.0476 0.5195 0.0043, 0.0476 0.5195 0.0039, 0.0072 0.5195 0.0043, 0.0072 0.5195 0.0039, 0.0072 0.5108 0.0043, 0.0072 0.5108 0.0039, 0.037 0.5108 0.0043, 0.037 0.5108 0.0039, 0.037 0.4849 0.0043, 0.037 0.4849 0.0039, 0.0092 0.4849 0.0043, 0.0092 0.4849 0.0039, 0.0092 0.4763 0.0043, 0.0092 0.4763 0.0039, 0.037 0.4763 0.0043, 0.037 0.4763 0.0039, 0.037 0.4494 0.0043, 0.037 0.4494 0.0039, 0.0629 0.4534 0.0043, 0.0629 0.4448 0.0043, 0.0629 0.4534 0.0039, 0.0629 0.4448 0.0039, 0.0713 0.4414 0.0043, 0.0846 0.4398 0.0043, 0.0846 0.4398 0.0039, 0.0824 0.4398 0.0039, 0.0824 0.4398 0.0043, 0.0793 0.4402 0.0039, 0.0713 0.4414 0.0039, 0.0892 0.4402 0.0039, 0.0943 0.4408 0.0043, 0.0943 0.4408 0.0039, 0.1019 0.4434 0.0043, 0.1019 0.4434 0.0039, 0.1083 0.4474 0.0043, 0.1083 0.4474 0.0039, 0.1142 0.4537 0.0043, 0.1142 0.4537 0.0039, 0.1184 0.4612 0.0043, 0.1184 0.4612 0.0039, 0.1207 0.4695 0.0043, 0.1207 0.4695 0.0039, 0.1215 0.4786 0.0043, 0.1215 0.4786 0.0039, 0.0815 0.5204 0.0043, 0.0815 0.5204 0.0039, 0.0894 0.5198 0.0039, 0.0894 0.5198 0.0043, 0.0982 0.5172 0.0039, 0.0982 0.5172 0.0043, 0.1056 0.5129 0.0039, 0.1056 0.5129 0.0043, 0.1127 0.5061 0.0039, 0.1127 0.5061 0.0043, 0.1174 0.4987 0.0039, 0.1174 0.4987 0.0043, 0.1204 0.4898 0.0039, 0.1204 0.4898 0.0043, 0.0629 0.5173 0.0043, 0.0629 0.5173 0.0039, 0.072 0.5198 0.0039, 0.072 0.5198 0.0043, 0.0629 0.5067 0.0043, 0.0629 0.5067 0.0039, 0.0814 0.5118 0.0043, 0.0814 0.5118 0.0039, 0.0718 0.5105 0.0039, 0.0718 0.5105 0.0043, 0.1109 0.4793 0.0043, 0.1109 0.4793 0.0039, 0.1106 0.4854 0.0039, 0.1106 0.4854 0.0043, 0.1085 0.4938 0.0039, 0.1085 0.4938 0.0043, 0.1052 0.4999 0.0039, 0.1052 0.4999 0.0043, 0.1005 0.5051 0.0039, 0.1005 0.5051 0.0043, 0.095 0.5088 0.0039, 0.095 0.5088 0.0043, 0.0891 0.5109 0.0039, 0.0891 0.5109 0.0043, 0.0831 0.4484 0.0043, 0.0831 0.4484 0.0039, 0.0905 0.4492 0.0039, 0.0905 0.4492 0.0043, 0.0962 0.4513 0.0039, 0.0962 0.4513 0.0043, 0.1011 0.4546 0.0039, 0.1011 0.4546 0.0043, 0.1048 0.4585 0.0039, 0.1048 0.4585 0.0043, 0.108 0.464 0.0039, 0.108 0.464 0.0043, 0.1102 0.4707 0.0039, 0.1102 0.4707 0.0043, 0.0643 0.4527 0.0039, 0.0643 0.4527 0.0043, 0.0727 0.4496 0.0039, 0.0727 0.4496 0.0043, 0.1282 0.4494 0.0043, 0.1282 0.4407 0.0043, 0.1282 0.4494 0.0039, 0.1282 0.4407 0.0039, 0.1686 0.4407 0.0043, 0.1686 0.4407 0.0039, 0.1686 0.5195 0.0043, 0.1686 0.5195 0.0039, 0.158 0.5195 0.0043, 0.158 0.5195 0.0039, 0.158 0.4494 0.0043, 0.158 0.4494 0.0039
            ]
        }
        coordIndex [
            0,1,2,-1,2,1,3,-1,1,4,3,-1,3,4,5,-1,4,6,5,-1,5,6,7,-1,6,8,7,-1,7,8,9,-1,8,10,9,-1,9,10,11,-1,10,12,11,-1,11,12,13,-1,12,14,13,-1,13,14,15,-1,14,0,15,-1,15,0,2,-1,16,8,17,-1,17,8,6,-1,18,14,16,-1,16,14,12,-1,16,12,8,-1,8,12,10,-1,18,19,14,-1,14,19,20,-1,14,20,0,-1,0,20,21,-1,0,21,22,-1,22,23,0,-1,0,23,17,-1,0,17,1,-1,1,17,6,-1,1,6,4,-1,16,17,24,-1,24,17,25,-1,18,16,26,-1,26,16,24,-1,18,26,27,-1,18,27,19,-1,19,27,28,-1,19,28,20,-1,21,20,29,-1,29,20,28,-1,21,29,30,-1,21,30,22,-1,22,30,31,-1,22,31,23,-1,17,23,25,-1,25,23,31,-1,32,33,34,-1,34,33,35,-1,33,36,35,-1,35,36,37,-1,36,38,37,-1,37,38,39,-1,40,41,42,-1,40,42,43,-1,43,42,44,-1,43,44,45,-1,45,44,46,-1,45,46,47,-1,47,46,48,-1,47,48,49,-1,49,48,50,-1,49,50,51,-1,51,50,52,-1,51,52,53,-1,53,52,54,-1,53,54,55,-1,55,54,39,-1,55,39,38,-1,32,34,56,-1,32,56,57,-1,57,56,58,-1,57,58,59,-1,59,58,60,-1,59,60,61,-1,61,60,62,-1,61,62,63,-1,63,62,64,-1,63,64,65,-1,65,64,66,-1,65,66,67,-1,67,66,41,-1,67,41,40,-1,45,47,68,-1,68,47,49,-1,68,49,69,-1,69,49,51,-1,69,51,70,-1,70,51,53,-1,70,53,71,-1,71,53,55,-1,71,55,72,-1,72,55,38,-1,72,38,73,-1,73,38,36,-1,73,36,74,-1,74,36,33,-1,74,33,75,-1,75,33,32,-1,75,32,76,-1,76,32,57,-1,76,57,77,-1,77,57,59,-1,77,59,78,-1,78,59,61,-1,78,61,79,-1,79,61,63,-1,79,63,80,-1,80,63,65,-1,80,65,81,-1,81,65,67,-1,81,67,82,-1,82,67,40,-1,82,40,83,-1,83,40,43,-1,83,43,84,-1,84,43,45,-1,84,45,68,-1,72,73,85,-1,85,73,86,-1,72,85,87,-1,72,87,71,-1,71,87,88,-1,71,88,70,-1,70,88,89,-1,70,89,69,-1,69,89,90,-1,69,90,68,-1,68,90,91,-1,68,91,84,-1,84,91,92,-1,84,92,83,-1,83,92,93,-1,83,93,82,-1,82,93,94,-1,82,94,81,-1,81,94,95,-1,81,95,80,-1,80,95,96,-1,80,96,79,-1,79,96,97,-1,79,97,78,-1,78,97,98,-1,78,98,77,-1,77,98,99,-1,77,99,76,-1,76,99,100,-1,76,100,75,-1,74,75,101,-1,101,75,100,-1,73,74,86,-1,86,74,101,-1,102,103,104,-1,104,103,105,-1,103,106,105,-1,105,106,107,-1,106,108,107,-1,107,108,109,-1,108,110,109,-1,109,110,111,-1,110,112,111,-1,111,112,113,-1,112,114,113,-1,113,114,115,-1,114,116,115,-1,115,116,117,-1,116,118,117,-1,117,118,119,-1,118,120,119,-1,119,120,121,-1,120,122,121,-1,121,122,123,-1,122,124,123,-1,123,124,125,-1,124,102,125,-1,125,102,104,-1,106,103,102,-1,102,124,106,-1,106,124,122,-1,106,122,108,-1,112,110,114,-1,114,110,108,-1,114,108,116,-1,116,108,122,-1,116,122,118,-1,118,122,120,-1,126,127,128,-1,128,127,129,-1,129,127,130,-1,131,132,133,-1,131,133,134,-1,134,133,135,-1,134,135,130,-1,130,135,136,-1,130,136,129,-1,132,131,137,-1,137,131,138,-1,137,138,139,-1,139,138,140,-1,139,140,141,-1,141,140,142,-1,141,142,143,-1,143,142,144,-1,143,144,145,-1,145,144,146,-1,145,146,147,-1,147,146,148,-1,147,148,149,-1,149,148,150,-1,149,150,151,-1,152,153,154,-1,152,154,155,-1,155,154,156,-1,155,156,157,-1,157,156,158,-1,157,158,159,-1,159,158,160,-1,159,160,161,-1,161,160,162,-1,161,162,163,-1,163,162,164,-1,163,164,165,-1,165,164,151,-1,165,151,150,-1,166,167,168,-1,166,168,169,-1,169,168,153,-1,169,153,152,-1,166,170,167,-1,167,170,171,-1,172,173,174,-1,172,174,175,-1,175,174,171,-1,175,171,170,-1,176,177,178,-1,176,178,179,-1,179,178,180,-1,179,180,181,-1,181,180,182,-1,181,182,183,-1,183,182,184,-1,183,184,185,-1,185,184,186,-1,185,186,187,-1,187,186,188,-1,187,188,189,-1,189,188,173,-1,189,173,172,-1,190,191,192,-1,190,192,193,-1,193,192,194,-1,193,194,195,-1,195,194,196,-1,195,196,197,-1,197,196,198,-1,197,198,199,-1,199,198,200,-1,199,200,201,-1,201,200,202,-1,201,202,203,-1,203,202,177,-1,203,177,176,-1,126,128,204,-1,126,204,205,-1,205,204,206,-1,205,206,207,-1,207,206,191,-1,207,191,190,-1,193,131,190,-1,190,131,134,-1,190,134,207,-1,207,134,130,-1,207,130,205,-1,205,130,127,-1,205,127,126,-1,170,166,175,-1,175,166,169,-1,175,169,172,-1,172,169,152,-1,172,152,189,-1,189,152,155,-1,189,155,187,-1,187,155,157,-1,187,157,185,-1,185,157,159,-1,185,159,183,-1,183,159,161,-1,183,161,181,-1,181,161,163,-1,181,163,179,-1,179,163,165,-1,179,165,176,-1,176,165,150,-1,176,150,203,-1,203,150,148,-1,203,148,201,-1,201,148,146,-1,201,146,199,-1,199,146,144,-1,199,144,197,-1,197,144,142,-1,197,142,195,-1,195,142,140,-1,195,140,193,-1,193,140,138,-1,193,138,131,-1,208,209,210,-1,210,209,211,-1,209,212,211,-1,211,212,213,-1,212,214,213,-1,213,214,215,-1,214,216,215,-1,215,216,217,-1,216,218,217,-1,217,218,219,-1,218,208,219,-1,219,208,210,-1,216,214,218,-1,218,214,212,-1,218,212,208,-1,208,212,209,-1,
        ]
    }
}
Shape{
    appearance Appearance {
        material  Material 	{
            diffuseColor 0.0 1.0 0.0
            specularColor 0.0 0.5019607843137255 0.0
            ambientIntensity 0.587
            transparency 0.0
            shininess 0.5
        }
    }
    geometry IndexedFaceSet {
        ccw TRUE
        solid FALSE
        coord DEF co Coordinate {
            point [
                -0.1009 0.4715 0.0039, -0.1272 0.4715 0.0039, -0.1126 0.5043 0.0039, -0.1154 0.5043 0.0039, -0.1134 0.5071 0.0039, -0.1147 0.5071 0.0039, -0.1139 0.5099 0.0039, -0.1141 0.5099 0.0039, -0.0206 0.5108 0.0039, -0.0206 0.4494 0.0039, -0.0322 0.5108 0.0039, -0.0318 0.4494 0.0039, -0.0401 0.4501 0.0039, -0.0629 0.4809 0.0039, -0.0622 0.4887 0.0039, -0.0603 0.4949 0.0039, -0.0415 0.5098 0.0039, -0.0467 0.4522 0.0039, -0.0521 0.4554 0.0039, -0.0565 0.4598 0.0039, -0.0598 0.4652 0.0039, -0.0621 0.4726 0.0039, -0.0576 0.4998 0.0039, -0.0538 0.5038 0.0039, -0.048 0.5076 0.0039
            ]
        }
        coordIndex [
            0,1,2,-1,2,1,3,-1,2,3,4,-1,4,3,5,-1,4,5,6,-1,6,5,7,-1,8,9,10,-1,10,9,11,-1,10,11,12,-1,13,14,10,-1,10,14,15,-1,10,15,16,-1,12,17,10,-1,10,17,18,-1,10,18,19,-1,19,20,10,-1,10,20,21,-1,10,21,13,-1,22,23,15,-1,15,23,24,-1,15,24,16,-1,
        ]
    }
}