M48
; DRILL file {KiCad 9.0.7} date 2026-09-30T14:22:35+0200
; FORMAT={-:-/ absolute / metric / decimal}
; #@! TF.CreationDate,2026-09-30T14:22:35+02:00
; #@! TF.GenerationSoftware,Kicad,Pcbnew,9.0.7
; #@! TF.FileFunction,MixedPlating,1,4
FMAT,2
METRIC
; #@! TA.AperFunction,Plated,PTH,ViaDrill
T1C0.200
; #@! TA.AperFunction,Plated,PTH,ViaDrill
T2C0.250
; #@! TA.AperFunction,Plated,PTH,ComponentDrill
T3C0.400
; #@! TA.AperFunction,Plated,PTH,ComponentDrill
T4C0.600
; #@! TA.AperFunction,Plated,PTH,ComponentDrill
T5C2.200
; #@! TA.AperFunction,NonPlated,NPTH,ComponentDrill
T6C1.100
; #@! TA.AperFunction,NonPlated,NPTH,ComponentDrill
T7C1.600
%
G90
G05
T1
X1.2Y-1.2
X1.2Y-3.2
X1.2Y-5.2
X1.2Y-7.2
X1.2Y-9.2
X1.2Y-11.2
X1.2Y-13.2
X1.2Y-15.2
X1.2Y-17.2
X1.2Y-19.2
X1.2Y-31.2
X1.2Y-33.2
X1.2Y-35.2
X1.2Y-37.2
X1.2Y-39.2
X1.2Y-41.2
X1.2Y-43.2
X3.2Y-1.2
X3.2Y-3.2
X3.2Y-5.2
X3.2Y-7.2
X3.2Y-9.2
X3.2Y-11.2
X3.2Y-13.2
X3.2Y-15.2
X3.2Y-17.2
X3.2Y-19.2
X3.2Y-31.2
X3.2Y-33.2
X3.2Y-35.2
X3.2Y-37.2
X3.2Y-39.2
X3.2Y-41.2
X3.2Y-43.2
X5.2Y-1.2
X5.2Y-3.2
X5.2Y-5.2
X5.2Y-7.2
X5.2Y-9.2
X5.2Y-11.2
X5.2Y-13.2
X5.2Y-15.2
X5.2Y-31.2
X5.2Y-33.2
X5.2Y-35.2
X5.2Y-37.2
X5.2Y-39.2
X5.2Y-41.2
X5.2Y-43.2
X7.2Y-1.2
X7.2Y-3.2
X7.2Y-5.2
X7.2Y-7.2
X7.2Y-9.2
X7.2Y-11.2
X7.2Y-13.2
X7.2Y-15.2
X7.2Y-19.2
X7.2Y-31.2
X7.2Y-33.2
X7.2Y-35.2
X7.2Y-37.2
X7.2Y-39.2
X7.2Y-41.2
X7.2Y-43.2
X7.48Y-18.25
X7.565Y-21.7
X7.565Y-22.55
X7.565Y-23.05
X7.565Y-23.55
X7.565Y-25.05
X7.565Y-25.55
X7.565Y-26.05
X7.565Y-26.55
X7.565Y-27.05
X7.565Y-27.9
X9.051Y-28.04
X9.2Y-1.2
X9.2Y-3.2
X9.2Y-5.2
X9.2Y-9.2
X9.2Y-11.2
X9.2Y-15.2
X9.2Y-19.2
X9.2Y-33.2
X9.2Y-35.2
X9.2Y-37.2
X9.2Y-39.2
X9.2Y-41.2
X9.2Y-43.2
X9.35Y-23.8
X9.35Y-25.3
X9.95Y-24.3
X10.25Y-16.85
X10.26Y-31.25
X10.48Y-7.25
X11.0Y-23.9
X11.2Y-1.2
X11.2Y-3.2
X11.2Y-5.2
X11.2Y-15.2
X11.2Y-21.2
X11.2Y-31.2
X11.2Y-33.2
X11.2Y-35.2
X11.2Y-37.2
X11.2Y-39.2
X11.2Y-43.2
X11.25Y-28.52
X11.6Y-24.3
X11.95Y-17.25
X12.02Y-12.03
X12.17Y-32.79
X12.26Y-19.25
X12.45Y-10.0
X12.75Y-28.27
X13.118Y-16.575
X13.2Y-1.2
X13.2Y-3.2
X13.2Y-15.2
X13.2Y-19.2
X13.2Y-21.2
X13.2Y-25.2
X13.45Y-14.0
X13.48Y-41.75
X13.76Y-5.25
X13.99Y-31.33
X14.25Y-28.52
X14.5Y-6.02
X15.0Y-11.05
X15.2Y-1.2
X15.2Y-3.2
X15.2Y-5.2
X15.2Y-9.2
X15.2Y-15.2
X15.2Y-21.2
X15.2Y-29.2
X15.2Y-43.2
X15.75Y-17.77
X15.98Y-42.0
X16.0Y-24.8
X16.0Y-28.52
X16.6Y-24.4
X17.2Y-1.2
X17.2Y-3.2
X17.2Y-5.2
X17.2Y-7.2
X17.2Y-9.2
X17.2Y-13.2
X17.2Y-43.2
X17.49Y-30.83
X18.95Y-27.0
X18.98Y-17.75
X18.98Y-19.25
X18.99Y-30.83
X19.2Y-1.2
X19.2Y-3.2
X19.2Y-5.2
X19.2Y-7.2
X19.2Y-13.2
X19.23Y-29.0
X19.48Y-14.75
X19.556Y-20.461
X20.23Y-16.25
X20.49Y-30.82
X20.9Y-21.6
X20.9Y-26.0
X21.0Y-26.9
X21.2Y-1.2
X21.2Y-9.2
X21.2Y-11.2
X21.25Y-22.0
X21.25Y-24.0
X21.25Y-26.4
X21.291Y-16.941
X21.4Y-18.882
X21.825Y-17.001
X21.91Y-13.38
X21.98Y-17.75
X21.99Y-30.83
X22.2Y-26.55
X23.087Y-18.649
X23.2Y-1.2
X23.2Y-9.2
X23.2Y-23.0
X23.2Y-24.6
X23.4Y-26.9
X23.8Y-26.55
X24.8Y-23.0
X24.8Y-24.6
X24.99Y-30.83
X25.0Y-26.55
X25.015Y-19.255
X25.2Y-1.2
X25.2Y-9.2
X25.2Y-11.2
X25.22Y-13.98
X25.98Y-12.0
X26.2Y-26.55
X26.25Y-16.35
X26.36Y-43.5
X26.48Y-15.0
X27.2Y-1.2
X27.2Y-3.2
X27.2Y-5.2
X27.2Y-7.2
X27.2Y-9.2
X27.252Y-22.514
X27.274Y-21.689
X27.75Y-13.27
X27.99Y-30.83
X28.025Y-19.732
X28.384Y-27.9
X28.47Y-15.849
X28.549Y-24.293
X28.553Y-21.771
X28.66Y-16.5
X28.81Y-22.4
X29.033Y-28.161
X29.2Y-1.2
X29.2Y-3.2
X29.2Y-5.2
X29.2Y-7.2
X29.2Y-9.2
X29.2Y-31.2
X29.2Y-41.2
X29.2Y-43.2
X29.25Y-11.99
X29.41Y-28.66
X29.747Y-26.28
X29.769Y-21.984
X30.27Y-26.073
X31.09Y-26.34
X31.2Y-1.2
X31.2Y-3.2
X31.2Y-5.2
X31.2Y-7.2
X31.2Y-9.2
X31.2Y-11.2
X31.2Y-17.2
X31.2Y-43.2
X31.23Y-30.0
X31.48Y-23.75
X31.5Y-13.55
X32.25Y-22.02
X32.49Y-31.33
X32.5Y-26.02
X32.5Y-28.52
X33.2Y-1.2
X33.2Y-3.2
X33.2Y-5.2
X33.2Y-7.2
X33.2Y-9.2
X33.2Y-11.2
X33.2Y-31.2
X33.48Y-25.25
X33.5Y-13.49
X33.5Y-17.8
X33.52Y-28.973
X34.0Y-27.74
X34.25Y-22.77
X34.25Y-25.27
X34.31Y-32.79
X34.403Y-21.845
X34.48Y-41.75
X34.89Y-20.113
X35.1Y-42.6
T2
X5.045Y-18.275
X8.55Y-17.25
X9.0Y-14.01
X10.05Y-14.0
X11.38Y-12.03
X12.67Y-7.97
X12.67Y-12.03
X12.72Y-43.4
X14.24Y-40.68
X14.5Y-8.48
X14.74Y-41.18
X15.0Y-14.45
X17.74Y-40.68
X18.02Y-20.55
X18.12Y-28.011
X18.24Y-41.18
X20.12Y-43.5
X20.25Y-10.49
X22.234Y-15.178
X22.998Y-19.204
X23.51Y-12.0
X23.563Y-14.515
X25.18Y-15.684
X26.51Y-13.5
X26.6Y-18.99
X27.415Y-18.643
X27.75Y-15.981
X28.51Y-12.0
X28.55Y-18.13
X28.713Y-19.681
X28.81Y-25.2
X28.81Y-26.8
X28.87Y-29.62
X29.02Y-23.75
X29.69Y-24.05
X29.85Y-18.05
X30.326Y-11.381
X31.81Y-29.449
X32.24Y-40.68
X33.01Y-12.5
X33.02Y-43.25
X33.5Y-19.59
T3
X21.59Y-5.75
X22.073Y-4.583
X22.073Y-6.917
X23.24Y-4.1
X23.24Y-7.4
X24.407Y-4.583
X24.407Y-6.917
X24.89Y-5.75
T5
X23.24Y-5.75
T6
X13.24Y-37.5
T7
X33.24Y-37.5
T4
X3.195Y-20.48G85X1.695Y-20.48
G05
X3.195Y-29.12G85X1.695Y-29.12
G05
X8.305Y-20.48G85X7.305Y-20.48
G05
X8.305Y-29.12G85X7.305Y-29.12
G05
M30
