G04 #@! TF.GenerationSoftware,KiCad,Pcbnew,9.0.7*
G04 #@! TF.CreationDate,2026-09-30T14:22:34+02:00*
G04 #@! TF.ProjectId,cartouche-drive,63617274-6f75-4636-9865-2d6472697665,rev?*
G04 #@! TF.SameCoordinates,Original*
G04 #@! TF.FileFunction,Copper,L2,Inr*
G04 #@! TF.FilePolarity,Positive*
%FSLAX46Y46*%
G04 Gerber Fmt 4.6, Leading zero omitted, Abs format (unit mm)*
G04 Created by KiCad (PCBNEW 9.0.7) date 2026-09-30 14:22:34*
%MOMM*%
%LPD*%
G01*
G04 APERTURE LIST*
G04 #@! TA.AperFunction,HeatsinkPad*
%ADD10O,2.100000X1.100000*%
G04 #@! TD*
G04 #@! TA.AperFunction,HeatsinkPad*
%ADD11O,2.600000X1.100000*%
G04 #@! TD*
G04 #@! TA.AperFunction,ComponentPad*
%ADD12C,0.700000*%
G04 #@! TD*
G04 #@! TA.AperFunction,ComponentPad*
%ADD13C,4.400000*%
G04 #@! TD*
G04 #@! TA.AperFunction,ViaPad*
%ADD14C,0.400000*%
G04 #@! TD*
G04 #@! TA.AperFunction,ViaPad*
%ADD15C,0.500000*%
G04 #@! TD*
G04 APERTURE END LIST*
D10*
G04 #@! TO.N,/GND*
G04 #@! TO.C,J1*
X7805000Y-20480000D03*
D11*
X2445000Y-20480000D03*
D10*
X7805000Y-29120000D03*
D11*
X2445000Y-29120000D03*
G04 #@! TD*
D12*
G04 #@! TO.N,/GND*
G04 #@! TO.C,H1*
X21590000Y-5750000D03*
X22073274Y-4583274D03*
X22073274Y-6916726D03*
X23240000Y-4100000D03*
D13*
X23240000Y-5750000D03*
D12*
X23240000Y-7400000D03*
X24406726Y-4583274D03*
X24406726Y-6916726D03*
X24890000Y-5750000D03*
G04 #@! TD*
D14*
G04 #@! TO.N,/+1V0*
X29850000Y-18050000D03*
X29020000Y-23750000D03*
X22200000Y-26550000D03*
X26200000Y-26550000D03*
X28550000Y-18130000D03*
X23800000Y-26550000D03*
X25000000Y-26550000D03*
X28870000Y-29620000D03*
X21250000Y-22000000D03*
X28810000Y-26800000D03*
X21000000Y-26900000D03*
D15*
X33500000Y-19590000D03*
D14*
X26600000Y-18990000D03*
X28810000Y-25200000D03*
D15*
X31809800Y-29449300D03*
X27750000Y-15981200D03*
D14*
X29690000Y-24050000D03*
X18120000Y-28010500D03*
X20900000Y-26000000D03*
X18020000Y-20550000D03*
X21250000Y-26400000D03*
X21250000Y-24000000D03*
G04 #@! TO.N,/GND*
X13480000Y-41750000D03*
X3200000Y-35200000D03*
X5200000Y-43200000D03*
X32500000Y-26020000D03*
X3200000Y-19200000D03*
X1200000Y-39200000D03*
X15200000Y-3200000D03*
X17200000Y-13200000D03*
X13450000Y-14000000D03*
X33200000Y-11200000D03*
X26480000Y-15000000D03*
X3200000Y-9200000D03*
X3200000Y-37200000D03*
X33200000Y-31200000D03*
X1200000Y-9200000D03*
X13200000Y-19200000D03*
X11200000Y-37200000D03*
X25200000Y-11200000D03*
X7200000Y-9200000D03*
X15000000Y-11050000D03*
X3200000Y-39200000D03*
X17490000Y-30830000D03*
X13200000Y-21200000D03*
X12260000Y-19250000D03*
X29200000Y-5200000D03*
X9200000Y-3200000D03*
X29200000Y-3200000D03*
X17200000Y-1200000D03*
X3200000Y-13200000D03*
X1200000Y-41200000D03*
X27200000Y-3200000D03*
X5200000Y-33200000D03*
X26250000Y-16350000D03*
X7200000Y-35200000D03*
X7200000Y-39200000D03*
X19230000Y-29000000D03*
X5200000Y-11200000D03*
X1200000Y-15200000D03*
X9200000Y-37200000D03*
X24800000Y-23000000D03*
X18990000Y-30830000D03*
X29200000Y-43200000D03*
X31230000Y-30000000D03*
X15200000Y-29200000D03*
X25200000Y-9200000D03*
X19200000Y-3200000D03*
X13200000Y-15200000D03*
X13200000Y-1200000D03*
X31500000Y-13550000D03*
X31200000Y-17200000D03*
X3200000Y-43200000D03*
X15200000Y-1200000D03*
X7565000Y-21700000D03*
X7200000Y-13200000D03*
X21980000Y-17750000D03*
X31200000Y-5200000D03*
X9200000Y-43200000D03*
X33500000Y-13490000D03*
X12450000Y-10000000D03*
X11250000Y-28520000D03*
X9200000Y-9200000D03*
X24990000Y-30830000D03*
X11200000Y-31200000D03*
X21200000Y-1200000D03*
X32500000Y-28520000D03*
X9200000Y-15200000D03*
X27200000Y-1200000D03*
X24800000Y-24600000D03*
X7200000Y-19200000D03*
X31200000Y-3200000D03*
X7200000Y-31200000D03*
X20230000Y-16250000D03*
X5200000Y-39200000D03*
X23200000Y-24600000D03*
X5200000Y-41200000D03*
X11200000Y-35200000D03*
X19200000Y-5200000D03*
X16000000Y-28520000D03*
X5200000Y-9200000D03*
X32490000Y-31330000D03*
X11950000Y-17250000D03*
X3200000Y-3200000D03*
X1200000Y-1200000D03*
X3200000Y-1200000D03*
X1200000Y-13200000D03*
X10480000Y-7250000D03*
X9200000Y-41200000D03*
X7200000Y-43200000D03*
X5200000Y-31200000D03*
X29200000Y-9200000D03*
X3200000Y-41200000D03*
X34480000Y-41750000D03*
X3200000Y-31200000D03*
X23200000Y-9200000D03*
X5200000Y-37200000D03*
X3200000Y-17200000D03*
X5200000Y-35200000D03*
X11200000Y-5200000D03*
X10260000Y-31250000D03*
X33200000Y-5200000D03*
X35100000Y-42600000D03*
X11200000Y-1200000D03*
X15200000Y-15200000D03*
X11200000Y-43200000D03*
X25980000Y-12000000D03*
X5200000Y-13200000D03*
X3200000Y-7200000D03*
X34000000Y-27740000D03*
X7200000Y-41200000D03*
X3200000Y-33200000D03*
X17200000Y-5200000D03*
X19200000Y-1200000D03*
X33200000Y-9200000D03*
X5200000Y-3200000D03*
X13200000Y-25200000D03*
X27990000Y-30830000D03*
X17200000Y-7200000D03*
X9200000Y-39200000D03*
X13990000Y-31330000D03*
X33200000Y-7200000D03*
X7200000Y-11200000D03*
X9200000Y-33200000D03*
X34250000Y-25270000D03*
X5200000Y-7200000D03*
X1200000Y-3200000D03*
X15200000Y-5200000D03*
X31200000Y-1200000D03*
X21910000Y-13380000D03*
X1200000Y-7200000D03*
X9200000Y-5200000D03*
X9200000Y-11200000D03*
X28810000Y-22400000D03*
X31200000Y-9200000D03*
X1200000Y-19200000D03*
X13200000Y-3200000D03*
X27200000Y-5200000D03*
X33200000Y-3200000D03*
X29410000Y-28660000D03*
X19200000Y-7200000D03*
X34250000Y-22770000D03*
X1200000Y-35200000D03*
X21200000Y-9200000D03*
X19200000Y-13200000D03*
X12170000Y-32790000D03*
X15980000Y-42000000D03*
X25200000Y-1200000D03*
X27200000Y-7200000D03*
X31090000Y-26340000D03*
X15200000Y-21200000D03*
X31200000Y-7200000D03*
X33500000Y-17800000D03*
X1200000Y-17200000D03*
X27750000Y-13270000D03*
X31200000Y-11200000D03*
X31200000Y-43200000D03*
X28660000Y-16500000D03*
X17200000Y-9200000D03*
X11200000Y-33200000D03*
X26360000Y-43500000D03*
X1200000Y-33200000D03*
X21990000Y-30830000D03*
X32250000Y-22020000D03*
X7200000Y-5200000D03*
X31480000Y-23750000D03*
X29200000Y-1200000D03*
X9200000Y-1200000D03*
X20490000Y-30820000D03*
X1200000Y-31200000D03*
X27200000Y-9200000D03*
X11200000Y-3200000D03*
X5200000Y-1200000D03*
X23200000Y-23000000D03*
X12750000Y-28270000D03*
X29250000Y-11990000D03*
X15200000Y-43200000D03*
X9200000Y-35200000D03*
X11200000Y-15200000D03*
X12020000Y-12030000D03*
X29200000Y-31200000D03*
X29200000Y-41200000D03*
X1200000Y-37200000D03*
X7565000Y-27900000D03*
X18980000Y-19250000D03*
X7200000Y-3200000D03*
X5200000Y-5200000D03*
X19480000Y-14750000D03*
X11200000Y-39200000D03*
X29200000Y-7200000D03*
X15750000Y-17770000D03*
X13760000Y-5250000D03*
X18980000Y-17750000D03*
X17200000Y-43200000D03*
X7200000Y-37200000D03*
X7200000Y-7200000D03*
X11200000Y-21200000D03*
X3200000Y-5200000D03*
X9200000Y-19200000D03*
X14250000Y-28520000D03*
X1200000Y-43200000D03*
X33200000Y-1200000D03*
X1200000Y-5200000D03*
X5200000Y-15200000D03*
X23200000Y-1200000D03*
X7200000Y-33200000D03*
X21200000Y-11200000D03*
X7200000Y-15200000D03*
X7480000Y-18250000D03*
X3200000Y-15200000D03*
X34310000Y-32790000D03*
X3200000Y-11200000D03*
X14500000Y-6020000D03*
X17200000Y-3200000D03*
X1200000Y-11200000D03*
X33480000Y-25250000D03*
X7200000Y-1200000D03*
X15200000Y-9200000D03*
G04 #@! TO.N,/+3V3_JMS*
X20900000Y-21600000D03*
D15*
X22998400Y-19204500D03*
X25180000Y-15683800D03*
D14*
X18950000Y-27000000D03*
D15*
X28713200Y-19680900D03*
D14*
G04 #@! TO.N,/VBUS*
X8550000Y-17250000D03*
X11380000Y-12030000D03*
X9000000Y-14010000D03*
D15*
X30326200Y-11381500D03*
D14*
X7565000Y-23550000D03*
X5045314Y-18275314D03*
D15*
X22233900Y-15177700D03*
D14*
X7565000Y-26050000D03*
X10050000Y-14000000D03*
D15*
X27415200Y-18643400D03*
D14*
G04 #@! TO.N,/USB_TX2P*
X7565000Y-27050000D03*
X11600000Y-24300000D03*
G04 #@! TO.N,/RST*
X21400000Y-18882000D03*
X21825300Y-17000900D03*
G04 #@! TO.N,/XOUT*
X34403000Y-21845200D03*
X30269900Y-26072700D03*
G04 #@! TO.N,/+3V3*
X14740000Y-41180000D03*
X14500000Y-8480000D03*
X12720000Y-43400000D03*
X33020000Y-43250000D03*
X17740000Y-40680000D03*
X20250000Y-10490000D03*
X14240000Y-40680000D03*
X26510000Y-13500000D03*
X12670000Y-12030000D03*
X18240000Y-41180000D03*
X23510000Y-12000000D03*
X28510000Y-12000000D03*
X20120000Y-43500000D03*
X33010000Y-12500000D03*
X12670000Y-7970000D03*
X15000000Y-14450000D03*
X32240000Y-40680000D03*
D15*
X23562600Y-14515400D03*
D14*
G04 #@! TO.N,/USB_TX2N*
X7565000Y-26550000D03*
X11000000Y-23900000D03*
G04 #@! TO.N,/CC1*
X9350000Y-23800000D03*
X27273700Y-21689000D03*
X10250000Y-16850400D03*
G04 #@! TO.N,/USB_DP*
X13117700Y-16575200D03*
X7565000Y-25050000D03*
X9950000Y-24300000D03*
G04 #@! TO.N,/USB_DM*
X19555800Y-20460600D03*
X9350000Y-25300000D03*
G04 #@! TO.N,/CC2*
X9051000Y-28040200D03*
X7565000Y-25550000D03*
X28552700Y-21771000D03*
G04 #@! TO.N,/USB_RX1N*
X16000000Y-24800000D03*
X7565000Y-23050000D03*
G04 #@! TO.N,/USB_RX1P*
X16600000Y-24400000D03*
X7565000Y-22550000D03*
G04 #@! TO.N,/CLKREQ*
X28384500Y-27900300D03*
X28549500Y-24293200D03*
X25220500Y-13980500D03*
G04 #@! TO.N,/PERST*
X29747300Y-26280400D03*
X29033300Y-28161300D03*
G04 #@! TO.N,/SPI_CS*
X25014600Y-19255500D03*
X28025000Y-19732400D03*
G04 #@! TO.N,/VBUS_DET*
X21290600Y-16940500D03*
X23087300Y-18649400D03*
G04 #@! TO.N,/REXT*
X23400000Y-26900000D03*
X33519500Y-28973300D03*
G04 #@! TO.N,/MODE0*
X29768800Y-21984100D03*
X34890000Y-20112500D03*
G04 #@! TO.N,/MODE1*
X27252400Y-22514000D03*
X28469800Y-15848800D03*
G04 #@! TD*
G04 #@! TA.AperFunction,Conductor*
G04 #@! TO.N,/GND*
G36*
X34503874Y-300805D02*
G01*
X34531912Y-303011D01*
X34679881Y-314657D01*
X34695210Y-317084D01*
X34863095Y-357390D01*
X34877865Y-362190D01*
X35037369Y-428258D01*
X35051201Y-435306D01*
X35198408Y-525515D01*
X35210967Y-534639D01*
X35342254Y-646768D01*
X35353231Y-657745D01*
X35465356Y-789027D01*
X35474487Y-801595D01*
X35564689Y-948791D01*
X35571742Y-962633D01*
X35637809Y-1122134D01*
X35642610Y-1136908D01*
X35682913Y-1304781D01*
X35685343Y-1320124D01*
X35699195Y-1496124D01*
X35699500Y-1503892D01*
X35699500Y-44496107D01*
X35699195Y-44503874D01*
X35699195Y-44503875D01*
X35685343Y-44679875D01*
X35682913Y-44695218D01*
X35642610Y-44863091D01*
X35637809Y-44877865D01*
X35571742Y-45037366D01*
X35564689Y-45051208D01*
X35474487Y-45198404D01*
X35465356Y-45210972D01*
X35353235Y-45342250D01*
X35342250Y-45353235D01*
X35210972Y-45465356D01*
X35198404Y-45474487D01*
X35051208Y-45564689D01*
X35037366Y-45571742D01*
X34877865Y-45637809D01*
X34863091Y-45642610D01*
X34695218Y-45682913D01*
X34679875Y-45685343D01*
X34503875Y-45699195D01*
X34496107Y-45699500D01*
X1503893Y-45699500D01*
X1496125Y-45699195D01*
X1320124Y-45685343D01*
X1304781Y-45682913D01*
X1136908Y-45642610D01*
X1122134Y-45637809D01*
X962633Y-45571742D01*
X948791Y-45564689D01*
X847226Y-45502450D01*
X801593Y-45474485D01*
X789027Y-45465356D01*
X657745Y-45353231D01*
X646768Y-45342254D01*
X534639Y-45210967D01*
X525515Y-45198408D01*
X435306Y-45051201D01*
X428257Y-45037366D01*
X362190Y-44877865D01*
X357389Y-44863091D01*
X354730Y-44852014D01*
X317084Y-44695210D01*
X314657Y-44679881D01*
X300805Y-44503874D01*
X300500Y-44496107D01*
X300500Y-43353856D01*
X12369500Y-43353856D01*
X12369500Y-43446144D01*
X12393386Y-43535288D01*
X12439531Y-43615212D01*
X12504788Y-43680469D01*
X12584712Y-43726614D01*
X12673856Y-43750500D01*
X12673858Y-43750500D01*
X12766142Y-43750500D01*
X12766144Y-43750500D01*
X12855288Y-43726614D01*
X12935212Y-43680469D01*
X13000469Y-43615212D01*
X13046614Y-43535288D01*
X13068434Y-43453856D01*
X19769500Y-43453856D01*
X19769500Y-43546144D01*
X19793386Y-43635288D01*
X19839531Y-43715212D01*
X19904788Y-43780469D01*
X19984712Y-43826614D01*
X20073856Y-43850500D01*
X20073858Y-43850500D01*
X20166142Y-43850500D01*
X20166144Y-43850500D01*
X20255288Y-43826614D01*
X20335212Y-43780469D01*
X20400469Y-43715212D01*
X20446614Y-43635288D01*
X20470500Y-43546144D01*
X20470500Y-43453856D01*
X20446614Y-43364712D01*
X20400469Y-43284788D01*
X20335212Y-43219531D01*
X20308064Y-43203857D01*
X20308062Y-43203856D01*
X32669500Y-43203856D01*
X32669500Y-43296144D01*
X32687872Y-43364709D01*
X32693387Y-43385290D01*
X32728520Y-43446142D01*
X32739531Y-43465212D01*
X32804788Y-43530469D01*
X32884712Y-43576614D01*
X32973856Y-43600500D01*
X32973858Y-43600500D01*
X33066142Y-43600500D01*
X33066144Y-43600500D01*
X33155288Y-43576614D01*
X33235212Y-43530469D01*
X33300469Y-43465212D01*
X33346614Y-43385288D01*
X33370500Y-43296144D01*
X33370500Y-43203856D01*
X33346614Y-43114712D01*
X33300469Y-43034788D01*
X33235212Y-42969531D01*
X33155288Y-42923386D01*
X33066144Y-42899500D01*
X32973856Y-42899500D01*
X32884712Y-42923386D01*
X32884711Y-42923386D01*
X32884709Y-42923387D01*
X32804790Y-42969529D01*
X32739529Y-43034790D01*
X32693387Y-43114709D01*
X32693386Y-43114711D01*
X32693386Y-43114712D01*
X32669500Y-43203856D01*
X20308062Y-43203856D01*
X20255290Y-43173387D01*
X20255289Y-43173386D01*
X20255288Y-43173386D01*
X20166144Y-43149500D01*
X20073856Y-43149500D01*
X19984712Y-43173386D01*
X19984711Y-43173386D01*
X19984709Y-43173387D01*
X19904790Y-43219529D01*
X19839529Y-43284790D01*
X19793387Y-43364709D01*
X19793386Y-43364711D01*
X19793386Y-43364712D01*
X19769500Y-43453856D01*
X13068434Y-43453856D01*
X13070500Y-43446144D01*
X13070500Y-43353856D01*
X13046614Y-43264712D01*
X13000469Y-43184788D01*
X12935212Y-43119531D01*
X12926865Y-43114712D01*
X12855290Y-43073387D01*
X12855289Y-43073386D01*
X12855288Y-43073386D01*
X12766144Y-43049500D01*
X12673856Y-43049500D01*
X12584712Y-43073386D01*
X12584711Y-43073386D01*
X12584709Y-43073387D01*
X12504790Y-43119529D01*
X12439529Y-43184790D01*
X12393387Y-43264709D01*
X12393386Y-43264711D01*
X12393386Y-43264712D01*
X12369500Y-43353856D01*
X300500Y-43353856D01*
X300500Y-40633856D01*
X13889500Y-40633856D01*
X13889500Y-40726144D01*
X13908729Y-40797907D01*
X13913387Y-40815290D01*
X13913472Y-40815438D01*
X13959531Y-40895212D01*
X14024788Y-40960469D01*
X14104712Y-41006614D01*
X14193856Y-41030500D01*
X14193858Y-41030500D01*
X14290500Y-41030500D01*
X14348691Y-41049407D01*
X14384655Y-41098907D01*
X14389500Y-41129500D01*
X14389500Y-41133856D01*
X14389500Y-41226144D01*
X14413386Y-41315288D01*
X14459531Y-41395212D01*
X14524788Y-41460469D01*
X14604712Y-41506614D01*
X14693856Y-41530500D01*
X14693858Y-41530500D01*
X14786142Y-41530500D01*
X14786144Y-41530500D01*
X14875288Y-41506614D01*
X14955212Y-41460469D01*
X15020469Y-41395212D01*
X15066614Y-41315288D01*
X15090500Y-41226144D01*
X15090500Y-41133856D01*
X15066614Y-41044712D01*
X15020469Y-40964788D01*
X14955212Y-40899531D01*
X14947731Y-40895212D01*
X14875290Y-40853387D01*
X14875289Y-40853386D01*
X14875288Y-40853386D01*
X14786144Y-40829500D01*
X14693856Y-40829500D01*
X14689500Y-40829500D01*
X14674588Y-40824655D01*
X14658907Y-40824655D01*
X14646221Y-40815438D01*
X14631309Y-40810593D01*
X14622092Y-40797907D01*
X14609407Y-40788691D01*
X14604561Y-40773778D01*
X14595345Y-40761093D01*
X14590500Y-40730500D01*
X14590500Y-40633857D01*
X14590500Y-40633856D01*
X17389500Y-40633856D01*
X17389500Y-40726144D01*
X17408729Y-40797907D01*
X17413387Y-40815290D01*
X17413472Y-40815438D01*
X17459531Y-40895212D01*
X17524788Y-40960469D01*
X17604712Y-41006614D01*
X17693856Y-41030500D01*
X17693858Y-41030500D01*
X17790500Y-41030500D01*
X17848691Y-41049407D01*
X17884655Y-41098907D01*
X17889500Y-41129500D01*
X17889500Y-41133856D01*
X17889500Y-41226144D01*
X17913386Y-41315288D01*
X17959531Y-41395212D01*
X18024788Y-41460469D01*
X18104712Y-41506614D01*
X18193856Y-41530500D01*
X18193858Y-41530500D01*
X18286142Y-41530500D01*
X18286144Y-41530500D01*
X18375288Y-41506614D01*
X18455212Y-41460469D01*
X18520469Y-41395212D01*
X18566614Y-41315288D01*
X18590500Y-41226144D01*
X18590500Y-41133856D01*
X18566614Y-41044712D01*
X18520469Y-40964788D01*
X18455212Y-40899531D01*
X18447731Y-40895212D01*
X18375290Y-40853387D01*
X18375289Y-40853386D01*
X18375288Y-40853386D01*
X18286144Y-40829500D01*
X18193856Y-40829500D01*
X18189500Y-40829500D01*
X18174588Y-40824655D01*
X18158907Y-40824655D01*
X18146221Y-40815438D01*
X18131309Y-40810593D01*
X18122092Y-40797907D01*
X18109407Y-40788691D01*
X18104561Y-40773778D01*
X18095345Y-40761093D01*
X18090500Y-40730500D01*
X18090500Y-40633857D01*
X18090500Y-40633856D01*
X31889500Y-40633856D01*
X31889500Y-40726144D01*
X31908729Y-40797907D01*
X31913387Y-40815290D01*
X31913472Y-40815438D01*
X31959531Y-40895212D01*
X32024788Y-40960469D01*
X32104712Y-41006614D01*
X32193856Y-41030500D01*
X32193858Y-41030500D01*
X32286142Y-41030500D01*
X32286144Y-41030500D01*
X32375288Y-41006614D01*
X32455212Y-40960469D01*
X32520469Y-40895212D01*
X32566614Y-40815288D01*
X32590500Y-40726144D01*
X32590500Y-40633856D01*
X32566614Y-40544712D01*
X32520469Y-40464788D01*
X32455212Y-40399531D01*
X32375288Y-40353386D01*
X32286144Y-40329500D01*
X32193856Y-40329500D01*
X32104712Y-40353386D01*
X32104711Y-40353386D01*
X32104709Y-40353387D01*
X32024790Y-40399529D01*
X31959529Y-40464790D01*
X31913387Y-40544709D01*
X31913386Y-40544711D01*
X31913386Y-40544712D01*
X31889500Y-40633856D01*
X18090500Y-40633856D01*
X18066614Y-40544712D01*
X18020469Y-40464788D01*
X17955212Y-40399531D01*
X17875288Y-40353386D01*
X17786144Y-40329500D01*
X17693856Y-40329500D01*
X17604712Y-40353386D01*
X17604711Y-40353386D01*
X17604709Y-40353387D01*
X17524790Y-40399529D01*
X17459529Y-40464790D01*
X17413387Y-40544709D01*
X17413386Y-40544711D01*
X17413386Y-40544712D01*
X17389500Y-40633856D01*
X14590500Y-40633856D01*
X14566614Y-40544712D01*
X14520469Y-40464788D01*
X14455212Y-40399531D01*
X14375288Y-40353386D01*
X14286144Y-40329500D01*
X14193856Y-40329500D01*
X14104712Y-40353386D01*
X14104711Y-40353386D01*
X14104709Y-40353387D01*
X14024790Y-40399529D01*
X13959529Y-40464790D01*
X13913387Y-40544709D01*
X13913386Y-40544711D01*
X13913386Y-40544712D01*
X13889500Y-40633856D01*
X300500Y-40633856D01*
X300500Y-37426081D01*
X12489500Y-37426081D01*
X12489500Y-37573918D01*
X12518342Y-37718914D01*
X12574915Y-37855493D01*
X12574916Y-37855495D01*
X12657049Y-37978416D01*
X12761584Y-38082951D01*
X12884505Y-38165084D01*
X13021087Y-38221658D01*
X13166082Y-38250500D01*
X13166083Y-38250500D01*
X13313917Y-38250500D01*
X13313918Y-38250500D01*
X13458913Y-38221658D01*
X13595495Y-38165084D01*
X13718416Y-38082951D01*
X13822951Y-37978416D01*
X13905084Y-37855495D01*
X13961658Y-37718913D01*
X13990500Y-37573918D01*
X13990500Y-37426082D01*
X13990499Y-37426080D01*
X13990499Y-37426074D01*
X13988479Y-37415919D01*
X13988477Y-37415910D01*
X13985602Y-37401456D01*
X32239500Y-37401456D01*
X32239500Y-37598543D01*
X32277949Y-37791834D01*
X32277949Y-37791836D01*
X32353367Y-37973913D01*
X32356376Y-37978416D01*
X32462861Y-38137782D01*
X32602218Y-38277139D01*
X32766086Y-38386632D01*
X32948165Y-38462051D01*
X33141459Y-38500500D01*
X33141460Y-38500500D01*
X33338540Y-38500500D01*
X33338541Y-38500500D01*
X33531835Y-38462051D01*
X33713914Y-38386632D01*
X33877782Y-38277139D01*
X34017139Y-38137782D01*
X34126632Y-37973914D01*
X34202051Y-37791835D01*
X34240500Y-37598541D01*
X34240500Y-37401459D01*
X34202051Y-37208165D01*
X34126632Y-37026086D01*
X34017139Y-36862218D01*
X33877782Y-36722861D01*
X33713914Y-36613368D01*
X33713915Y-36613368D01*
X33713913Y-36613367D01*
X33531835Y-36537949D01*
X33338543Y-36499500D01*
X33338541Y-36499500D01*
X33141459Y-36499500D01*
X33141456Y-36499500D01*
X32948165Y-36537949D01*
X32948163Y-36537949D01*
X32766086Y-36613367D01*
X32602218Y-36722861D01*
X32602214Y-36722864D01*
X32462864Y-36862214D01*
X32462861Y-36862218D01*
X32353367Y-37026086D01*
X32277949Y-37208163D01*
X32277949Y-37208165D01*
X32239500Y-37401456D01*
X13985602Y-37401456D01*
X13978003Y-37363260D01*
X13961658Y-37281087D01*
X13905084Y-37144505D01*
X13822951Y-37021584D01*
X13718416Y-36917049D01*
X13595495Y-36834916D01*
X13595493Y-36834915D01*
X13458914Y-36778342D01*
X13313918Y-36749500D01*
X13166082Y-36749500D01*
X13166081Y-36749500D01*
X13021085Y-36778342D01*
X12884506Y-36834915D01*
X12761585Y-36917048D01*
X12657048Y-37021585D01*
X12574915Y-37144506D01*
X12518342Y-37281085D01*
X12489500Y-37426081D01*
X300500Y-37426081D01*
X300500Y-29573856D01*
X28519500Y-29573856D01*
X28519500Y-29666144D01*
X28543386Y-29755288D01*
X28543387Y-29755290D01*
X28582195Y-29822507D01*
X28589531Y-29835212D01*
X28654788Y-29900469D01*
X28734712Y-29946614D01*
X28823856Y-29970500D01*
X28823858Y-29970500D01*
X28916142Y-29970500D01*
X28916144Y-29970500D01*
X29005288Y-29946614D01*
X29085212Y-29900469D01*
X29150469Y-29835212D01*
X29196614Y-29755288D01*
X29220500Y-29666144D01*
X29220500Y-29573856D01*
X29196614Y-29484712D01*
X29196612Y-29484709D01*
X29196612Y-29484707D01*
X29170561Y-29439586D01*
X29170560Y-29439585D01*
X29150470Y-29404790D01*
X29150469Y-29404788D01*
X29142254Y-29396573D01*
X31409300Y-29396573D01*
X31409300Y-29502027D01*
X31428547Y-29573857D01*
X31436594Y-29603889D01*
X31436594Y-29603890D01*
X31472537Y-29666144D01*
X31489320Y-29695213D01*
X31563887Y-29769780D01*
X31655213Y-29822507D01*
X31757073Y-29849800D01*
X31757075Y-29849800D01*
X31862525Y-29849800D01*
X31862527Y-29849800D01*
X31964387Y-29822507D01*
X32055713Y-29769780D01*
X32130280Y-29695213D01*
X32183007Y-29603887D01*
X32210300Y-29502027D01*
X32210300Y-29396573D01*
X32183007Y-29294713D01*
X32182241Y-29293387D01*
X32130281Y-29203389D01*
X32130280Y-29203387D01*
X32055713Y-29128820D01*
X31964387Y-29076093D01*
X31862527Y-29048800D01*
X31757073Y-29048800D01*
X31655213Y-29076093D01*
X31655212Y-29076093D01*
X31655210Y-29076094D01*
X31655209Y-29076094D01*
X31563889Y-29128818D01*
X31489318Y-29203389D01*
X31436594Y-29294709D01*
X31436594Y-29294710D01*
X31436593Y-29294712D01*
X31436593Y-29294713D01*
X31409300Y-29396573D01*
X29142254Y-29396573D01*
X29085212Y-29339531D01*
X29007586Y-29294713D01*
X29005290Y-29293387D01*
X29005289Y-29293386D01*
X29005288Y-29293386D01*
X28916144Y-29269500D01*
X28823856Y-29269500D01*
X28734712Y-29293386D01*
X28734711Y-29293386D01*
X28734709Y-29293387D01*
X28654790Y-29339529D01*
X28589529Y-29404790D01*
X28543387Y-29484709D01*
X28543386Y-29484711D01*
X28543386Y-29484712D01*
X28519500Y-29573856D01*
X300500Y-29573856D01*
X300500Y-28927156D01*
X33169000Y-28927156D01*
X33169000Y-29019444D01*
X33192886Y-29108588D01*
X33239031Y-29188512D01*
X33304288Y-29253769D01*
X33384212Y-29299914D01*
X33473356Y-29323800D01*
X33473358Y-29323800D01*
X33565642Y-29323800D01*
X33565644Y-29323800D01*
X33654788Y-29299914D01*
X33734712Y-29253769D01*
X33799969Y-29188512D01*
X33846114Y-29108588D01*
X33870000Y-29019444D01*
X33870000Y-28927156D01*
X33846114Y-28838012D01*
X33799969Y-28758088D01*
X33734712Y-28692831D01*
X33654788Y-28646686D01*
X33565644Y-28622800D01*
X33473356Y-28622800D01*
X33384212Y-28646686D01*
X33384211Y-28646686D01*
X33384209Y-28646687D01*
X33304290Y-28692829D01*
X33239029Y-28758090D01*
X33192887Y-28838009D01*
X33192886Y-28838011D01*
X33192886Y-28838012D01*
X33169000Y-28927156D01*
X300500Y-28927156D01*
X300500Y-27994056D01*
X8700500Y-27994056D01*
X8700500Y-28086344D01*
X8724386Y-28175488D01*
X8724387Y-28175490D01*
X8753381Y-28225709D01*
X8770531Y-28255412D01*
X8835788Y-28320669D01*
X8915712Y-28366814D01*
X9004856Y-28390700D01*
X9004858Y-28390700D01*
X9097142Y-28390700D01*
X9097144Y-28390700D01*
X9186288Y-28366814D01*
X9266212Y-28320669D01*
X9331469Y-28255412D01*
X9377614Y-28175488D01*
X9401500Y-28086344D01*
X9401500Y-27994056D01*
X9393542Y-27964356D01*
X17769500Y-27964356D01*
X17769500Y-28056644D01*
X17785273Y-28115509D01*
X17793387Y-28145790D01*
X17828982Y-28207442D01*
X17839531Y-28225712D01*
X17904788Y-28290969D01*
X17984712Y-28337114D01*
X18073856Y-28361000D01*
X18073858Y-28361000D01*
X18166142Y-28361000D01*
X18166144Y-28361000D01*
X18255288Y-28337114D01*
X18335212Y-28290969D01*
X18400469Y-28225712D01*
X18446614Y-28145788D01*
X18470500Y-28056644D01*
X18470500Y-27964356D01*
X18446614Y-27875212D01*
X18434457Y-27854156D01*
X28034000Y-27854156D01*
X28034000Y-27946444D01*
X28057886Y-28035588D01*
X28057887Y-28035590D01*
X28087190Y-28086344D01*
X28104031Y-28115512D01*
X28169288Y-28180769D01*
X28249212Y-28226914D01*
X28338356Y-28250800D01*
X28338358Y-28250800D01*
X28430642Y-28250800D01*
X28430644Y-28250800D01*
X28519788Y-28226914D01*
X28553742Y-28207309D01*
X28613590Y-28194587D01*
X28669486Y-28219472D01*
X28698870Y-28267421D01*
X28706685Y-28296587D01*
X28752829Y-28376509D01*
X28752831Y-28376512D01*
X28818088Y-28441769D01*
X28898012Y-28487914D01*
X28987156Y-28511800D01*
X28987158Y-28511800D01*
X29079442Y-28511800D01*
X29079444Y-28511800D01*
X29168588Y-28487914D01*
X29248512Y-28441769D01*
X29313769Y-28376512D01*
X29359914Y-28296588D01*
X29383800Y-28207444D01*
X29383800Y-28115156D01*
X29359914Y-28026012D01*
X29313769Y-27946088D01*
X29248512Y-27880831D01*
X29224577Y-27867012D01*
X29168590Y-27834687D01*
X29168589Y-27834686D01*
X29168588Y-27834686D01*
X29079444Y-27810800D01*
X28987156Y-27810800D01*
X28942584Y-27822743D01*
X28898010Y-27834686D01*
X28864055Y-27854291D01*
X28804206Y-27867012D01*
X28748311Y-27842125D01*
X28718928Y-27794176D01*
X28711113Y-27765010D01*
X28664970Y-27685090D01*
X28664969Y-27685088D01*
X28599712Y-27619831D01*
X28519788Y-27573686D01*
X28430644Y-27549800D01*
X28338356Y-27549800D01*
X28249212Y-27573686D01*
X28249211Y-27573686D01*
X28249209Y-27573687D01*
X28169290Y-27619829D01*
X28104029Y-27685090D01*
X28057887Y-27765009D01*
X28057887Y-27765010D01*
X28057886Y-27765012D01*
X28034000Y-27854156D01*
X18434457Y-27854156D01*
X18400469Y-27795288D01*
X18335212Y-27730031D01*
X18257373Y-27685090D01*
X18255290Y-27683887D01*
X18255289Y-27683886D01*
X18255288Y-27683886D01*
X18166144Y-27660000D01*
X18073856Y-27660000D01*
X17984712Y-27683886D01*
X17984711Y-27683886D01*
X17984709Y-27683887D01*
X17904790Y-27730029D01*
X17839529Y-27795290D01*
X17793387Y-27875209D01*
X17793386Y-27875211D01*
X17793386Y-27875212D01*
X17769500Y-27964356D01*
X9393542Y-27964356D01*
X9377614Y-27904912D01*
X9331469Y-27824988D01*
X9266212Y-27759731D01*
X9186288Y-27713586D01*
X9097144Y-27689700D01*
X9004856Y-27689700D01*
X8915712Y-27713586D01*
X8915711Y-27713586D01*
X8915709Y-27713587D01*
X8835790Y-27759729D01*
X8770529Y-27824990D01*
X8724387Y-27904909D01*
X8724386Y-27904911D01*
X8724386Y-27904912D01*
X8700500Y-27994056D01*
X300500Y-27994056D01*
X300500Y-25003856D01*
X7214500Y-25003856D01*
X7214500Y-25096144D01*
X7232872Y-25164709D01*
X7238387Y-25185290D01*
X7276036Y-25250499D01*
X7288758Y-25310348D01*
X7276036Y-25349501D01*
X7238387Y-25414709D01*
X7238386Y-25414711D01*
X7238386Y-25414712D01*
X7214500Y-25503856D01*
X7214500Y-25596144D01*
X7238386Y-25685288D01*
X7238387Y-25685290D01*
X7276036Y-25750499D01*
X7288758Y-25810348D01*
X7276036Y-25849501D01*
X7238387Y-25914709D01*
X7238386Y-25914711D01*
X7238386Y-25914712D01*
X7214500Y-26003856D01*
X7214500Y-26096144D01*
X7227621Y-26145112D01*
X7238387Y-26185290D01*
X7276036Y-26250499D01*
X7288758Y-26310348D01*
X7276036Y-26349501D01*
X7238387Y-26414709D01*
X7238386Y-26414711D01*
X7238386Y-26414712D01*
X7214500Y-26503856D01*
X7214500Y-26596144D01*
X7237095Y-26680469D01*
X7238387Y-26685290D01*
X7276036Y-26750499D01*
X7288758Y-26810348D01*
X7276036Y-26849501D01*
X7238387Y-26914709D01*
X7238386Y-26914711D01*
X7238386Y-26914712D01*
X7214500Y-27003856D01*
X7214500Y-27096144D01*
X7238386Y-27185288D01*
X7284531Y-27265212D01*
X7349788Y-27330469D01*
X7429712Y-27376614D01*
X7518856Y-27400500D01*
X7518858Y-27400500D01*
X7611142Y-27400500D01*
X7611144Y-27400500D01*
X7700288Y-27376614D01*
X7780212Y-27330469D01*
X7845469Y-27265212D01*
X7891614Y-27185288D01*
X7915500Y-27096144D01*
X7915500Y-27003856D01*
X7902103Y-26953856D01*
X18599500Y-26953856D01*
X18599500Y-27046144D01*
X18623386Y-27135288D01*
X18669531Y-27215212D01*
X18734788Y-27280469D01*
X18814712Y-27326614D01*
X18903856Y-27350500D01*
X18903858Y-27350500D01*
X18996142Y-27350500D01*
X18996144Y-27350500D01*
X19085288Y-27326614D01*
X19165212Y-27280469D01*
X19230469Y-27215212D01*
X19276614Y-27135288D01*
X19300500Y-27046144D01*
X19300500Y-26953856D01*
X19276614Y-26864712D01*
X19230469Y-26784788D01*
X19165212Y-26719531D01*
X19105902Y-26685288D01*
X19085290Y-26673387D01*
X19085289Y-26673386D01*
X19085288Y-26673386D01*
X18996144Y-26649500D01*
X18903856Y-26649500D01*
X18814712Y-26673386D01*
X18814711Y-26673386D01*
X18814709Y-26673387D01*
X18734790Y-26719529D01*
X18669529Y-26784790D01*
X18623387Y-26864709D01*
X18623386Y-26864711D01*
X18623386Y-26864712D01*
X18599500Y-26953856D01*
X7902103Y-26953856D01*
X7891614Y-26914712D01*
X7851020Y-26844403D01*
X7848704Y-26838998D01*
X7846439Y-26814108D01*
X7841241Y-26789653D01*
X7843563Y-26782503D01*
X7843160Y-26778064D01*
X7847218Y-26771256D01*
X7853961Y-26750503D01*
X7891614Y-26685288D01*
X7915500Y-26596144D01*
X7915500Y-26503856D01*
X7891614Y-26414712D01*
X7853962Y-26349498D01*
X7841241Y-26289653D01*
X7853961Y-26250503D01*
X7891614Y-26185288D01*
X7915500Y-26096144D01*
X7915500Y-26003856D01*
X7902103Y-25953856D01*
X20549500Y-25953856D01*
X20549500Y-26046144D01*
X20569164Y-26119531D01*
X20573387Y-26135290D01*
X20610459Y-26199500D01*
X20619531Y-26215212D01*
X20684788Y-26280469D01*
X20700695Y-26289653D01*
X20764590Y-26326544D01*
X20764712Y-26326614D01*
X20826123Y-26343069D01*
X20877437Y-26376392D01*
X20898204Y-26422730D01*
X20899500Y-26430661D01*
X20899500Y-26446144D01*
X20905984Y-26470344D01*
X20906782Y-26475225D01*
X20902858Y-26500811D01*
X20901503Y-26526668D01*
X20898282Y-26530644D01*
X20897507Y-26535703D01*
X20879289Y-26554099D01*
X20862998Y-26574218D01*
X20858579Y-26576926D01*
X20784790Y-26619529D01*
X20719529Y-26684790D01*
X20673387Y-26764709D01*
X20673386Y-26764711D01*
X20673386Y-26764712D01*
X20649500Y-26853856D01*
X20649500Y-26946144D01*
X20668006Y-27015209D01*
X20673387Y-27035290D01*
X20708520Y-27096142D01*
X20719531Y-27115212D01*
X20784788Y-27180469D01*
X20864712Y-27226614D01*
X20953856Y-27250500D01*
X20953858Y-27250500D01*
X21046142Y-27250500D01*
X21046144Y-27250500D01*
X21135288Y-27226614D01*
X21215212Y-27180469D01*
X21280469Y-27115212D01*
X21326614Y-27035288D01*
X21350500Y-26946144D01*
X21350500Y-26853856D01*
X21345295Y-26834431D01*
X21348495Y-26773333D01*
X21386999Y-26725782D01*
X21391421Y-26723073D01*
X21465207Y-26680472D01*
X21465207Y-26680471D01*
X21465212Y-26680469D01*
X21530469Y-26615212D01*
X21576614Y-26535288D01*
X21585036Y-26503856D01*
X21849500Y-26503856D01*
X21849500Y-26596144D01*
X21872095Y-26680469D01*
X21873387Y-26685290D01*
X21919240Y-26764709D01*
X21919531Y-26765212D01*
X21984788Y-26830469D01*
X22064712Y-26876614D01*
X22153856Y-26900500D01*
X22153858Y-26900500D01*
X22246142Y-26900500D01*
X22246144Y-26900500D01*
X22335288Y-26876614D01*
X22374705Y-26853856D01*
X23049500Y-26853856D01*
X23049500Y-26946144D01*
X23068006Y-27015209D01*
X23073387Y-27035290D01*
X23108520Y-27096142D01*
X23119531Y-27115212D01*
X23184788Y-27180469D01*
X23264712Y-27226614D01*
X23353856Y-27250500D01*
X23353858Y-27250500D01*
X23446142Y-27250500D01*
X23446144Y-27250500D01*
X23535288Y-27226614D01*
X23615212Y-27180469D01*
X23680469Y-27115212D01*
X23726614Y-27035288D01*
X23743069Y-26973876D01*
X23776392Y-26922563D01*
X23833513Y-26900636D01*
X23838695Y-26900500D01*
X23846142Y-26900500D01*
X23846144Y-26900500D01*
X23935288Y-26876614D01*
X24015212Y-26830469D01*
X24080469Y-26765212D01*
X24126614Y-26685288D01*
X24150500Y-26596144D01*
X24150500Y-26503856D01*
X24649500Y-26503856D01*
X24649500Y-26596144D01*
X24672095Y-26680469D01*
X24673387Y-26685290D01*
X24719240Y-26764709D01*
X24719531Y-26765212D01*
X24784788Y-26830469D01*
X24864712Y-26876614D01*
X24953856Y-26900500D01*
X24953858Y-26900500D01*
X25046142Y-26900500D01*
X25046144Y-26900500D01*
X25135288Y-26876614D01*
X25215212Y-26830469D01*
X25280469Y-26765212D01*
X25326614Y-26685288D01*
X25350500Y-26596144D01*
X25350500Y-26503856D01*
X25849500Y-26503856D01*
X25849500Y-26596144D01*
X25872095Y-26680469D01*
X25873387Y-26685290D01*
X25919240Y-26764709D01*
X25919531Y-26765212D01*
X25984788Y-26830469D01*
X26064712Y-26876614D01*
X26153856Y-26900500D01*
X26153858Y-26900500D01*
X26246142Y-26900500D01*
X26246144Y-26900500D01*
X26335288Y-26876614D01*
X26415212Y-26830469D01*
X26480469Y-26765212D01*
X26487026Y-26753856D01*
X28459500Y-26753856D01*
X28459500Y-26846144D01*
X28483386Y-26935288D01*
X28529531Y-27015212D01*
X28594788Y-27080469D01*
X28674712Y-27126614D01*
X28763856Y-27150500D01*
X28763858Y-27150500D01*
X28856142Y-27150500D01*
X28856144Y-27150500D01*
X28945288Y-27126614D01*
X29025212Y-27080469D01*
X29090469Y-27015212D01*
X29136614Y-26935288D01*
X29160500Y-26846144D01*
X29160500Y-26753856D01*
X29136614Y-26664712D01*
X29090469Y-26584788D01*
X29025212Y-26519531D01*
X28998064Y-26503857D01*
X28945290Y-26473387D01*
X28945289Y-26473386D01*
X28945288Y-26473386D01*
X28856144Y-26449500D01*
X28763856Y-26449500D01*
X28674712Y-26473386D01*
X28674711Y-26473386D01*
X28674709Y-26473387D01*
X28594790Y-26519529D01*
X28529529Y-26584790D01*
X28483387Y-26664709D01*
X28483386Y-26664711D01*
X28483386Y-26664712D01*
X28459500Y-26753856D01*
X26487026Y-26753856D01*
X26526614Y-26685288D01*
X26550500Y-26596144D01*
X26550500Y-26503856D01*
X26526614Y-26414712D01*
X26480469Y-26334788D01*
X26415212Y-26269531D01*
X26407731Y-26265212D01*
X26354115Y-26234256D01*
X29396800Y-26234256D01*
X29396800Y-26326544D01*
X29420686Y-26415688D01*
X29420687Y-26415690D01*
X29453998Y-26473386D01*
X29466831Y-26495612D01*
X29532088Y-26560869D01*
X29612012Y-26607014D01*
X29701156Y-26630900D01*
X29701158Y-26630900D01*
X29793442Y-26630900D01*
X29793444Y-26630900D01*
X29882588Y-26607014D01*
X29962512Y-26560869D01*
X30027769Y-26495612D01*
X30052250Y-26453209D01*
X30097718Y-26412269D01*
X30158568Y-26405873D01*
X30163583Y-26407076D01*
X30223756Y-26423200D01*
X30223758Y-26423200D01*
X30316042Y-26423200D01*
X30316044Y-26423200D01*
X30405188Y-26399314D01*
X30485112Y-26353169D01*
X30550369Y-26287912D01*
X30596514Y-26207988D01*
X30620400Y-26118844D01*
X30620400Y-26026556D01*
X30596514Y-25937412D01*
X30550369Y-25857488D01*
X30485112Y-25792231D01*
X30460574Y-25778064D01*
X30405190Y-25746087D01*
X30405189Y-25746086D01*
X30405188Y-25746086D01*
X30316044Y-25722200D01*
X30223756Y-25722200D01*
X30134612Y-25746086D01*
X30134611Y-25746086D01*
X30134609Y-25746087D01*
X30054690Y-25792229D01*
X29989429Y-25857490D01*
X29964949Y-25899890D01*
X29919478Y-25940831D01*
X29858628Y-25947225D01*
X29853591Y-25946016D01*
X29821468Y-25937409D01*
X29793444Y-25929900D01*
X29701156Y-25929900D01*
X29612012Y-25953786D01*
X29612011Y-25953786D01*
X29612009Y-25953787D01*
X29532090Y-25999929D01*
X29466829Y-26065190D01*
X29420687Y-26145109D01*
X29420686Y-26145111D01*
X29420686Y-26145112D01*
X29396800Y-26234256D01*
X26354115Y-26234256D01*
X26335290Y-26223387D01*
X26335289Y-26223386D01*
X26335288Y-26223386D01*
X26246144Y-26199500D01*
X26153856Y-26199500D01*
X26064712Y-26223386D01*
X26064711Y-26223386D01*
X26064709Y-26223387D01*
X25984790Y-26269529D01*
X25919529Y-26334790D01*
X25873387Y-26414709D01*
X25873386Y-26414711D01*
X25873386Y-26414712D01*
X25849500Y-26503856D01*
X25350500Y-26503856D01*
X25326614Y-26414712D01*
X25280469Y-26334788D01*
X25215212Y-26269531D01*
X25207731Y-26265212D01*
X25135290Y-26223387D01*
X25135289Y-26223386D01*
X25135288Y-26223386D01*
X25046144Y-26199500D01*
X24953856Y-26199500D01*
X24864712Y-26223386D01*
X24864711Y-26223386D01*
X24864709Y-26223387D01*
X24784790Y-26269529D01*
X24719529Y-26334790D01*
X24673387Y-26414709D01*
X24673386Y-26414711D01*
X24673386Y-26414712D01*
X24649500Y-26503856D01*
X24150500Y-26503856D01*
X24126614Y-26414712D01*
X24080469Y-26334788D01*
X24015212Y-26269531D01*
X24007731Y-26265212D01*
X23935290Y-26223387D01*
X23935289Y-26223386D01*
X23935288Y-26223386D01*
X23846144Y-26199500D01*
X23753856Y-26199500D01*
X23664712Y-26223386D01*
X23664711Y-26223386D01*
X23664709Y-26223387D01*
X23584790Y-26269529D01*
X23519529Y-26334790D01*
X23473386Y-26414710D01*
X23466346Y-26440985D01*
X23456930Y-26476123D01*
X23423608Y-26527437D01*
X23366487Y-26549364D01*
X23361305Y-26549500D01*
X23353856Y-26549500D01*
X23264712Y-26573386D01*
X23264711Y-26573386D01*
X23264709Y-26573387D01*
X23184790Y-26619529D01*
X23119529Y-26684790D01*
X23073387Y-26764709D01*
X23073386Y-26764711D01*
X23073386Y-26764712D01*
X23049500Y-26853856D01*
X22374705Y-26853856D01*
X22415212Y-26830469D01*
X22480469Y-26765212D01*
X22526614Y-26685288D01*
X22550500Y-26596144D01*
X22550500Y-26503856D01*
X22526614Y-26414712D01*
X22480469Y-26334788D01*
X22415212Y-26269531D01*
X22407731Y-26265212D01*
X22335290Y-26223387D01*
X22335289Y-26223386D01*
X22335288Y-26223386D01*
X22246144Y-26199500D01*
X22153856Y-26199500D01*
X22064712Y-26223386D01*
X22064711Y-26223386D01*
X22064709Y-26223387D01*
X21984790Y-26269529D01*
X21919529Y-26334790D01*
X21873387Y-26414709D01*
X21873386Y-26414711D01*
X21873386Y-26414712D01*
X21849500Y-26503856D01*
X21585036Y-26503856D01*
X21600500Y-26446144D01*
X21600500Y-26353856D01*
X21576614Y-26264712D01*
X21530469Y-26184788D01*
X21465212Y-26119531D01*
X21465209Y-26119529D01*
X21385287Y-26073385D01*
X21323876Y-26056930D01*
X21272562Y-26023606D01*
X21250636Y-25966485D01*
X21250500Y-25961304D01*
X21250500Y-25953857D01*
X21250500Y-25953856D01*
X21226614Y-25864712D01*
X21180469Y-25784788D01*
X21115212Y-25719531D01*
X21055902Y-25685288D01*
X21035290Y-25673387D01*
X21035289Y-25673386D01*
X21035288Y-25673386D01*
X20946144Y-25649500D01*
X20853856Y-25649500D01*
X20764712Y-25673386D01*
X20764711Y-25673386D01*
X20764709Y-25673387D01*
X20684790Y-25719529D01*
X20619529Y-25784790D01*
X20573387Y-25864709D01*
X20573386Y-25864711D01*
X20573386Y-25864712D01*
X20549500Y-25953856D01*
X7902103Y-25953856D01*
X7891614Y-25914712D01*
X7851020Y-25844403D01*
X7848704Y-25838998D01*
X7846439Y-25814108D01*
X7841241Y-25789653D01*
X7843563Y-25782503D01*
X7843160Y-25778064D01*
X7847218Y-25771256D01*
X7853961Y-25750503D01*
X7891614Y-25685288D01*
X7915500Y-25596144D01*
X7915500Y-25503856D01*
X7891614Y-25414712D01*
X7853962Y-25349498D01*
X7849659Y-25329254D01*
X7841241Y-25310346D01*
X7843440Y-25299999D01*
X7841241Y-25289653D01*
X7852872Y-25253856D01*
X8999500Y-25253856D01*
X8999500Y-25346144D01*
X9023386Y-25435288D01*
X9069531Y-25515212D01*
X9134788Y-25580469D01*
X9214712Y-25626614D01*
X9303856Y-25650500D01*
X9303858Y-25650500D01*
X9396142Y-25650500D01*
X9396144Y-25650500D01*
X9485288Y-25626614D01*
X9565212Y-25580469D01*
X9630469Y-25515212D01*
X9676614Y-25435288D01*
X9700500Y-25346144D01*
X9700500Y-25253856D01*
X9676614Y-25164712D01*
X9670346Y-25153856D01*
X28459500Y-25153856D01*
X28459500Y-25246144D01*
X28483252Y-25334788D01*
X28483387Y-25335290D01*
X28529241Y-25414711D01*
X28529531Y-25415212D01*
X28594788Y-25480469D01*
X28674712Y-25526614D01*
X28763856Y-25550500D01*
X28763858Y-25550500D01*
X28856142Y-25550500D01*
X28856144Y-25550500D01*
X28945288Y-25526614D01*
X29025212Y-25480469D01*
X29090469Y-25415212D01*
X29136614Y-25335288D01*
X29160500Y-25246144D01*
X29160500Y-25153856D01*
X29136614Y-25064712D01*
X29090469Y-24984788D01*
X29025212Y-24919531D01*
X29016865Y-24914712D01*
X28945290Y-24873387D01*
X28945289Y-24873386D01*
X28945288Y-24873386D01*
X28856144Y-24849500D01*
X28763856Y-24849500D01*
X28674712Y-24873386D01*
X28674711Y-24873386D01*
X28674709Y-24873387D01*
X28594790Y-24919529D01*
X28529529Y-24984790D01*
X28483387Y-25064709D01*
X28483386Y-25064711D01*
X28483386Y-25064712D01*
X28459500Y-25153856D01*
X9670346Y-25153856D01*
X9630469Y-25084788D01*
X9565212Y-25019531D01*
X9557731Y-25015212D01*
X9485290Y-24973387D01*
X9485289Y-24973386D01*
X9485288Y-24973386D01*
X9396144Y-24949500D01*
X9303856Y-24949500D01*
X9214712Y-24973386D01*
X9214711Y-24973386D01*
X9214709Y-24973387D01*
X9134790Y-25019529D01*
X9069529Y-25084790D01*
X9023387Y-25164709D01*
X9023386Y-25164711D01*
X9023386Y-25164712D01*
X8999500Y-25253856D01*
X7852872Y-25253856D01*
X7853961Y-25250503D01*
X7891614Y-25185288D01*
X7915500Y-25096144D01*
X7915500Y-25003856D01*
X7891614Y-24914712D01*
X7845469Y-24834788D01*
X7780212Y-24769531D01*
X7775549Y-24766839D01*
X7753062Y-24753856D01*
X15649500Y-24753856D01*
X15649500Y-24846144D01*
X15669164Y-24919531D01*
X15673387Y-24935290D01*
X15701966Y-24984790D01*
X15719531Y-25015212D01*
X15784788Y-25080469D01*
X15864712Y-25126614D01*
X15953856Y-25150500D01*
X15953858Y-25150500D01*
X16046142Y-25150500D01*
X16046144Y-25150500D01*
X16135288Y-25126614D01*
X16215212Y-25080469D01*
X16280469Y-25015212D01*
X16326614Y-24935288D01*
X16350500Y-24846144D01*
X16350500Y-24825030D01*
X16369407Y-24766839D01*
X16418907Y-24730875D01*
X16475120Y-24729403D01*
X16553856Y-24750500D01*
X16553858Y-24750500D01*
X16646142Y-24750500D01*
X16646144Y-24750500D01*
X16735288Y-24726614D01*
X16815212Y-24680469D01*
X16880469Y-24615212D01*
X16926614Y-24535288D01*
X16950500Y-24446144D01*
X16950500Y-24353856D01*
X16926614Y-24264712D01*
X16880469Y-24184788D01*
X16815212Y-24119531D01*
X16807731Y-24115212D01*
X16735290Y-24073387D01*
X16735289Y-24073386D01*
X16735288Y-24073386D01*
X16646144Y-24049500D01*
X16553856Y-24049500D01*
X16464712Y-24073386D01*
X16464711Y-24073386D01*
X16464709Y-24073387D01*
X16384790Y-24119529D01*
X16319529Y-24184790D01*
X16273387Y-24264709D01*
X16273386Y-24264711D01*
X16273386Y-24264712D01*
X16250400Y-24350500D01*
X16249500Y-24353857D01*
X16249500Y-24374969D01*
X16230593Y-24433160D01*
X16181093Y-24469124D01*
X16124878Y-24470596D01*
X16068970Y-24455616D01*
X16046144Y-24449500D01*
X15953856Y-24449500D01*
X15864712Y-24473386D01*
X15864711Y-24473386D01*
X15864709Y-24473387D01*
X15784790Y-24519529D01*
X15719529Y-24584790D01*
X15673387Y-24664709D01*
X15673386Y-24664711D01*
X15673386Y-24664712D01*
X15649500Y-24753856D01*
X7753062Y-24753856D01*
X7700290Y-24723387D01*
X7700289Y-24723386D01*
X7700288Y-24723386D01*
X7611144Y-24699500D01*
X7518856Y-24699500D01*
X7429712Y-24723386D01*
X7429711Y-24723386D01*
X7429709Y-24723387D01*
X7349790Y-24769529D01*
X7284529Y-24834790D01*
X7238387Y-24914709D01*
X7238386Y-24914711D01*
X7238386Y-24914712D01*
X7214500Y-25003856D01*
X300500Y-25003856D01*
X300500Y-22503856D01*
X7214500Y-22503856D01*
X7214500Y-22596144D01*
X7238386Y-22685288D01*
X7238387Y-22685290D01*
X7276036Y-22750499D01*
X7288758Y-22810348D01*
X7276036Y-22849501D01*
X7238387Y-22914709D01*
X7238386Y-22914711D01*
X7238386Y-22914712D01*
X7214500Y-23003856D01*
X7214500Y-23096144D01*
X7238386Y-23185288D01*
X7238387Y-23185290D01*
X7276036Y-23250499D01*
X7288758Y-23310348D01*
X7276036Y-23349501D01*
X7238387Y-23414709D01*
X7238386Y-23414711D01*
X7238386Y-23414712D01*
X7214500Y-23503856D01*
X7214500Y-23596144D01*
X7238252Y-23684788D01*
X7238387Y-23685290D01*
X7284240Y-23764709D01*
X7284531Y-23765212D01*
X7349788Y-23830469D01*
X7429712Y-23876614D01*
X7518856Y-23900500D01*
X7518858Y-23900500D01*
X7611142Y-23900500D01*
X7611144Y-23900500D01*
X7700288Y-23876614D01*
X7780212Y-23830469D01*
X7845469Y-23765212D01*
X7852026Y-23753856D01*
X8999500Y-23753856D01*
X8999500Y-23846144D01*
X9021093Y-23926729D01*
X9023387Y-23935290D01*
X9068098Y-24012731D01*
X9069531Y-24015212D01*
X9134788Y-24080469D01*
X9214712Y-24126614D01*
X9303856Y-24150500D01*
X9303858Y-24150500D01*
X9396141Y-24150500D01*
X9396144Y-24150500D01*
X9479439Y-24128181D01*
X9540537Y-24131383D01*
X9588087Y-24169888D01*
X9603923Y-24228989D01*
X9600686Y-24249429D01*
X9599500Y-24253856D01*
X9599500Y-24346144D01*
X9622816Y-24433160D01*
X9623387Y-24435290D01*
X9642921Y-24469124D01*
X9669531Y-24515212D01*
X9734788Y-24580469D01*
X9814712Y-24626614D01*
X9903856Y-24650500D01*
X9903858Y-24650500D01*
X9996142Y-24650500D01*
X9996144Y-24650500D01*
X10085288Y-24626614D01*
X10165212Y-24580469D01*
X10230469Y-24515212D01*
X10276614Y-24435288D01*
X10300500Y-24346144D01*
X10300500Y-24253856D01*
X10276614Y-24164712D01*
X10230469Y-24084788D01*
X10165212Y-24019531D01*
X10157731Y-24015212D01*
X10085290Y-23973387D01*
X10085289Y-23973386D01*
X10085288Y-23973386D01*
X9996144Y-23949500D01*
X9903856Y-23949500D01*
X9874845Y-23957273D01*
X9820562Y-23971818D01*
X9815213Y-23971537D01*
X9810444Y-23973969D01*
X9785092Y-23969958D01*
X9759461Y-23968615D01*
X9755300Y-23965245D01*
X9750011Y-23964409D01*
X9731857Y-23946262D01*
X9711911Y-23930110D01*
X9710525Y-23924937D01*
X9706738Y-23921152D01*
X9704947Y-23904118D01*
X9696076Y-23871009D01*
X9697156Y-23860721D01*
X9697965Y-23855601D01*
X9698433Y-23853856D01*
X10649500Y-23853856D01*
X10649500Y-23946144D01*
X10669164Y-24019531D01*
X10673387Y-24035290D01*
X10708520Y-24096142D01*
X10719531Y-24115212D01*
X10784788Y-24180469D01*
X10864712Y-24226614D01*
X10953856Y-24250500D01*
X10953858Y-24250500D01*
X11046142Y-24250500D01*
X11046144Y-24250500D01*
X11124878Y-24229403D01*
X11185978Y-24232606D01*
X11233528Y-24271111D01*
X11249500Y-24325030D01*
X11249500Y-24346144D01*
X11272816Y-24433160D01*
X11273387Y-24435290D01*
X11292921Y-24469124D01*
X11319531Y-24515212D01*
X11384788Y-24580469D01*
X11464712Y-24626614D01*
X11553856Y-24650500D01*
X11553858Y-24650500D01*
X11646142Y-24650500D01*
X11646144Y-24650500D01*
X11735288Y-24626614D01*
X11815212Y-24580469D01*
X11880469Y-24515212D01*
X11926614Y-24435288D01*
X11950500Y-24346144D01*
X11950500Y-24253856D01*
X11926614Y-24164712D01*
X11880469Y-24084788D01*
X11815212Y-24019531D01*
X11807731Y-24015212D01*
X11735290Y-23973387D01*
X11735289Y-23973386D01*
X11735288Y-23973386D01*
X11662401Y-23953856D01*
X20899500Y-23953856D01*
X20899500Y-24046144D01*
X20921062Y-24126614D01*
X20923387Y-24135290D01*
X20955590Y-24191067D01*
X20969531Y-24215212D01*
X21034788Y-24280469D01*
X21114712Y-24326614D01*
X21203856Y-24350500D01*
X21203858Y-24350500D01*
X21296142Y-24350500D01*
X21296144Y-24350500D01*
X21385288Y-24326614D01*
X21465212Y-24280469D01*
X21498625Y-24247056D01*
X28199000Y-24247056D01*
X28199000Y-24339344D01*
X28215387Y-24400500D01*
X28222887Y-24428490D01*
X28247197Y-24470596D01*
X28269031Y-24508412D01*
X28334288Y-24573669D01*
X28414212Y-24619814D01*
X28503356Y-24643700D01*
X28503358Y-24643700D01*
X28595642Y-24643700D01*
X28595644Y-24643700D01*
X28684788Y-24619814D01*
X28764712Y-24573669D01*
X28829969Y-24508412D01*
X28876114Y-24428488D01*
X28900000Y-24339344D01*
X28900000Y-24247056D01*
X28894123Y-24225122D01*
X28897326Y-24164020D01*
X28935832Y-24116471D01*
X28989750Y-24100500D01*
X29066142Y-24100500D01*
X29066144Y-24100500D01*
X29155288Y-24076614D01*
X29198554Y-24051633D01*
X29258400Y-24038912D01*
X29314297Y-24063797D01*
X29343680Y-24111746D01*
X29357687Y-24164020D01*
X29363387Y-24185290D01*
X29409240Y-24264709D01*
X29409531Y-24265212D01*
X29474788Y-24330469D01*
X29554712Y-24376614D01*
X29643856Y-24400500D01*
X29643858Y-24400500D01*
X29736142Y-24400500D01*
X29736144Y-24400500D01*
X29825288Y-24376614D01*
X29905212Y-24330469D01*
X29970469Y-24265212D01*
X30016614Y-24185288D01*
X30040500Y-24096144D01*
X30040500Y-24003856D01*
X30016614Y-23914712D01*
X29970469Y-23834788D01*
X29905212Y-23769531D01*
X29897731Y-23765212D01*
X29825290Y-23723387D01*
X29825289Y-23723386D01*
X29825288Y-23723386D01*
X29736144Y-23699500D01*
X29643856Y-23699500D01*
X29599284Y-23711443D01*
X29554710Y-23723386D01*
X29511445Y-23748366D01*
X29451596Y-23761087D01*
X29395701Y-23736200D01*
X29366319Y-23688254D01*
X29346614Y-23614712D01*
X29300469Y-23534788D01*
X29235212Y-23469531D01*
X29155288Y-23423386D01*
X29066144Y-23399500D01*
X28973856Y-23399500D01*
X28884712Y-23423386D01*
X28884711Y-23423386D01*
X28884709Y-23423387D01*
X28804790Y-23469529D01*
X28739529Y-23534790D01*
X28693387Y-23614709D01*
X28693386Y-23614711D01*
X28693386Y-23614712D01*
X28674476Y-23685288D01*
X28669500Y-23703857D01*
X28669500Y-23796143D01*
X28675377Y-23818078D01*
X28672174Y-23879180D01*
X28633668Y-23926729D01*
X28579750Y-23942700D01*
X28503356Y-23942700D01*
X28414212Y-23966586D01*
X28414211Y-23966586D01*
X28414209Y-23966587D01*
X28334290Y-24012729D01*
X28269029Y-24077990D01*
X28222887Y-24157909D01*
X28222886Y-24157911D01*
X28222886Y-24157912D01*
X28199000Y-24247056D01*
X21498625Y-24247056D01*
X21530469Y-24215212D01*
X21530472Y-24215207D01*
X21544410Y-24191067D01*
X21544410Y-24191066D01*
X21556637Y-24169888D01*
X21576614Y-24135288D01*
X21600500Y-24046144D01*
X21600500Y-23953856D01*
X21576614Y-23864712D01*
X21530469Y-23784788D01*
X21465212Y-23719531D01*
X21438064Y-23703857D01*
X21385290Y-23673387D01*
X21385289Y-23673386D01*
X21385288Y-23673386D01*
X21296144Y-23649500D01*
X21203856Y-23649500D01*
X21114712Y-23673386D01*
X21114711Y-23673386D01*
X21114709Y-23673387D01*
X21034790Y-23719529D01*
X20969529Y-23784790D01*
X20923387Y-23864709D01*
X20923386Y-23864711D01*
X20923386Y-23864712D01*
X20899500Y-23953856D01*
X11662401Y-23953856D01*
X11646144Y-23949500D01*
X11553856Y-23949500D01*
X11531029Y-23955616D01*
X11475122Y-23970596D01*
X11414021Y-23967393D01*
X11366471Y-23928887D01*
X11350500Y-23874969D01*
X11350500Y-23853857D01*
X11350500Y-23853856D01*
X11326614Y-23764712D01*
X11280469Y-23684788D01*
X11215212Y-23619531D01*
X11206865Y-23614712D01*
X11135290Y-23573387D01*
X11135289Y-23573386D01*
X11135288Y-23573386D01*
X11046144Y-23549500D01*
X10953856Y-23549500D01*
X10864712Y-23573386D01*
X10864711Y-23573386D01*
X10864709Y-23573387D01*
X10784790Y-23619529D01*
X10719529Y-23684790D01*
X10673387Y-23764709D01*
X10673386Y-23764711D01*
X10673386Y-23764712D01*
X10649500Y-23853856D01*
X9698433Y-23853856D01*
X9700500Y-23846144D01*
X9700500Y-23753856D01*
X9676614Y-23664712D01*
X9630469Y-23584788D01*
X9565212Y-23519531D01*
X9538064Y-23503857D01*
X9485290Y-23473387D01*
X9485289Y-23473386D01*
X9485288Y-23473386D01*
X9396144Y-23449500D01*
X9303856Y-23449500D01*
X9214712Y-23473386D01*
X9214711Y-23473386D01*
X9214709Y-23473387D01*
X9134790Y-23519529D01*
X9069529Y-23584790D01*
X9023387Y-23664709D01*
X9023386Y-23664711D01*
X9023386Y-23664712D01*
X8999500Y-23753856D01*
X7852026Y-23753856D01*
X7891614Y-23685288D01*
X7915500Y-23596144D01*
X7915500Y-23503856D01*
X7891614Y-23414712D01*
X7853962Y-23349498D01*
X7841241Y-23289653D01*
X7853961Y-23250503D01*
X7891614Y-23185288D01*
X7915500Y-23096144D01*
X7915500Y-23003856D01*
X7891614Y-22914712D01*
X7853962Y-22849498D01*
X7841241Y-22789653D01*
X7853961Y-22750503D01*
X7891614Y-22685288D01*
X7915500Y-22596144D01*
X7915500Y-22503856D01*
X7905854Y-22467856D01*
X26901900Y-22467856D01*
X26901900Y-22560144D01*
X26925786Y-22649288D01*
X26971931Y-22729212D01*
X27037188Y-22794469D01*
X27117112Y-22840614D01*
X27206256Y-22864500D01*
X27206258Y-22864500D01*
X27298542Y-22864500D01*
X27298544Y-22864500D01*
X27387688Y-22840614D01*
X27467612Y-22794469D01*
X27532869Y-22729212D01*
X27579014Y-22649288D01*
X27602900Y-22560144D01*
X27602900Y-22467856D01*
X27579014Y-22378712D01*
X27532869Y-22298788D01*
X27467612Y-22233531D01*
X27467609Y-22233529D01*
X27397208Y-22192882D01*
X27356268Y-22147412D01*
X27349873Y-22086562D01*
X27380466Y-22033574D01*
X27403480Y-22019053D01*
X27403368Y-22018859D01*
X27408335Y-22015990D01*
X27408830Y-22015679D01*
X27408979Y-22015616D01*
X27408988Y-22015614D01*
X27488912Y-21969469D01*
X27554169Y-21904212D01*
X27600314Y-21824288D01*
X27624200Y-21735144D01*
X27624200Y-21724856D01*
X28202200Y-21724856D01*
X28202200Y-21817144D01*
X28226086Y-21906288D01*
X28272231Y-21986212D01*
X28337488Y-22051469D01*
X28417412Y-22097614D01*
X28506556Y-22121500D01*
X28506558Y-22121500D01*
X28598842Y-22121500D01*
X28598844Y-22121500D01*
X28687988Y-22097614D01*
X28767912Y-22051469D01*
X28833169Y-21986212D01*
X28861030Y-21937956D01*
X29418300Y-21937956D01*
X29418300Y-22030244D01*
X29442186Y-22119388D01*
X29442187Y-22119390D01*
X29486245Y-22195700D01*
X29488331Y-22199312D01*
X29553588Y-22264569D01*
X29633512Y-22310714D01*
X29722656Y-22334600D01*
X29722658Y-22334600D01*
X29814942Y-22334600D01*
X29814944Y-22334600D01*
X29904088Y-22310714D01*
X29984012Y-22264569D01*
X30049269Y-22199312D01*
X30095414Y-22119388D01*
X30119300Y-22030244D01*
X30119300Y-21937956D01*
X30095414Y-21848812D01*
X30066687Y-21799056D01*
X34052500Y-21799056D01*
X34052500Y-21891344D01*
X34076386Y-21980488D01*
X34076387Y-21980490D01*
X34117367Y-22051469D01*
X34122531Y-22060412D01*
X34187788Y-22125669D01*
X34267712Y-22171814D01*
X34356856Y-22195700D01*
X34356858Y-22195700D01*
X34449142Y-22195700D01*
X34449144Y-22195700D01*
X34538288Y-22171814D01*
X34618212Y-22125669D01*
X34683469Y-22060412D01*
X34729614Y-21980488D01*
X34753500Y-21891344D01*
X34753500Y-21799056D01*
X34729614Y-21709912D01*
X34683469Y-21629988D01*
X34618212Y-21564731D01*
X34612276Y-21561304D01*
X34538290Y-21518587D01*
X34538289Y-21518586D01*
X34538288Y-21518586D01*
X34449144Y-21494700D01*
X34356856Y-21494700D01*
X34267712Y-21518586D01*
X34267711Y-21518586D01*
X34267709Y-21518587D01*
X34187790Y-21564729D01*
X34122529Y-21629990D01*
X34076387Y-21709909D01*
X34076386Y-21709911D01*
X34076386Y-21709912D01*
X34052500Y-21799056D01*
X30066687Y-21799056D01*
X30049269Y-21768888D01*
X29984012Y-21703631D01*
X29931625Y-21673385D01*
X29904090Y-21657487D01*
X29904089Y-21657486D01*
X29904088Y-21657486D01*
X29814944Y-21633600D01*
X29722656Y-21633600D01*
X29633512Y-21657486D01*
X29633511Y-21657486D01*
X29633509Y-21657487D01*
X29553590Y-21703629D01*
X29488329Y-21768890D01*
X29442187Y-21848809D01*
X29442186Y-21848811D01*
X29442186Y-21848812D01*
X29418300Y-21937956D01*
X28861030Y-21937956D01*
X28879314Y-21906288D01*
X28903200Y-21817144D01*
X28903200Y-21724856D01*
X28879314Y-21635712D01*
X28833169Y-21555788D01*
X28767912Y-21490531D01*
X28738916Y-21473790D01*
X28687990Y-21444387D01*
X28687989Y-21444386D01*
X28687988Y-21444386D01*
X28598844Y-21420500D01*
X28506556Y-21420500D01*
X28417412Y-21444386D01*
X28417411Y-21444386D01*
X28417409Y-21444387D01*
X28337490Y-21490529D01*
X28272229Y-21555790D01*
X28226087Y-21635709D01*
X28226086Y-21635711D01*
X28226086Y-21635712D01*
X28202200Y-21724856D01*
X27624200Y-21724856D01*
X27624200Y-21642856D01*
X27600314Y-21553712D01*
X27554169Y-21473788D01*
X27488912Y-21408531D01*
X27447792Y-21384790D01*
X27408990Y-21362387D01*
X27408989Y-21362386D01*
X27408988Y-21362386D01*
X27319844Y-21338500D01*
X27227556Y-21338500D01*
X27138412Y-21362386D01*
X27138411Y-21362386D01*
X27138409Y-21362387D01*
X27058490Y-21408529D01*
X26993229Y-21473790D01*
X26947087Y-21553709D01*
X26947086Y-21553711D01*
X26947086Y-21553712D01*
X26923200Y-21642856D01*
X26923200Y-21735144D01*
X26945172Y-21817144D01*
X26947087Y-21824290D01*
X26985801Y-21891344D01*
X26993231Y-21904212D01*
X27058488Y-21969469D01*
X27058490Y-21969470D01*
X27128891Y-22010117D01*
X27169831Y-22055587D01*
X27176226Y-22116437D01*
X27145633Y-22169425D01*
X27122620Y-22183947D01*
X27122732Y-22184141D01*
X27117813Y-22186980D01*
X27117287Y-22187313D01*
X27117113Y-22187384D01*
X27037190Y-22233529D01*
X26971929Y-22298790D01*
X26925787Y-22378709D01*
X26925786Y-22378711D01*
X26925786Y-22378712D01*
X26901900Y-22467856D01*
X7905854Y-22467856D01*
X7891614Y-22414712D01*
X7845469Y-22334788D01*
X7780212Y-22269531D01*
X7771619Y-22264570D01*
X7700290Y-22223387D01*
X7700289Y-22223386D01*
X7700288Y-22223386D01*
X7611144Y-22199500D01*
X7518856Y-22199500D01*
X7429712Y-22223386D01*
X7429711Y-22223386D01*
X7429709Y-22223387D01*
X7349790Y-22269529D01*
X7284529Y-22334790D01*
X7238387Y-22414709D01*
X7238386Y-22414711D01*
X7238386Y-22414712D01*
X7214500Y-22503856D01*
X300500Y-22503856D01*
X300500Y-21553856D01*
X20549500Y-21553856D01*
X20549500Y-21646144D01*
X20573386Y-21735288D01*
X20573387Y-21735290D01*
X20610203Y-21799057D01*
X20619531Y-21815212D01*
X20684788Y-21880469D01*
X20764712Y-21926614D01*
X20826123Y-21943069D01*
X20877437Y-21976392D01*
X20899364Y-22033513D01*
X20899500Y-22038695D01*
X20899500Y-22046144D01*
X20919692Y-22121500D01*
X20923387Y-22135290D01*
X20960459Y-22199500D01*
X20969531Y-22215212D01*
X21034788Y-22280469D01*
X21114712Y-22326614D01*
X21203856Y-22350500D01*
X21203858Y-22350500D01*
X21296142Y-22350500D01*
X21296144Y-22350500D01*
X21385288Y-22326614D01*
X21465212Y-22280469D01*
X21530469Y-22215212D01*
X21576614Y-22135288D01*
X21600500Y-22046144D01*
X21600500Y-21953856D01*
X21576614Y-21864712D01*
X21530469Y-21784788D01*
X21465212Y-21719531D01*
X21437673Y-21703631D01*
X21385287Y-21673385D01*
X21323876Y-21656930D01*
X21272562Y-21623606D01*
X21250636Y-21566485D01*
X21250500Y-21561304D01*
X21250500Y-21553857D01*
X21250461Y-21553712D01*
X21226614Y-21464712D01*
X21180469Y-21384788D01*
X21115212Y-21319531D01*
X21035288Y-21273386D01*
X20946144Y-21249500D01*
X20853856Y-21249500D01*
X20764712Y-21273386D01*
X20764711Y-21273386D01*
X20764709Y-21273387D01*
X20684790Y-21319529D01*
X20619529Y-21384790D01*
X20573387Y-21464709D01*
X20573386Y-21464711D01*
X20573386Y-21464712D01*
X20549500Y-21553856D01*
X300500Y-21553856D01*
X300500Y-20503856D01*
X17669500Y-20503856D01*
X17669500Y-20596144D01*
X17693386Y-20685288D01*
X17739531Y-20765212D01*
X17804788Y-20830469D01*
X17884712Y-20876614D01*
X17973856Y-20900500D01*
X17973858Y-20900500D01*
X18066142Y-20900500D01*
X18066144Y-20900500D01*
X18155288Y-20876614D01*
X18235212Y-20830469D01*
X18300469Y-20765212D01*
X18346614Y-20685288D01*
X18370500Y-20596144D01*
X18370500Y-20503856D01*
X18346614Y-20414712D01*
X18346466Y-20414456D01*
X19205300Y-20414456D01*
X19205300Y-20506744D01*
X19229186Y-20595888D01*
X19229187Y-20595890D01*
X19229332Y-20596142D01*
X19275331Y-20675812D01*
X19340588Y-20741069D01*
X19420512Y-20787214D01*
X19509656Y-20811100D01*
X19509658Y-20811100D01*
X19601942Y-20811100D01*
X19601944Y-20811100D01*
X19691088Y-20787214D01*
X19771012Y-20741069D01*
X19836269Y-20675812D01*
X19882414Y-20595888D01*
X19906300Y-20506744D01*
X19906300Y-20414456D01*
X19882414Y-20325312D01*
X19836269Y-20245388D01*
X19771012Y-20180131D01*
X19691088Y-20133986D01*
X19601944Y-20110100D01*
X19509656Y-20110100D01*
X19420512Y-20133986D01*
X19420511Y-20133986D01*
X19420509Y-20133987D01*
X19340590Y-20180129D01*
X19275329Y-20245390D01*
X19229187Y-20325309D01*
X19229186Y-20325311D01*
X19229186Y-20325312D01*
X19205300Y-20414456D01*
X18346466Y-20414456D01*
X18300470Y-20334790D01*
X18300469Y-20334788D01*
X18235212Y-20269531D01*
X18197556Y-20247790D01*
X18155290Y-20223387D01*
X18155289Y-20223386D01*
X18155288Y-20223386D01*
X18066144Y-20199500D01*
X17973856Y-20199500D01*
X17884712Y-20223386D01*
X17884711Y-20223386D01*
X17884709Y-20223387D01*
X17804790Y-20269529D01*
X17739529Y-20334790D01*
X17693387Y-20414709D01*
X17693386Y-20414711D01*
X17693386Y-20414712D01*
X17669500Y-20503856D01*
X300500Y-20503856D01*
X300500Y-19686256D01*
X27674500Y-19686256D01*
X27674500Y-19778544D01*
X27698386Y-19867688D01*
X27698387Y-19867690D01*
X27743244Y-19945384D01*
X27744531Y-19947612D01*
X27809788Y-20012869D01*
X27889712Y-20059014D01*
X27978856Y-20082900D01*
X27978858Y-20082900D01*
X28071142Y-20082900D01*
X28071144Y-20082900D01*
X28160288Y-20059014D01*
X28240212Y-20012869D01*
X28289492Y-19963588D01*
X28344007Y-19935813D01*
X28404439Y-19945384D01*
X28429494Y-19963587D01*
X28467287Y-20001380D01*
X28558613Y-20054107D01*
X28660473Y-20081400D01*
X28660475Y-20081400D01*
X28765925Y-20081400D01*
X28765927Y-20081400D01*
X28822073Y-20066356D01*
X34539500Y-20066356D01*
X34539500Y-20158644D01*
X34563386Y-20247788D01*
X34563387Y-20247790D01*
X34608143Y-20325309D01*
X34609531Y-20327712D01*
X34674788Y-20392969D01*
X34754712Y-20439114D01*
X34843856Y-20463000D01*
X34843858Y-20463000D01*
X34936142Y-20463000D01*
X34936144Y-20463000D01*
X35025288Y-20439114D01*
X35105212Y-20392969D01*
X35170469Y-20327712D01*
X35216614Y-20247788D01*
X35240500Y-20158644D01*
X35240500Y-20066356D01*
X35216614Y-19977212D01*
X35170469Y-19897288D01*
X35105212Y-19832031D01*
X35025288Y-19785886D01*
X34936144Y-19762000D01*
X34843856Y-19762000D01*
X34754712Y-19785886D01*
X34754711Y-19785886D01*
X34754709Y-19785887D01*
X34674790Y-19832029D01*
X34609529Y-19897290D01*
X34563387Y-19977209D01*
X34563386Y-19977211D01*
X34563386Y-19977212D01*
X34539500Y-20066356D01*
X28822073Y-20066356D01*
X28867787Y-20054107D01*
X28959113Y-20001380D01*
X29033680Y-19926813D01*
X29086407Y-19835487D01*
X29113700Y-19733627D01*
X29113700Y-19628173D01*
X29089344Y-19537273D01*
X33099500Y-19537273D01*
X33099500Y-19642727D01*
X33126793Y-19744587D01*
X33126794Y-19744589D01*
X33126794Y-19744590D01*
X33179274Y-19835487D01*
X33179520Y-19835913D01*
X33254087Y-19910480D01*
X33345413Y-19963207D01*
X33447273Y-19990500D01*
X33447275Y-19990500D01*
X33552725Y-19990500D01*
X33552727Y-19990500D01*
X33654587Y-19963207D01*
X33745913Y-19910480D01*
X33820480Y-19835913D01*
X33873207Y-19744587D01*
X33900500Y-19642727D01*
X33900500Y-19537273D01*
X33873207Y-19435413D01*
X33872962Y-19434989D01*
X33820481Y-19344089D01*
X33820480Y-19344087D01*
X33745913Y-19269520D01*
X33724617Y-19257225D01*
X33654589Y-19216794D01*
X33654588Y-19216793D01*
X33654587Y-19216793D01*
X33552727Y-19189500D01*
X33447273Y-19189500D01*
X33345413Y-19216793D01*
X33345412Y-19216793D01*
X33345410Y-19216794D01*
X33345409Y-19216794D01*
X33254089Y-19269518D01*
X33179518Y-19344089D01*
X33126794Y-19435409D01*
X33126794Y-19435410D01*
X33126793Y-19435412D01*
X33126793Y-19435413D01*
X33099500Y-19537273D01*
X29089344Y-19537273D01*
X29086407Y-19526313D01*
X29085637Y-19524980D01*
X29033924Y-19435410D01*
X29033680Y-19434987D01*
X28959113Y-19360420D01*
X28956809Y-19359090D01*
X28867789Y-19307694D01*
X28867788Y-19307693D01*
X28867787Y-19307693D01*
X28765927Y-19280400D01*
X28660473Y-19280400D01*
X28558613Y-19307693D01*
X28558612Y-19307693D01*
X28558610Y-19307694D01*
X28558609Y-19307694D01*
X28467289Y-19360418D01*
X28392714Y-19434993D01*
X28388771Y-19440133D01*
X28386585Y-19438456D01*
X28349687Y-19471644D01*
X28288834Y-19478007D01*
X28246166Y-19454826D01*
X28245358Y-19455880D01*
X28240210Y-19451929D01*
X28160290Y-19405787D01*
X28160289Y-19405786D01*
X28160288Y-19405786D01*
X28071144Y-19381900D01*
X27978856Y-19381900D01*
X27889712Y-19405786D01*
X27889711Y-19405786D01*
X27889709Y-19405787D01*
X27809790Y-19451929D01*
X27744529Y-19517190D01*
X27698387Y-19597109D01*
X27698386Y-19597111D01*
X27698386Y-19597112D01*
X27674500Y-19686256D01*
X300500Y-19686256D01*
X300500Y-18835856D01*
X21049500Y-18835856D01*
X21049500Y-18928144D01*
X21067626Y-18995791D01*
X21073387Y-19017290D01*
X21118707Y-19095786D01*
X21119531Y-19097212D01*
X21184788Y-19162469D01*
X21264712Y-19208614D01*
X21353856Y-19232500D01*
X21353858Y-19232500D01*
X21446142Y-19232500D01*
X21446144Y-19232500D01*
X21535288Y-19208614D01*
X21615212Y-19162469D01*
X21625908Y-19151773D01*
X22597900Y-19151773D01*
X22597900Y-19257227D01*
X22625193Y-19359087D01*
X22625194Y-19359089D01*
X22625194Y-19359090D01*
X22671985Y-19440133D01*
X22677920Y-19450413D01*
X22752487Y-19524980D01*
X22843813Y-19577707D01*
X22945673Y-19605000D01*
X22945675Y-19605000D01*
X23051125Y-19605000D01*
X23051127Y-19605000D01*
X23152987Y-19577707D01*
X23244313Y-19524980D01*
X23318880Y-19450413D01*
X23371607Y-19359087D01*
X23398900Y-19257227D01*
X23398900Y-19209356D01*
X24664100Y-19209356D01*
X24664100Y-19301644D01*
X24687986Y-19390788D01*
X24687987Y-19390790D01*
X24725567Y-19455880D01*
X24734131Y-19470712D01*
X24799388Y-19535969D01*
X24879312Y-19582114D01*
X24968456Y-19606000D01*
X24968458Y-19606000D01*
X25060742Y-19606000D01*
X25060744Y-19606000D01*
X25149888Y-19582114D01*
X25229812Y-19535969D01*
X25295069Y-19470712D01*
X25341214Y-19390788D01*
X25365100Y-19301644D01*
X25365100Y-19209356D01*
X25341214Y-19120212D01*
X25295069Y-19040288D01*
X25229812Y-18975031D01*
X25210498Y-18963880D01*
X25175816Y-18943856D01*
X26249500Y-18943856D01*
X26249500Y-19036144D01*
X26272026Y-19120212D01*
X26273387Y-19125290D01*
X26310459Y-19189500D01*
X26319531Y-19205212D01*
X26384788Y-19270469D01*
X26464712Y-19316614D01*
X26553856Y-19340500D01*
X26553858Y-19340500D01*
X26646142Y-19340500D01*
X26646144Y-19340500D01*
X26735288Y-19316614D01*
X26815212Y-19270469D01*
X26880469Y-19205212D01*
X26926614Y-19125288D01*
X26950500Y-19036144D01*
X26950500Y-18984100D01*
X26969407Y-18925909D01*
X27018907Y-18889945D01*
X27080093Y-18889945D01*
X27119501Y-18914094D01*
X27169287Y-18963880D01*
X27260613Y-19016607D01*
X27362473Y-19043900D01*
X27362475Y-19043900D01*
X27467925Y-19043900D01*
X27467927Y-19043900D01*
X27569787Y-19016607D01*
X27661113Y-18963880D01*
X27735680Y-18889313D01*
X27788407Y-18797987D01*
X27815700Y-18696127D01*
X27815700Y-18590673D01*
X27788407Y-18488813D01*
X27783607Y-18480500D01*
X27743175Y-18410469D01*
X27735680Y-18397487D01*
X27661113Y-18322920D01*
X27658577Y-18321456D01*
X27569789Y-18270194D01*
X27569788Y-18270193D01*
X27569787Y-18270193D01*
X27467927Y-18242900D01*
X27362473Y-18242900D01*
X27260613Y-18270193D01*
X27260612Y-18270193D01*
X27260610Y-18270194D01*
X27260609Y-18270194D01*
X27169289Y-18322918D01*
X27094718Y-18397489D01*
X27041994Y-18488809D01*
X27041994Y-18488810D01*
X27041993Y-18488812D01*
X27041993Y-18488813D01*
X27024049Y-18555784D01*
X27014700Y-18590674D01*
X27014700Y-18670012D01*
X26995793Y-18728203D01*
X26946293Y-18764167D01*
X26885107Y-18764167D01*
X26845698Y-18740017D01*
X26815212Y-18709531D01*
X26790986Y-18695544D01*
X26735290Y-18663387D01*
X26735289Y-18663386D01*
X26735288Y-18663386D01*
X26646144Y-18639500D01*
X26553856Y-18639500D01*
X26464712Y-18663386D01*
X26464711Y-18663386D01*
X26464709Y-18663387D01*
X26384790Y-18709529D01*
X26319529Y-18774790D01*
X26273387Y-18854709D01*
X26273386Y-18854711D01*
X26273386Y-18854712D01*
X26249500Y-18943856D01*
X25175816Y-18943856D01*
X25149890Y-18928887D01*
X25149889Y-18928886D01*
X25149888Y-18928886D01*
X25060744Y-18905000D01*
X24968456Y-18905000D01*
X24879312Y-18928886D01*
X24879311Y-18928886D01*
X24879309Y-18928887D01*
X24799390Y-18975029D01*
X24734129Y-19040290D01*
X24687987Y-19120209D01*
X24687986Y-19120211D01*
X24687986Y-19120212D01*
X24664100Y-19209356D01*
X23398900Y-19209356D01*
X23398900Y-19151773D01*
X23371607Y-19049913D01*
X23340358Y-18995789D01*
X23327638Y-18935943D01*
X23352525Y-18880047D01*
X23356076Y-18876304D01*
X23367769Y-18864612D01*
X23413914Y-18784688D01*
X23437800Y-18695544D01*
X23437800Y-18603256D01*
X23413914Y-18514112D01*
X23367769Y-18434188D01*
X23302512Y-18368931D01*
X23261430Y-18345212D01*
X23222590Y-18322787D01*
X23222589Y-18322786D01*
X23222588Y-18322786D01*
X23133444Y-18298900D01*
X23041156Y-18298900D01*
X22952012Y-18322786D01*
X22952011Y-18322786D01*
X22952009Y-18322787D01*
X22872090Y-18368929D01*
X22806829Y-18434190D01*
X22760687Y-18514109D01*
X22760686Y-18514111D01*
X22760686Y-18514112D01*
X22736800Y-18603256D01*
X22736800Y-18695544D01*
X22740548Y-18709531D01*
X22760686Y-18784689D01*
X22762065Y-18788017D01*
X22762267Y-18790587D01*
X22762366Y-18790956D01*
X22762297Y-18790974D01*
X22766863Y-18849014D01*
X22740604Y-18895902D01*
X22677918Y-18958589D01*
X22625194Y-19049909D01*
X22625194Y-19049910D01*
X22625193Y-19049912D01*
X22625193Y-19049913D01*
X22597900Y-19151773D01*
X21625908Y-19151773D01*
X21680469Y-19097212D01*
X21680472Y-19097207D01*
X21681293Y-19095786D01*
X21681294Y-19095783D01*
X21726614Y-19017288D01*
X21750500Y-18928144D01*
X21750500Y-18835856D01*
X21726614Y-18746712D01*
X21680469Y-18666788D01*
X21615212Y-18601531D01*
X21596407Y-18590674D01*
X21535290Y-18555387D01*
X21535289Y-18555386D01*
X21535288Y-18555386D01*
X21446144Y-18531500D01*
X21353856Y-18531500D01*
X21264712Y-18555386D01*
X21264711Y-18555386D01*
X21264709Y-18555387D01*
X21184790Y-18601529D01*
X21119529Y-18666790D01*
X21073387Y-18746709D01*
X21073386Y-18746711D01*
X21073386Y-18746712D01*
X21049500Y-18835856D01*
X300500Y-18835856D01*
X300500Y-18229170D01*
X4694814Y-18229170D01*
X4694814Y-18321458D01*
X4718665Y-18410470D01*
X4718701Y-18410604D01*
X4763853Y-18488809D01*
X4764845Y-18490526D01*
X4830102Y-18555783D01*
X4910026Y-18601928D01*
X4999170Y-18625814D01*
X4999172Y-18625814D01*
X5091456Y-18625814D01*
X5091458Y-18625814D01*
X5180602Y-18601928D01*
X5260526Y-18555783D01*
X5325783Y-18490526D01*
X5371928Y-18410602D01*
X5395814Y-18321458D01*
X5395814Y-18229170D01*
X5371928Y-18140026D01*
X5364331Y-18126867D01*
X5339498Y-18083856D01*
X28199500Y-18083856D01*
X28199500Y-18176144D01*
X28223365Y-18265209D01*
X28223387Y-18265290D01*
X28261019Y-18330470D01*
X28269531Y-18345212D01*
X28334788Y-18410469D01*
X28414712Y-18456614D01*
X28503856Y-18480500D01*
X28503858Y-18480500D01*
X28596142Y-18480500D01*
X28596144Y-18480500D01*
X28685288Y-18456614D01*
X28765212Y-18410469D01*
X28830469Y-18345212D01*
X28876614Y-18265288D01*
X28900500Y-18176144D01*
X28900500Y-18083856D01*
X28884191Y-18022989D01*
X28884191Y-18022987D01*
X28879064Y-18003856D01*
X29499500Y-18003856D01*
X29499500Y-18096144D01*
X29523386Y-18185288D01*
X29569531Y-18265212D01*
X29634788Y-18330469D01*
X29714712Y-18376614D01*
X29803856Y-18400500D01*
X29803858Y-18400500D01*
X29896142Y-18400500D01*
X29896144Y-18400500D01*
X29985288Y-18376614D01*
X30065212Y-18330469D01*
X30130469Y-18265212D01*
X30176614Y-18185288D01*
X30200500Y-18096144D01*
X30200500Y-18003856D01*
X30176614Y-17914712D01*
X30130469Y-17834788D01*
X30065212Y-17769531D01*
X29985288Y-17723386D01*
X29896144Y-17699500D01*
X29803856Y-17699500D01*
X29714712Y-17723386D01*
X29714711Y-17723386D01*
X29714709Y-17723387D01*
X29634790Y-17769529D01*
X29569529Y-17834790D01*
X29523387Y-17914709D01*
X29523386Y-17914711D01*
X29523386Y-17914712D01*
X29499500Y-18003856D01*
X28879064Y-18003856D01*
X28876614Y-17994712D01*
X28850048Y-17948700D01*
X28830469Y-17914788D01*
X28765212Y-17849531D01*
X28739680Y-17834790D01*
X28685290Y-17803387D01*
X28685289Y-17803386D01*
X28685288Y-17803386D01*
X28596144Y-17779500D01*
X28503856Y-17779500D01*
X28414712Y-17803386D01*
X28414711Y-17803386D01*
X28414709Y-17803387D01*
X28334790Y-17849529D01*
X28269529Y-17914790D01*
X28223387Y-17994709D01*
X28223386Y-17994711D01*
X28223386Y-17994712D01*
X28199500Y-18083856D01*
X5339498Y-18083856D01*
X5325786Y-18060106D01*
X5325784Y-18060104D01*
X5325783Y-18060102D01*
X5260526Y-17994845D01*
X5260290Y-17994709D01*
X5180604Y-17948701D01*
X5180603Y-17948700D01*
X5180602Y-17948700D01*
X5091458Y-17924814D01*
X4999170Y-17924814D01*
X4910026Y-17948700D01*
X4910025Y-17948700D01*
X4910023Y-17948701D01*
X4830104Y-17994843D01*
X4764843Y-18060104D01*
X4718701Y-18140023D01*
X4718700Y-18140025D01*
X4718700Y-18140026D01*
X4694814Y-18229170D01*
X300500Y-18229170D01*
X300500Y-17203856D01*
X8199500Y-17203856D01*
X8199500Y-17296144D01*
X8223386Y-17385288D01*
X8269531Y-17465212D01*
X8334788Y-17530469D01*
X8414712Y-17576614D01*
X8503856Y-17600500D01*
X8503858Y-17600500D01*
X8596142Y-17600500D01*
X8596144Y-17600500D01*
X8685288Y-17576614D01*
X8765212Y-17530469D01*
X8830469Y-17465212D01*
X8876614Y-17385288D01*
X8900500Y-17296144D01*
X8900500Y-17203856D01*
X8876614Y-17114712D01*
X8830469Y-17034788D01*
X8765212Y-16969531D01*
X8739623Y-16954757D01*
X8685290Y-16923387D01*
X8685289Y-16923386D01*
X8685288Y-16923386D01*
X8596144Y-16899500D01*
X8503856Y-16899500D01*
X8414712Y-16923386D01*
X8414711Y-16923386D01*
X8414709Y-16923387D01*
X8334790Y-16969529D01*
X8269529Y-17034790D01*
X8223387Y-17114709D01*
X8223386Y-17114711D01*
X8223386Y-17114712D01*
X8199500Y-17203856D01*
X300500Y-17203856D01*
X300500Y-16804256D01*
X9899500Y-16804256D01*
X9899500Y-16896544D01*
X9919057Y-16969531D01*
X9923387Y-16985690D01*
X9958810Y-17047044D01*
X9969531Y-17065612D01*
X10034788Y-17130869D01*
X10114712Y-17177014D01*
X10203856Y-17200900D01*
X10203858Y-17200900D01*
X10296142Y-17200900D01*
X10296144Y-17200900D01*
X10385288Y-17177014D01*
X10465212Y-17130869D01*
X10530469Y-17065612D01*
X10576614Y-16985688D01*
X10600500Y-16896544D01*
X10600500Y-16804256D01*
X10576614Y-16715112D01*
X10530469Y-16635188D01*
X10465212Y-16569931D01*
X10394417Y-16529057D01*
X10394415Y-16529056D01*
X12767200Y-16529056D01*
X12767200Y-16621344D01*
X12787876Y-16698507D01*
X12791087Y-16710490D01*
X12834504Y-16785690D01*
X12837231Y-16790412D01*
X12902488Y-16855669D01*
X12982412Y-16901814D01*
X13071556Y-16925700D01*
X13071558Y-16925700D01*
X13163842Y-16925700D01*
X13163844Y-16925700D01*
X13252988Y-16901814D01*
X13265905Y-16894356D01*
X20940100Y-16894356D01*
X20940100Y-16986644D01*
X20963986Y-17075788D01*
X20963987Y-17075790D01*
X20998858Y-17136188D01*
X21010131Y-17155712D01*
X21075388Y-17220969D01*
X21155312Y-17267114D01*
X21244456Y-17291000D01*
X21244458Y-17291000D01*
X21336742Y-17291000D01*
X21336744Y-17291000D01*
X21425888Y-17267114D01*
X21467840Y-17242892D01*
X21527685Y-17230170D01*
X21583582Y-17255055D01*
X21587324Y-17258605D01*
X21610088Y-17281369D01*
X21690012Y-17327514D01*
X21779156Y-17351400D01*
X21779158Y-17351400D01*
X21871442Y-17351400D01*
X21871444Y-17351400D01*
X21960588Y-17327514D01*
X22040512Y-17281369D01*
X22105769Y-17216112D01*
X22151914Y-17136188D01*
X22175800Y-17047044D01*
X22175800Y-16954756D01*
X22151914Y-16865612D01*
X22105769Y-16785688D01*
X22040512Y-16720431D01*
X22031299Y-16715112D01*
X21960590Y-16674287D01*
X21960589Y-16674286D01*
X21960588Y-16674286D01*
X21871444Y-16650400D01*
X21779156Y-16650400D01*
X21743213Y-16660031D01*
X21690007Y-16674287D01*
X21648059Y-16698507D01*
X21588211Y-16711229D01*
X21532315Y-16686343D01*
X21528574Y-16682793D01*
X21505812Y-16660031D01*
X21462783Y-16635188D01*
X21425890Y-16613887D01*
X21425889Y-16613886D01*
X21425888Y-16613886D01*
X21336744Y-16590000D01*
X21244456Y-16590000D01*
X21155312Y-16613886D01*
X21155311Y-16613886D01*
X21155309Y-16613887D01*
X21075390Y-16660029D01*
X21010129Y-16725290D01*
X20963987Y-16805209D01*
X20963986Y-16805211D01*
X20963986Y-16805212D01*
X20940100Y-16894356D01*
X13265905Y-16894356D01*
X13332912Y-16855669D01*
X13398169Y-16790412D01*
X13444314Y-16710488D01*
X13468200Y-16621344D01*
X13468200Y-16529056D01*
X13444314Y-16439912D01*
X13398169Y-16359988D01*
X13332912Y-16294731D01*
X13252988Y-16248586D01*
X13163844Y-16224700D01*
X13071556Y-16224700D01*
X12982412Y-16248586D01*
X12982411Y-16248586D01*
X12982409Y-16248587D01*
X12902490Y-16294729D01*
X12837229Y-16359990D01*
X12791087Y-16439909D01*
X12791086Y-16439911D01*
X12791086Y-16439912D01*
X12767200Y-16529056D01*
X10394415Y-16529056D01*
X10385290Y-16523787D01*
X10385289Y-16523786D01*
X10385288Y-16523786D01*
X10296144Y-16499900D01*
X10203856Y-16499900D01*
X10114712Y-16523786D01*
X10114711Y-16523786D01*
X10114709Y-16523787D01*
X10034790Y-16569929D01*
X9969529Y-16635190D01*
X9923387Y-16715109D01*
X9923386Y-16715111D01*
X9923386Y-16715112D01*
X9899500Y-16804256D01*
X300500Y-16804256D01*
X300500Y-15631073D01*
X24779500Y-15631073D01*
X24779500Y-15736527D01*
X24806793Y-15838387D01*
X24806794Y-15838389D01*
X24806794Y-15838390D01*
X24859518Y-15929710D01*
X24859520Y-15929713D01*
X24934087Y-16004280D01*
X25025413Y-16057007D01*
X25127273Y-16084300D01*
X25127275Y-16084300D01*
X25232725Y-16084300D01*
X25232727Y-16084300D01*
X25334587Y-16057007D01*
X25425913Y-16004280D01*
X25500480Y-15929713D01*
X25501196Y-15928473D01*
X27349500Y-15928473D01*
X27349500Y-16033927D01*
X27374389Y-16126814D01*
X27376794Y-16135789D01*
X27376794Y-16135790D01*
X27413462Y-16199300D01*
X27429520Y-16227113D01*
X27504087Y-16301680D01*
X27595413Y-16354407D01*
X27697273Y-16381700D01*
X27697275Y-16381700D01*
X27802725Y-16381700D01*
X27802727Y-16381700D01*
X27904587Y-16354407D01*
X27995913Y-16301680D01*
X28070480Y-16227113D01*
X28109707Y-16159168D01*
X28155175Y-16118230D01*
X28216025Y-16111834D01*
X28248513Y-16126814D01*
X28248969Y-16126025D01*
X28265877Y-16135787D01*
X28334512Y-16175414D01*
X28423656Y-16199300D01*
X28423658Y-16199300D01*
X28515942Y-16199300D01*
X28515944Y-16199300D01*
X28605088Y-16175414D01*
X28685012Y-16129269D01*
X28750269Y-16064012D01*
X28796414Y-15984088D01*
X28820300Y-15894944D01*
X28820300Y-15802656D01*
X28796414Y-15713512D01*
X28750269Y-15633588D01*
X28685012Y-15568331D01*
X28654833Y-15550907D01*
X28605090Y-15522187D01*
X28605089Y-15522186D01*
X28605088Y-15522186D01*
X28515944Y-15498300D01*
X28423656Y-15498300D01*
X28334512Y-15522186D01*
X28334511Y-15522186D01*
X28334509Y-15522187D01*
X28254590Y-15568329D01*
X28189329Y-15633590D01*
X28173111Y-15661679D01*
X28127640Y-15702619D01*
X28066789Y-15709012D01*
X28017374Y-15682181D01*
X27995913Y-15660720D01*
X27948922Y-15633590D01*
X27904589Y-15607994D01*
X27904588Y-15607993D01*
X27904587Y-15607993D01*
X27802727Y-15580700D01*
X27697273Y-15580700D01*
X27595413Y-15607993D01*
X27595412Y-15607993D01*
X27595410Y-15607994D01*
X27595409Y-15607994D01*
X27504089Y-15660718D01*
X27429518Y-15735289D01*
X27376794Y-15826609D01*
X27376794Y-15826610D01*
X27376793Y-15826612D01*
X27376793Y-15826613D01*
X27349500Y-15928473D01*
X25501196Y-15928473D01*
X25553207Y-15838387D01*
X25580500Y-15736527D01*
X25580500Y-15631073D01*
X25553207Y-15529213D01*
X25535359Y-15498300D01*
X25500481Y-15437889D01*
X25500480Y-15437887D01*
X25425913Y-15363320D01*
X25372167Y-15332290D01*
X25334589Y-15310594D01*
X25334588Y-15310593D01*
X25334587Y-15310593D01*
X25232727Y-15283300D01*
X25127273Y-15283300D01*
X25025413Y-15310593D01*
X25025412Y-15310593D01*
X25025410Y-15310594D01*
X25025409Y-15310594D01*
X24934089Y-15363318D01*
X24859518Y-15437889D01*
X24806794Y-15529209D01*
X24806794Y-15529210D01*
X24806793Y-15529212D01*
X24806793Y-15529213D01*
X24779500Y-15631073D01*
X300500Y-15631073D01*
X300500Y-15124973D01*
X21833400Y-15124973D01*
X21833400Y-15230427D01*
X21860693Y-15332287D01*
X21860694Y-15332289D01*
X21860694Y-15332290D01*
X21913418Y-15423610D01*
X21913420Y-15423613D01*
X21987987Y-15498180D01*
X22079313Y-15550907D01*
X22181173Y-15578200D01*
X22181175Y-15578200D01*
X22286625Y-15578200D01*
X22286627Y-15578200D01*
X22388487Y-15550907D01*
X22479813Y-15498180D01*
X22554380Y-15423613D01*
X22607107Y-15332287D01*
X22634400Y-15230427D01*
X22634400Y-15124973D01*
X22607107Y-15023113D01*
X22554380Y-14931787D01*
X22479813Y-14857220D01*
X22388487Y-14804493D01*
X22286627Y-14777200D01*
X22181173Y-14777200D01*
X22079313Y-14804493D01*
X22079312Y-14804493D01*
X22079310Y-14804494D01*
X22079309Y-14804494D01*
X21987989Y-14857218D01*
X21913418Y-14931789D01*
X21860694Y-15023109D01*
X21860694Y-15023110D01*
X21860693Y-15023112D01*
X21860693Y-15023113D01*
X21833400Y-15124973D01*
X300500Y-15124973D01*
X300500Y-14403856D01*
X14649500Y-14403856D01*
X14649500Y-14496144D01*
X14673386Y-14585288D01*
X14719531Y-14665212D01*
X14784788Y-14730469D01*
X14864712Y-14776614D01*
X14953856Y-14800500D01*
X14953858Y-14800500D01*
X15046142Y-14800500D01*
X15046144Y-14800500D01*
X15135288Y-14776614D01*
X15215212Y-14730469D01*
X15280469Y-14665212D01*
X15326614Y-14585288D01*
X15350500Y-14496144D01*
X15350500Y-14462673D01*
X23162100Y-14462673D01*
X23162100Y-14568127D01*
X23166699Y-14585290D01*
X23189394Y-14669989D01*
X23189394Y-14669990D01*
X23242118Y-14761310D01*
X23242120Y-14761313D01*
X23316687Y-14835880D01*
X23408013Y-14888607D01*
X23509873Y-14915900D01*
X23509875Y-14915900D01*
X23615325Y-14915900D01*
X23615327Y-14915900D01*
X23717187Y-14888607D01*
X23808513Y-14835880D01*
X23883080Y-14761313D01*
X23935807Y-14669987D01*
X23963100Y-14568127D01*
X23963100Y-14462673D01*
X23935807Y-14360813D01*
X23935626Y-14360500D01*
X23900655Y-14299929D01*
X23883080Y-14269487D01*
X23808513Y-14194920D01*
X23764534Y-14169529D01*
X23717189Y-14142194D01*
X23717188Y-14142193D01*
X23717187Y-14142193D01*
X23615327Y-14114900D01*
X23509873Y-14114900D01*
X23408013Y-14142193D01*
X23408012Y-14142193D01*
X23408010Y-14142194D01*
X23408009Y-14142194D01*
X23316689Y-14194918D01*
X23242118Y-14269489D01*
X23189394Y-14360809D01*
X23189394Y-14360810D01*
X23189393Y-14360812D01*
X23189393Y-14360813D01*
X23162100Y-14462673D01*
X15350500Y-14462673D01*
X15350500Y-14403856D01*
X15326614Y-14314712D01*
X15280469Y-14234788D01*
X15215212Y-14169531D01*
X15155902Y-14135288D01*
X15135290Y-14123387D01*
X15135289Y-14123386D01*
X15135288Y-14123386D01*
X15046144Y-14099500D01*
X14953856Y-14099500D01*
X14864712Y-14123386D01*
X14864711Y-14123386D01*
X14864709Y-14123387D01*
X14784790Y-14169529D01*
X14719529Y-14234790D01*
X14673387Y-14314709D01*
X14673386Y-14314711D01*
X14673386Y-14314712D01*
X14649500Y-14403856D01*
X300500Y-14403856D01*
X300500Y-13963856D01*
X8649500Y-13963856D01*
X8649500Y-14056144D01*
X8672557Y-14142193D01*
X8673387Y-14145290D01*
X8713755Y-14215209D01*
X8719531Y-14225212D01*
X8784788Y-14290469D01*
X8864712Y-14336614D01*
X8953856Y-14360500D01*
X8953858Y-14360500D01*
X9046142Y-14360500D01*
X9046144Y-14360500D01*
X9135288Y-14336614D01*
X9215212Y-14290469D01*
X9280469Y-14225212D01*
X9326614Y-14145288D01*
X9350500Y-14056144D01*
X9350500Y-13963856D01*
X9347821Y-13953856D01*
X9699500Y-13953856D01*
X9699500Y-14046144D01*
X9723386Y-14135288D01*
X9723387Y-14135290D01*
X9758270Y-14195709D01*
X9769531Y-14215212D01*
X9834788Y-14280469D01*
X9914712Y-14326614D01*
X10003856Y-14350500D01*
X10003858Y-14350500D01*
X10096142Y-14350500D01*
X10096144Y-14350500D01*
X10185288Y-14326614D01*
X10265212Y-14280469D01*
X10330469Y-14215212D01*
X10376614Y-14135288D01*
X10400500Y-14046144D01*
X10400500Y-13953856D01*
X10395275Y-13934356D01*
X24870000Y-13934356D01*
X24870000Y-14026644D01*
X24893886Y-14115788D01*
X24893887Y-14115790D01*
X24939573Y-14194920D01*
X24940031Y-14195712D01*
X25005288Y-14260969D01*
X25085212Y-14307114D01*
X25174356Y-14331000D01*
X25174358Y-14331000D01*
X25266642Y-14331000D01*
X25266644Y-14331000D01*
X25355788Y-14307114D01*
X25435712Y-14260969D01*
X25500969Y-14195712D01*
X25547114Y-14115788D01*
X25571000Y-14026644D01*
X25571000Y-13934356D01*
X25547114Y-13845212D01*
X25500969Y-13765288D01*
X25435712Y-13700031D01*
X25406884Y-13683387D01*
X25355790Y-13653887D01*
X25355789Y-13653886D01*
X25355788Y-13653886D01*
X25266644Y-13630000D01*
X25174356Y-13630000D01*
X25085212Y-13653886D01*
X25085211Y-13653886D01*
X25085209Y-13653887D01*
X25005290Y-13700029D01*
X24940029Y-13765290D01*
X24893887Y-13845209D01*
X24893886Y-13845211D01*
X24893886Y-13845212D01*
X24870000Y-13934356D01*
X10395275Y-13934356D01*
X10376614Y-13864712D01*
X10330469Y-13784788D01*
X10265212Y-13719531D01*
X10257731Y-13715212D01*
X10185290Y-13673387D01*
X10185289Y-13673386D01*
X10185288Y-13673386D01*
X10096144Y-13649500D01*
X10003856Y-13649500D01*
X9914712Y-13673386D01*
X9914711Y-13673386D01*
X9914709Y-13673387D01*
X9834790Y-13719529D01*
X9769529Y-13784790D01*
X9723387Y-13864709D01*
X9723386Y-13864711D01*
X9723386Y-13864712D01*
X9699500Y-13953856D01*
X9347821Y-13953856D01*
X9326614Y-13874712D01*
X9280469Y-13794788D01*
X9215212Y-13729531D01*
X9197888Y-13719529D01*
X9135290Y-13683387D01*
X9135289Y-13683386D01*
X9135288Y-13683386D01*
X9046144Y-13659500D01*
X8953856Y-13659500D01*
X8864712Y-13683386D01*
X8864711Y-13683386D01*
X8864709Y-13683387D01*
X8784790Y-13729529D01*
X8719529Y-13794790D01*
X8673387Y-13874709D01*
X8673386Y-13874711D01*
X8673386Y-13874712D01*
X8649500Y-13963856D01*
X300500Y-13963856D01*
X300500Y-13453856D01*
X26159500Y-13453856D01*
X26159500Y-13546144D01*
X26183386Y-13635288D01*
X26229531Y-13715212D01*
X26294788Y-13780469D01*
X26374712Y-13826614D01*
X26463856Y-13850500D01*
X26463858Y-13850500D01*
X26556142Y-13850500D01*
X26556144Y-13850500D01*
X26645288Y-13826614D01*
X26725212Y-13780469D01*
X26790469Y-13715212D01*
X26836614Y-13635288D01*
X26860500Y-13546144D01*
X26860500Y-13453856D01*
X26836614Y-13364712D01*
X26790469Y-13284788D01*
X26725212Y-13219531D01*
X26645288Y-13173386D01*
X26556144Y-13149500D01*
X26463856Y-13149500D01*
X26374712Y-13173386D01*
X26374711Y-13173386D01*
X26374709Y-13173387D01*
X26294790Y-13219529D01*
X26229529Y-13284790D01*
X26183387Y-13364709D01*
X26183386Y-13364711D01*
X26183386Y-13364712D01*
X26159500Y-13453856D01*
X300500Y-13453856D01*
X300500Y-12453856D01*
X32659500Y-12453856D01*
X32659500Y-12546144D01*
X32683386Y-12635288D01*
X32729531Y-12715212D01*
X32794788Y-12780469D01*
X32874712Y-12826614D01*
X32963856Y-12850500D01*
X32963858Y-12850500D01*
X33056142Y-12850500D01*
X33056144Y-12850500D01*
X33145288Y-12826614D01*
X33225212Y-12780469D01*
X33290469Y-12715212D01*
X33336614Y-12635288D01*
X33360500Y-12546144D01*
X33360500Y-12453856D01*
X33336614Y-12364712D01*
X33290469Y-12284788D01*
X33225212Y-12219531D01*
X33217731Y-12215212D01*
X33145290Y-12173387D01*
X33145289Y-12173386D01*
X33145288Y-12173386D01*
X33056144Y-12149500D01*
X32963856Y-12149500D01*
X32874712Y-12173386D01*
X32874711Y-12173386D01*
X32874709Y-12173387D01*
X32794790Y-12219529D01*
X32729529Y-12284790D01*
X32683387Y-12364709D01*
X32683386Y-12364711D01*
X32683386Y-12364712D01*
X32659500Y-12453856D01*
X300500Y-12453856D01*
X300500Y-11983856D01*
X11029500Y-11983856D01*
X11029500Y-12076144D01*
X11049156Y-12149500D01*
X11053387Y-12165290D01*
X11084702Y-12219529D01*
X11099531Y-12245212D01*
X11164788Y-12310469D01*
X11244712Y-12356614D01*
X11333856Y-12380500D01*
X11333858Y-12380500D01*
X11426142Y-12380500D01*
X11426144Y-12380500D01*
X11515288Y-12356614D01*
X11595212Y-12310469D01*
X11660469Y-12245212D01*
X11706614Y-12165288D01*
X11730500Y-12076144D01*
X11730500Y-11983856D01*
X12319500Y-11983856D01*
X12319500Y-12076144D01*
X12339156Y-12149500D01*
X12343387Y-12165290D01*
X12374702Y-12219529D01*
X12389531Y-12245212D01*
X12454788Y-12310469D01*
X12534712Y-12356614D01*
X12623856Y-12380500D01*
X12623858Y-12380500D01*
X12716142Y-12380500D01*
X12716144Y-12380500D01*
X12805288Y-12356614D01*
X12885212Y-12310469D01*
X12950469Y-12245212D01*
X12996614Y-12165288D01*
X13020500Y-12076144D01*
X13020500Y-11983856D01*
X13012462Y-11953856D01*
X23159500Y-11953856D01*
X23159500Y-12046144D01*
X23183386Y-12135288D01*
X23229531Y-12215212D01*
X23294788Y-12280469D01*
X23374712Y-12326614D01*
X23463856Y-12350500D01*
X23463858Y-12350500D01*
X23556142Y-12350500D01*
X23556144Y-12350500D01*
X23645288Y-12326614D01*
X23725212Y-12280469D01*
X23790469Y-12215212D01*
X23836614Y-12135288D01*
X23860500Y-12046144D01*
X23860500Y-11953856D01*
X28159500Y-11953856D01*
X28159500Y-12046144D01*
X28183386Y-12135288D01*
X28229531Y-12215212D01*
X28294788Y-12280469D01*
X28374712Y-12326614D01*
X28463856Y-12350500D01*
X28463858Y-12350500D01*
X28556142Y-12350500D01*
X28556144Y-12350500D01*
X28645288Y-12326614D01*
X28725212Y-12280469D01*
X28790469Y-12215212D01*
X28836614Y-12135288D01*
X28860500Y-12046144D01*
X28860500Y-11953856D01*
X28836614Y-11864712D01*
X28790469Y-11784788D01*
X28725212Y-11719531D01*
X28697250Y-11703387D01*
X28645290Y-11673387D01*
X28645289Y-11673386D01*
X28645288Y-11673386D01*
X28556144Y-11649500D01*
X28463856Y-11649500D01*
X28374712Y-11673386D01*
X28374711Y-11673386D01*
X28374709Y-11673387D01*
X28294790Y-11719529D01*
X28229529Y-11784790D01*
X28183387Y-11864709D01*
X28183386Y-11864711D01*
X28183386Y-11864712D01*
X28159500Y-11953856D01*
X23860500Y-11953856D01*
X23836614Y-11864712D01*
X23790469Y-11784788D01*
X23725212Y-11719531D01*
X23697250Y-11703387D01*
X23645290Y-11673387D01*
X23645289Y-11673386D01*
X23645288Y-11673386D01*
X23556144Y-11649500D01*
X23463856Y-11649500D01*
X23374712Y-11673386D01*
X23374711Y-11673386D01*
X23374709Y-11673387D01*
X23294790Y-11719529D01*
X23229529Y-11784790D01*
X23183387Y-11864709D01*
X23183386Y-11864711D01*
X23183386Y-11864712D01*
X23159500Y-11953856D01*
X13012462Y-11953856D01*
X12996614Y-11894712D01*
X12950469Y-11814788D01*
X12885212Y-11749531D01*
X12833251Y-11719531D01*
X12805290Y-11703387D01*
X12805289Y-11703386D01*
X12805288Y-11703386D01*
X12716144Y-11679500D01*
X12623856Y-11679500D01*
X12534712Y-11703386D01*
X12534711Y-11703386D01*
X12534709Y-11703387D01*
X12454790Y-11749529D01*
X12389529Y-11814790D01*
X12343387Y-11894709D01*
X12343386Y-11894711D01*
X12343386Y-11894712D01*
X12319500Y-11983856D01*
X11730500Y-11983856D01*
X11706614Y-11894712D01*
X11660469Y-11814788D01*
X11595212Y-11749531D01*
X11543251Y-11719531D01*
X11515290Y-11703387D01*
X11515289Y-11703386D01*
X11515288Y-11703386D01*
X11426144Y-11679500D01*
X11333856Y-11679500D01*
X11244712Y-11703386D01*
X11244711Y-11703386D01*
X11244709Y-11703387D01*
X11164790Y-11749529D01*
X11099529Y-11814790D01*
X11053387Y-11894709D01*
X11053386Y-11894711D01*
X11053386Y-11894712D01*
X11029500Y-11983856D01*
X300500Y-11983856D01*
X300500Y-11328773D01*
X29925700Y-11328773D01*
X29925700Y-11434227D01*
X29952993Y-11536087D01*
X29952994Y-11536089D01*
X29952994Y-11536090D01*
X30005718Y-11627410D01*
X30005720Y-11627413D01*
X30080287Y-11701980D01*
X30171613Y-11754707D01*
X30273473Y-11782000D01*
X30273475Y-11782000D01*
X30378925Y-11782000D01*
X30378927Y-11782000D01*
X30480787Y-11754707D01*
X30572113Y-11701980D01*
X30646680Y-11627413D01*
X30699407Y-11536087D01*
X30726700Y-11434227D01*
X30726700Y-11328773D01*
X30699407Y-11226913D01*
X30646680Y-11135587D01*
X30572113Y-11061020D01*
X30480787Y-11008293D01*
X30378927Y-10981000D01*
X30273473Y-10981000D01*
X30171613Y-11008293D01*
X30171612Y-11008293D01*
X30171610Y-11008294D01*
X30171609Y-11008294D01*
X30080289Y-11061018D01*
X30005718Y-11135589D01*
X29952994Y-11226909D01*
X29952994Y-11226910D01*
X29952993Y-11226912D01*
X29952993Y-11226913D01*
X29925700Y-11328773D01*
X300500Y-11328773D01*
X300500Y-10443856D01*
X19899500Y-10443856D01*
X19899500Y-10536144D01*
X19923386Y-10625288D01*
X19969531Y-10705212D01*
X20034788Y-10770469D01*
X20114712Y-10816614D01*
X20203856Y-10840500D01*
X20203858Y-10840500D01*
X20296142Y-10840500D01*
X20296144Y-10840500D01*
X20385288Y-10816614D01*
X20465212Y-10770469D01*
X20530469Y-10705212D01*
X20576614Y-10625288D01*
X20600500Y-10536144D01*
X20600500Y-10443856D01*
X20576614Y-10354712D01*
X20530469Y-10274788D01*
X20465212Y-10209531D01*
X20385288Y-10163386D01*
X20296144Y-10139500D01*
X20203856Y-10139500D01*
X20114712Y-10163386D01*
X20114711Y-10163386D01*
X20114709Y-10163387D01*
X20034790Y-10209529D01*
X19969529Y-10274790D01*
X19923387Y-10354709D01*
X19923386Y-10354711D01*
X19923386Y-10354712D01*
X19899500Y-10443856D01*
X300500Y-10443856D01*
X300500Y-8433856D01*
X14149500Y-8433856D01*
X14149500Y-8526144D01*
X14173386Y-8615288D01*
X14219531Y-8695212D01*
X14284788Y-8760469D01*
X14364712Y-8806614D01*
X14453856Y-8830500D01*
X14453858Y-8830500D01*
X14546142Y-8830500D01*
X14546144Y-8830500D01*
X14635288Y-8806614D01*
X14715212Y-8760469D01*
X14780469Y-8695212D01*
X14826614Y-8615288D01*
X14850500Y-8526144D01*
X14850500Y-8433856D01*
X14826614Y-8344712D01*
X14780469Y-8264788D01*
X14715212Y-8199531D01*
X14690411Y-8185212D01*
X14635290Y-8153387D01*
X14635289Y-8153386D01*
X14635288Y-8153386D01*
X14546144Y-8129500D01*
X14453856Y-8129500D01*
X14364712Y-8153386D01*
X14364711Y-8153386D01*
X14364709Y-8153387D01*
X14284790Y-8199529D01*
X14219529Y-8264790D01*
X14173387Y-8344709D01*
X14173386Y-8344711D01*
X14173386Y-8344712D01*
X14149500Y-8433856D01*
X300500Y-8433856D01*
X300500Y-7923856D01*
X12319500Y-7923856D01*
X12319500Y-8016144D01*
X12343386Y-8105288D01*
X12389531Y-8185212D01*
X12454788Y-8250469D01*
X12534712Y-8296614D01*
X12623856Y-8320500D01*
X12623858Y-8320500D01*
X12716142Y-8320500D01*
X12716144Y-8320500D01*
X12805288Y-8296614D01*
X12885212Y-8250469D01*
X12950469Y-8185212D01*
X12996614Y-8105288D01*
X13020500Y-8016144D01*
X13020500Y-7923856D01*
X12996614Y-7834712D01*
X12950469Y-7754788D01*
X12885212Y-7689531D01*
X12805288Y-7643386D01*
X12716144Y-7619500D01*
X12623856Y-7619500D01*
X12534712Y-7643386D01*
X12534711Y-7643386D01*
X12534709Y-7643387D01*
X12454790Y-7689529D01*
X12389529Y-7754790D01*
X12343387Y-7834709D01*
X12343386Y-7834711D01*
X12343386Y-7834712D01*
X12319500Y-7923856D01*
X300500Y-7923856D01*
X300500Y-1503892D01*
X300805Y-1496125D01*
X303614Y-1460438D01*
X314657Y-1320115D01*
X317084Y-1304791D01*
X357391Y-1136900D01*
X362190Y-1122134D01*
X428260Y-962625D01*
X435303Y-948803D01*
X525519Y-801584D01*
X534635Y-789037D01*
X646774Y-657738D01*
X657738Y-646774D01*
X789037Y-534635D01*
X801584Y-525519D01*
X948803Y-435303D01*
X962625Y-428260D01*
X1122137Y-362188D01*
X1136900Y-357391D01*
X1304791Y-317084D01*
X1320116Y-314657D01*
X1471053Y-302778D01*
X1496126Y-300805D01*
X1503893Y-300500D01*
X1547595Y-300500D01*
X34452405Y-300500D01*
X34496107Y-300500D01*
X34503874Y-300805D01*
G37*
G04 #@! TD.AperFunction*
G04 #@! TD*
M02*
