G04 #@! TF.GenerationSoftware,KiCad,Pcbnew,9.0.7*
G04 #@! TF.CreationDate,2026-10-07T14:34:56+02:00*
G04 #@! TF.ProjectId,cartouche-drive,63617274-6f75-4636-9865-2d6472697665,rev?*
G04 #@! TF.SameCoordinates,Original*
G04 #@! TF.FileFunction,Legend,Top*
G04 #@! TF.FilePolarity,Positive*
%FSLAX46Y46*%
G04 Gerber Fmt 4.6, Leading zero omitted, Abs format (unit mm)*
G04 Created by KiCad (PCBNEW 9.0.7) date 2026-10-07 14:34:56*
%MOMM*%
%LPD*%
G01*
G04 APERTURE LIST*
G04 Aperture macros list*
%AMRoundRect*
0 Rectangle with rounded corners*
0 $1 Rounding radius*
0 $2 $3 $4 $5 $6 $7 $8 $9 X,Y pos of 4 corners*
0 Add a 4 corners polygon primitive as box body*
4,1,4,$2,$3,$4,$5,$6,$7,$8,$9,$2,$3,0*
0 Add four circle primitives for the rounded corners*
1,1,$1+$1,$2,$3*
1,1,$1+$1,$4,$5*
1,1,$1+$1,$6,$7*
1,1,$1+$1,$8,$9*
0 Add four rect primitives between the rounded corners*
20,1,$1+$1,$2,$3,$4,$5,0*
20,1,$1+$1,$4,$5,$6,$7,0*
20,1,$1+$1,$6,$7,$8,$9,0*
20,1,$1+$1,$8,$9,$2,$3,0*%
G04 Aperture macros list end*
%ADD10C,0.150000*%
%ADD11C,0.120000*%
%ADD12C,0.060000*%
%ADD13C,0.250000*%
%ADD14C,0.000000*%
%ADD15C,0.200000*%
%ADD16RoundRect,0.140000X-0.140000X-0.170000X0.140000X-0.170000X0.140000X0.170000X-0.140000X0.170000X0*%
%ADD17RoundRect,0.135000X-0.135000X-0.185000X0.135000X-0.185000X0.135000X0.185000X-0.135000X0.185000X0*%
%ADD18RoundRect,0.100000X0.130000X0.100000X-0.130000X0.100000X-0.130000X-0.100000X0.130000X-0.100000X0*%
%ADD19RoundRect,0.250000X0.475000X-0.250000X0.475000X0.250000X-0.475000X0.250000X-0.475000X-0.250000X0*%
%ADD20RoundRect,0.140000X0.170000X-0.140000X0.170000X0.140000X-0.170000X0.140000X-0.170000X-0.140000X0*%
%ADD21RoundRect,0.135000X0.185000X-0.135000X0.185000X0.135000X-0.185000X0.135000X-0.185000X-0.135000X0*%
%ADD22R,0.450000X0.650000*%
%ADD23R,1.900000X1.100000*%
%ADD24RoundRect,0.100000X-0.100000X0.130000X-0.100000X-0.130000X0.100000X-0.130000X0.100000X0.130000X0*%
%ADD25R,0.200000X0.665000*%
%ADD26R,0.665000X0.200000*%
%ADD27R,4.500000X4.500000*%
%ADD28RoundRect,0.250000X0.850000X-0.375000X0.850000X0.375000X-0.850000X0.375000X-0.850000X-0.375000X0*%
%ADD29C,1.100000*%
%ADD30C,1.600000*%
%ADD31R,0.300000X1.550000*%
%ADD32R,1.200000X2.750000*%
%ADD33RoundRect,0.250000X-0.250000X-0.475000X0.250000X-0.475000X0.250000X0.475000X-0.250000X0.475000X0*%
%ADD34R,0.700000X0.300000*%
%ADD35R,0.700000X1.000000*%
%ADD36O,2.100000X1.100000*%
%ADD37O,2.600000X1.100000*%
%ADD38RoundRect,0.218750X0.256250X-0.218750X0.256250X0.218750X-0.256250X0.218750X-0.256250X-0.218750X0*%
%ADD39RoundRect,0.250000X-0.785000X-1.045000X0.785000X-1.045000X0.785000X1.045000X-0.785000X1.045000X0*%
%ADD40R,0.600000X0.280000*%
%ADD41R,0.300000X1.700000*%
%ADD42C,0.700000*%
%ADD43C,4.400000*%
%ADD44R,0.600000X0.730000*%
G04 APERTURE END LIST*
D10*
X2327255Y-43822842D02*
X2284398Y-43865700D01*
X2284398Y-43865700D02*
X2155826Y-43908557D01*
X2155826Y-43908557D02*
X2070112Y-43908557D01*
X2070112Y-43908557D02*
X1941541Y-43865700D01*
X1941541Y-43865700D02*
X1855826Y-43779985D01*
X1855826Y-43779985D02*
X1812969Y-43694271D01*
X1812969Y-43694271D02*
X1770112Y-43522842D01*
X1770112Y-43522842D02*
X1770112Y-43394271D01*
X1770112Y-43394271D02*
X1812969Y-43222842D01*
X1812969Y-43222842D02*
X1855826Y-43137128D01*
X1855826Y-43137128D02*
X1941541Y-43051414D01*
X1941541Y-43051414D02*
X2070112Y-43008557D01*
X2070112Y-43008557D02*
X2155826Y-43008557D01*
X2155826Y-43008557D02*
X2284398Y-43051414D01*
X2284398Y-43051414D02*
X2327255Y-43094271D01*
X2670112Y-43651414D02*
X3098684Y-43651414D01*
X2584398Y-43908557D02*
X2884398Y-43008557D01*
X2884398Y-43008557D02*
X3184398Y-43908557D01*
X3998684Y-43908557D02*
X3698684Y-43479985D01*
X3484398Y-43908557D02*
X3484398Y-43008557D01*
X3484398Y-43008557D02*
X3827255Y-43008557D01*
X3827255Y-43008557D02*
X3912970Y-43051414D01*
X3912970Y-43051414D02*
X3955827Y-43094271D01*
X3955827Y-43094271D02*
X3998684Y-43179985D01*
X3998684Y-43179985D02*
X3998684Y-43308557D01*
X3998684Y-43308557D02*
X3955827Y-43394271D01*
X3955827Y-43394271D02*
X3912970Y-43437128D01*
X3912970Y-43437128D02*
X3827255Y-43479985D01*
X3827255Y-43479985D02*
X3484398Y-43479985D01*
X4255827Y-43008557D02*
X4770113Y-43008557D01*
X4512970Y-43908557D02*
X4512970Y-43008557D01*
X5241541Y-43008557D02*
X5412969Y-43008557D01*
X5412969Y-43008557D02*
X5498684Y-43051414D01*
X5498684Y-43051414D02*
X5584398Y-43137128D01*
X5584398Y-43137128D02*
X5627255Y-43308557D01*
X5627255Y-43308557D02*
X5627255Y-43608557D01*
X5627255Y-43608557D02*
X5584398Y-43779985D01*
X5584398Y-43779985D02*
X5498684Y-43865700D01*
X5498684Y-43865700D02*
X5412969Y-43908557D01*
X5412969Y-43908557D02*
X5241541Y-43908557D01*
X5241541Y-43908557D02*
X5155827Y-43865700D01*
X5155827Y-43865700D02*
X5070112Y-43779985D01*
X5070112Y-43779985D02*
X5027255Y-43608557D01*
X5027255Y-43608557D02*
X5027255Y-43308557D01*
X5027255Y-43308557D02*
X5070112Y-43137128D01*
X5070112Y-43137128D02*
X5155827Y-43051414D01*
X5155827Y-43051414D02*
X5241541Y-43008557D01*
X6012969Y-43008557D02*
X6012969Y-43737128D01*
X6012969Y-43737128D02*
X6055826Y-43822842D01*
X6055826Y-43822842D02*
X6098684Y-43865700D01*
X6098684Y-43865700D02*
X6184398Y-43908557D01*
X6184398Y-43908557D02*
X6355826Y-43908557D01*
X6355826Y-43908557D02*
X6441541Y-43865700D01*
X6441541Y-43865700D02*
X6484398Y-43822842D01*
X6484398Y-43822842D02*
X6527255Y-43737128D01*
X6527255Y-43737128D02*
X6527255Y-43008557D01*
X7470112Y-43822842D02*
X7427255Y-43865700D01*
X7427255Y-43865700D02*
X7298683Y-43908557D01*
X7298683Y-43908557D02*
X7212969Y-43908557D01*
X7212969Y-43908557D02*
X7084398Y-43865700D01*
X7084398Y-43865700D02*
X6998683Y-43779985D01*
X6998683Y-43779985D02*
X6955826Y-43694271D01*
X6955826Y-43694271D02*
X6912969Y-43522842D01*
X6912969Y-43522842D02*
X6912969Y-43394271D01*
X6912969Y-43394271D02*
X6955826Y-43222842D01*
X6955826Y-43222842D02*
X6998683Y-43137128D01*
X6998683Y-43137128D02*
X7084398Y-43051414D01*
X7084398Y-43051414D02*
X7212969Y-43008557D01*
X7212969Y-43008557D02*
X7298683Y-43008557D01*
X7298683Y-43008557D02*
X7427255Y-43051414D01*
X7427255Y-43051414D02*
X7470112Y-43094271D01*
X7855826Y-43908557D02*
X7855826Y-43008557D01*
X7855826Y-43437128D02*
X8370112Y-43437128D01*
X8370112Y-43908557D02*
X8370112Y-43008557D01*
X8798683Y-43437128D02*
X9098683Y-43437128D01*
X9227255Y-43908557D02*
X8798683Y-43908557D01*
X8798683Y-43908557D02*
X8798683Y-43008557D01*
X8798683Y-43008557D02*
X9227255Y-43008557D01*
X10298683Y-43908557D02*
X10298683Y-43008557D01*
X10298683Y-43008557D02*
X10512969Y-43008557D01*
X10512969Y-43008557D02*
X10641540Y-43051414D01*
X10641540Y-43051414D02*
X10727255Y-43137128D01*
X10727255Y-43137128D02*
X10770112Y-43222842D01*
X10770112Y-43222842D02*
X10812969Y-43394271D01*
X10812969Y-43394271D02*
X10812969Y-43522842D01*
X10812969Y-43522842D02*
X10770112Y-43694271D01*
X10770112Y-43694271D02*
X10727255Y-43779985D01*
X10727255Y-43779985D02*
X10641540Y-43865700D01*
X10641540Y-43865700D02*
X10512969Y-43908557D01*
X10512969Y-43908557D02*
X10298683Y-43908557D01*
X11198683Y-43908557D02*
X11198683Y-43308557D01*
X11198683Y-43479985D02*
X11241540Y-43394271D01*
X11241540Y-43394271D02*
X11284398Y-43351414D01*
X11284398Y-43351414D02*
X11370112Y-43308557D01*
X11370112Y-43308557D02*
X11455826Y-43308557D01*
X11755826Y-43908557D02*
X11755826Y-43308557D01*
X11755826Y-43008557D02*
X11712969Y-43051414D01*
X11712969Y-43051414D02*
X11755826Y-43094271D01*
X11755826Y-43094271D02*
X11798683Y-43051414D01*
X11798683Y-43051414D02*
X11755826Y-43008557D01*
X11755826Y-43008557D02*
X11755826Y-43094271D01*
X12098683Y-43308557D02*
X12312969Y-43908557D01*
X12312969Y-43908557D02*
X12527254Y-43308557D01*
X13212968Y-43865700D02*
X13127254Y-43908557D01*
X13127254Y-43908557D02*
X12955826Y-43908557D01*
X12955826Y-43908557D02*
X12870111Y-43865700D01*
X12870111Y-43865700D02*
X12827254Y-43779985D01*
X12827254Y-43779985D02*
X12827254Y-43437128D01*
X12827254Y-43437128D02*
X12870111Y-43351414D01*
X12870111Y-43351414D02*
X12955826Y-43308557D01*
X12955826Y-43308557D02*
X13127254Y-43308557D01*
X13127254Y-43308557D02*
X13212968Y-43351414D01*
X13212968Y-43351414D02*
X13255826Y-43437128D01*
X13255826Y-43437128D02*
X13255826Y-43522842D01*
X13255826Y-43522842D02*
X12827254Y-43608557D01*
X14241540Y-43308557D02*
X14455826Y-43908557D01*
X14455826Y-43908557D02*
X14670111Y-43308557D01*
X15184397Y-43008557D02*
X15270111Y-43008557D01*
X15270111Y-43008557D02*
X15355825Y-43051414D01*
X15355825Y-43051414D02*
X15398683Y-43094271D01*
X15398683Y-43094271D02*
X15441540Y-43179985D01*
X15441540Y-43179985D02*
X15484397Y-43351414D01*
X15484397Y-43351414D02*
X15484397Y-43565700D01*
X15484397Y-43565700D02*
X15441540Y-43737128D01*
X15441540Y-43737128D02*
X15398683Y-43822842D01*
X15398683Y-43822842D02*
X15355825Y-43865700D01*
X15355825Y-43865700D02*
X15270111Y-43908557D01*
X15270111Y-43908557D02*
X15184397Y-43908557D01*
X15184397Y-43908557D02*
X15098683Y-43865700D01*
X15098683Y-43865700D02*
X15055825Y-43822842D01*
X15055825Y-43822842D02*
X15012968Y-43737128D01*
X15012968Y-43737128D02*
X14970111Y-43565700D01*
X14970111Y-43565700D02*
X14970111Y-43351414D01*
X14970111Y-43351414D02*
X15012968Y-43179985D01*
X15012968Y-43179985D02*
X15055825Y-43094271D01*
X15055825Y-43094271D02*
X15098683Y-43051414D01*
X15098683Y-43051414D02*
X15184397Y-43008557D01*
X15870111Y-43822842D02*
X15912968Y-43865700D01*
X15912968Y-43865700D02*
X15870111Y-43908557D01*
X15870111Y-43908557D02*
X15827254Y-43865700D01*
X15827254Y-43865700D02*
X15870111Y-43822842D01*
X15870111Y-43822842D02*
X15870111Y-43908557D01*
X16684397Y-43308557D02*
X16684397Y-43908557D01*
X16470111Y-42965700D02*
X16255825Y-43608557D01*
X16255825Y-43608557D02*
X16812968Y-43608557D01*
D11*
G04 #@! TO.C,C16*
X29892164Y-29640000D02*
X30107836Y-29640000D01*
X29892164Y-30360000D02*
X30107836Y-30360000D01*
G04 #@! TO.C,R11*
X27096359Y-11620000D02*
X27403641Y-11620000D01*
X27096359Y-12380000D02*
X27403641Y-12380000D01*
G04 #@! TO.C,C15*
X29642164Y-24890000D02*
X29857836Y-24890000D01*
X29642164Y-25610000D02*
X29857836Y-25610000D01*
G04 #@! TO.C,C33*
X24642164Y-11640000D02*
X24857836Y-11640000D01*
X24642164Y-12360000D02*
X24857836Y-12360000D01*
G04 #@! TO.C,C28*
X30765000Y-15511252D02*
X30765000Y-14988748D01*
X32235000Y-15511252D02*
X32235000Y-14988748D01*
G04 #@! TO.C,C25*
X10890000Y-29857836D02*
X10890000Y-29642164D01*
X11610000Y-29857836D02*
X11610000Y-29642164D01*
G04 #@! TO.C,R3*
X22370000Y-14153641D02*
X22370000Y-13846359D01*
X23130000Y-14153641D02*
X23130000Y-13846359D01*
G04 #@! TO.C,C12*
X15640000Y-29857836D02*
X15640000Y-29642164D01*
X16360000Y-29857836D02*
X16360000Y-29642164D01*
G04 #@! TO.C,C40*
X14265000Y-13011252D02*
X14265000Y-12488748D01*
X15735000Y-13011252D02*
X15735000Y-12488748D01*
G04 #@! TO.C,C44*
X14642164Y-41640000D02*
X14857836Y-41640000D01*
X14642164Y-42360000D02*
X14857836Y-42360000D01*
G04 #@! TO.C,C20*
X30142164Y-23390000D02*
X30357836Y-23390000D01*
X30142164Y-24110000D02*
X30357836Y-24110000D01*
G04 #@! TO.C,R10*
X31596359Y-12120000D02*
X31903641Y-12120000D01*
X31596359Y-12880000D02*
X31903641Y-12880000D01*
D10*
G04 #@! TO.C,U2*
X10200000Y-8600000D02*
X10350000Y-8600000D01*
X10200000Y-11400000D02*
X10200000Y-8600000D01*
X10200000Y-11400000D02*
X10350000Y-11400000D01*
X13050000Y-8600000D02*
X13200000Y-8600000D01*
X13050000Y-11400000D02*
X13200000Y-11400000D01*
X13200000Y-11400000D02*
X13200000Y-8600000D01*
D12*
X10230000Y-11400000D02*
G75*
G02*
X10170000Y-11400000I-30000J0D01*
G01*
X10170000Y-11400000D02*
G75*
G02*
X10230000Y-11400000I30000J0D01*
G01*
D10*
X10690000Y-11650000D02*
G75*
G02*
X10530000Y-11650000I-80000J0D01*
G01*
X10530000Y-11650000D02*
G75*
G02*
X10690000Y-11650000I80000J0D01*
G01*
D11*
G04 #@! TO.C,R4*
X20596359Y-13370000D02*
X20903641Y-13370000D01*
X20596359Y-14130000D02*
X20903641Y-14130000D01*
G04 #@! TO.C,C13*
X13890000Y-29857836D02*
X13890000Y-29642164D01*
X14610000Y-29857836D02*
X14610000Y-29642164D01*
G04 #@! TO.C,C11*
X17892164Y-28640000D02*
X18107836Y-28640000D01*
X17892164Y-29360000D02*
X18107836Y-29360000D01*
G04 #@! TO.C,C23*
X25142164Y-14640000D02*
X25357836Y-14640000D01*
X25142164Y-15360000D02*
X25357836Y-15360000D01*
D10*
G04 #@! TO.C,U1*
X19920000Y-19720000D02*
X20700000Y-19720000D01*
X19920000Y-20500000D02*
X19920000Y-19720000D01*
X19920000Y-27100000D02*
X19920000Y-27880000D01*
X19920000Y-27880000D02*
X20700000Y-27880000D01*
X28080000Y-19720000D02*
X27300000Y-19720000D01*
X28080000Y-20500000D02*
X28080000Y-19720000D01*
X28080000Y-27100000D02*
X28080000Y-27880000D01*
X28080000Y-27880000D02*
X27300000Y-27880000D01*
X27070000Y-19260000D02*
G75*
G02*
X26930000Y-19260000I-70000J0D01*
G01*
X26930000Y-19260000D02*
G75*
G02*
X27070000Y-19260000I70000J0D01*
G01*
D12*
X28030000Y-19800000D02*
G75*
G02*
X27970000Y-19800000I-30000J0D01*
G01*
X27970000Y-19800000D02*
G75*
G02*
X28030000Y-19800000I30000J0D01*
G01*
D11*
G04 #@! TO.C,C24*
X20642164Y-17390000D02*
X20857836Y-17390000D01*
X20642164Y-18110000D02*
X20857836Y-18110000D01*
G04 #@! TO.C,C29*
X18892164Y-15890000D02*
X19107836Y-15890000D01*
X18892164Y-16610000D02*
X19107836Y-16610000D01*
G04 #@! TO.C,C42*
X14140000Y-7357836D02*
X14140000Y-7142164D01*
X14860000Y-7357836D02*
X14860000Y-7142164D01*
G04 #@! TO.C,C22*
X17642164Y-17390000D02*
X17857836Y-17390000D01*
X17642164Y-18110000D02*
X17857836Y-18110000D01*
G04 #@! TO.C,R2*
X8846359Y-30870000D02*
X9153641Y-30870000D01*
X8846359Y-31630000D02*
X9153641Y-31630000D01*
G04 #@! TO.C,C14*
X12390000Y-29607836D02*
X12390000Y-29392164D01*
X13110000Y-29607836D02*
X13110000Y-29392164D01*
G04 #@! TO.C,R13*
X25096359Y-13120000D02*
X25403641Y-13120000D01*
X25096359Y-13880000D02*
X25403641Y-13880000D01*
G04 #@! TO.C,L1*
X29390000Y-19761252D02*
X29390000Y-19238748D01*
X31610000Y-19761252D02*
X31610000Y-19238748D01*
G04 #@! TO.C,C9*
X29140000Y-16107836D02*
X29140000Y-15892164D01*
X29860000Y-16107836D02*
X29860000Y-15892164D01*
G04 #@! TO.C,C7*
X32765000Y-19761252D02*
X32765000Y-19238748D01*
X34235000Y-19761252D02*
X34235000Y-19238748D01*
G04 #@! TO.C,R8*
X28870000Y-13403641D02*
X28870000Y-13096359D01*
X29630000Y-13403641D02*
X29630000Y-13096359D01*
G04 #@! TO.C,R7*
X33120000Y-14903641D02*
X33120000Y-14596359D01*
X33880000Y-14903641D02*
X33880000Y-14596359D01*
G04 #@! TO.C,C46*
X34142164Y-42890000D02*
X34357836Y-42890000D01*
X34142164Y-43610000D02*
X34357836Y-43610000D01*
D13*
G04 #@! TO.C,J2*
X12320000Y-39560000D02*
X12320000Y-34610000D01*
X13860000Y-39560000D02*
X12320000Y-39560000D01*
X28370000Y-32440000D02*
X30110000Y-32440000D01*
X30360000Y-39560000D02*
X28620000Y-39560000D01*
X34160000Y-34610000D02*
X34160000Y-37140000D01*
X34160000Y-37860000D02*
X34160000Y-39560000D01*
X34160000Y-39560000D02*
X32620000Y-39560000D01*
D12*
X12350000Y-31900000D02*
G75*
G02*
X12290000Y-31900000I-30000J0D01*
G01*
X12290000Y-31900000D02*
G75*
G02*
X12350000Y-31900000I30000J0D01*
G01*
D14*
G36*
X14477025Y-33777576D02*
G01*
X13715025Y-33777576D01*
X14096025Y-33396576D01*
X14477025Y-33777576D01*
G37*
D11*
G04 #@! TO.C,C19*
X32142164Y-24890000D02*
X32357836Y-24890000D01*
X32142164Y-25610000D02*
X32357836Y-25610000D01*
G04 #@! TO.C,C38*
X11488748Y-13265000D02*
X12011252Y-13265000D01*
X11488748Y-14735000D02*
X12011252Y-14735000D01*
G04 #@! TO.C,C45*
X33142164Y-41390000D02*
X33357836Y-41390000D01*
X33142164Y-42110000D02*
X33357836Y-42110000D01*
G04 #@! TO.C,R6*
X20620000Y-15903641D02*
X20620000Y-15596359D01*
X21380000Y-15903641D02*
X21380000Y-15596359D01*
G04 #@! TO.C,C18*
X32140000Y-27357836D02*
X32140000Y-27142164D01*
X32860000Y-27357836D02*
X32860000Y-27142164D01*
G04 #@! TO.C,R1*
X10846359Y-18870000D02*
X11153641Y-18870000D01*
X10846359Y-19630000D02*
X11153641Y-19630000D01*
G04 #@! TO.C,R5*
X33620000Y-29153641D02*
X33620000Y-28846359D01*
X34380000Y-29153641D02*
X34380000Y-28846359D01*
G04 #@! TO.C,C31*
X33890000Y-24107836D02*
X33890000Y-23892164D01*
X34610000Y-24107836D02*
X34610000Y-23892164D01*
G04 #@! TO.C,C32*
X33892164Y-16390000D02*
X34107836Y-16390000D01*
X33892164Y-17110000D02*
X34107836Y-17110000D01*
G04 #@! TO.C,J1*
X765000Y-20050000D02*
X975000Y-20050000D01*
X775000Y-29550000D02*
X1000000Y-29550000D01*
X3875000Y-29550000D02*
X6600000Y-29550000D01*
X6625000Y-20050000D02*
X3925000Y-20050000D01*
X9125000Y-20050000D02*
X9125000Y-29550000D01*
X9275000Y-21675000D02*
X9275000Y-21900000D01*
G04 #@! TO.C,C43*
X12142164Y-41390000D02*
X12357836Y-41390000D01*
X12142164Y-42110000D02*
X12357836Y-42110000D01*
G04 #@! TO.C,C30*
X18142164Y-14390000D02*
X18357836Y-14390000D01*
X18142164Y-15110000D02*
X18357836Y-15110000D01*
G04 #@! TO.C,C6*
X6142164Y-17890000D02*
X6357836Y-17890000D01*
X6142164Y-18610000D02*
X6357836Y-18610000D01*
G04 #@! TO.C,C39*
X9142164Y-6890000D02*
X9357836Y-6890000D01*
X9142164Y-7610000D02*
X9357836Y-7610000D01*
G04 #@! TO.C,C10*
X17642164Y-18890000D02*
X17857836Y-18890000D01*
X17642164Y-19610000D02*
X17857836Y-19610000D01*
G04 #@! TO.C,R14*
X8620000Y-12903641D02*
X8620000Y-12596359D01*
X9380000Y-12903641D02*
X9380000Y-12596359D01*
G04 #@! TO.C,R15*
X12346359Y-6370000D02*
X12653641Y-6370000D01*
X12346359Y-7130000D02*
X12653641Y-7130000D01*
G04 #@! TO.C,R9*
X19870000Y-11903641D02*
X19870000Y-11596359D01*
X20630000Y-11903641D02*
X20630000Y-11596359D01*
G04 #@! TO.C,LED1*
X22265000Y-16200000D02*
X22265000Y-18485000D01*
X22265000Y-18485000D02*
X23735000Y-18485000D01*
X23735000Y-18485000D02*
X23735000Y-16200000D01*
G04 #@! TO.C,C41*
X18825000Y-41240000D02*
X18825000Y-45760000D01*
X18825000Y-45760000D02*
X26890000Y-45760000D01*
X26890000Y-41240000D02*
X18825000Y-41240000D01*
D10*
G04 #@! TO.C,U3*
X24670000Y-18330000D02*
X27830000Y-18330000D01*
X27830000Y-16170000D02*
X24670000Y-16170000D01*
D12*
X27780000Y-18250000D02*
G75*
G02*
X27720000Y-18250000I-30000J0D01*
G01*
X27720000Y-18250000D02*
G75*
G02*
X27780000Y-18250000I30000J0D01*
G01*
D15*
X28380000Y-18010000D02*
G75*
G02*
X28180000Y-18010000I-100000J0D01*
G01*
X28180000Y-18010000D02*
G75*
G02*
X28380000Y-18010000I100000J0D01*
G01*
D11*
G04 #@! TO.C,R16*
X12346359Y-4870000D02*
X12653641Y-4870000D01*
X12346359Y-5630000D02*
X12653641Y-5630000D01*
G04 #@! TO.C,C5*
X9988748Y-16515000D02*
X10511252Y-16515000D01*
X9988748Y-17985000D02*
X10511252Y-17985000D01*
G04 #@! TO.C,C21*
X15390000Y-19107836D02*
X15390000Y-18892164D01*
X16110000Y-19107836D02*
X16110000Y-18892164D01*
G04 #@! TO.C,C26*
X31890000Y-23357836D02*
X31890000Y-23142164D01*
X32610000Y-23357836D02*
X32610000Y-23142164D01*
G04 #@! TO.C,R12*
X22096359Y-11620000D02*
X22403641Y-11620000D01*
X22096359Y-12380000D02*
X22403641Y-12380000D01*
G04 #@! TO.C,C27*
X33890000Y-26607836D02*
X33890000Y-26392164D01*
X34610000Y-26607836D02*
X34610000Y-26392164D01*
G04 #@! TO.C,C17*
X32140000Y-29857836D02*
X32140000Y-29642164D01*
X32860000Y-29857836D02*
X32860000Y-29642164D01*
D10*
G04 #@! TO.C,Y1*
X29350000Y-26400000D02*
X29350000Y-28600000D01*
X29350000Y-28600000D02*
X31100000Y-28600000D01*
X30750000Y-28850000D02*
X30750000Y-28850000D01*
X30750000Y-28850000D02*
X31400000Y-28850000D01*
X31100000Y-28600000D02*
X31150000Y-28600000D01*
X31150000Y-26400000D02*
X29350000Y-26400000D01*
X31150000Y-28600000D02*
X31150000Y-26400000D01*
X31400000Y-28850000D02*
X31400000Y-28150000D01*
D12*
X30880000Y-28300000D02*
G75*
G02*
X30820000Y-28300000I-30000J0D01*
G01*
X30820000Y-28300000D02*
G75*
G02*
X30880000Y-28300000I30000J0D01*
G01*
D11*
G04 #@! TO.C,C8*
X27390000Y-14607836D02*
X27390000Y-14392164D01*
X28110000Y-14607836D02*
X28110000Y-14392164D01*
G04 #@! TD*
%LPC*%
D16*
G04 #@! TO.C,C16*
X29520000Y-30000000D03*
X30480000Y-30000000D03*
G04 #@! TD*
D17*
G04 #@! TO.C,R11*
X26740000Y-12000000D03*
X27760000Y-12000000D03*
G04 #@! TD*
D18*
G04 #@! TO.C,C2*
X16120000Y-22800000D03*
X15480000Y-22800000D03*
G04 #@! TD*
D16*
G04 #@! TO.C,C15*
X29270000Y-25250000D03*
X30230000Y-25250000D03*
G04 #@! TD*
G04 #@! TO.C,C33*
X24270000Y-12000000D03*
X25230000Y-12000000D03*
G04 #@! TD*
D19*
G04 #@! TO.C,C28*
X31500000Y-16200000D03*
X31500000Y-14300000D03*
G04 #@! TD*
D20*
G04 #@! TO.C,C25*
X11250000Y-30230000D03*
X11250000Y-29270000D03*
G04 #@! TD*
D21*
G04 #@! TO.C,R3*
X22750000Y-14510000D03*
X22750000Y-13490000D03*
G04 #@! TD*
D20*
G04 #@! TO.C,C12*
X16000000Y-30230000D03*
X16000000Y-29270000D03*
G04 #@! TD*
D19*
G04 #@! TO.C,C40*
X15000000Y-13700000D03*
X15000000Y-11800000D03*
G04 #@! TD*
D16*
G04 #@! TO.C,C44*
X14270000Y-42000000D03*
X15230000Y-42000000D03*
G04 #@! TD*
D18*
G04 #@! TO.C,C1*
X17520000Y-22400000D03*
X16880000Y-22400000D03*
G04 #@! TD*
D16*
G04 #@! TO.C,C20*
X29770000Y-23750000D03*
X30730000Y-23750000D03*
G04 #@! TD*
D17*
G04 #@! TO.C,R10*
X31240000Y-12500000D03*
X32260000Y-12500000D03*
G04 #@! TD*
D22*
G04 #@! TO.C,U2*
X10730000Y-11130000D03*
X11380000Y-11130000D03*
X12020000Y-11130000D03*
X12670000Y-11130000D03*
X12670000Y-8870000D03*
X12020000Y-8870000D03*
X11380000Y-8870000D03*
X10730000Y-8870000D03*
D23*
X11700000Y-10000000D03*
G04 #@! TD*
D24*
G04 #@! TO.C,C35*
X25490000Y-28990000D03*
X25490000Y-29630000D03*
G04 #@! TD*
D17*
G04 #@! TO.C,R4*
X20240000Y-13750000D03*
X21260000Y-13750000D03*
G04 #@! TD*
D20*
G04 #@! TO.C,C13*
X14250000Y-30230000D03*
X14250000Y-29270000D03*
G04 #@! TD*
D16*
G04 #@! TO.C,C11*
X17520000Y-29000000D03*
X18480000Y-29000000D03*
G04 #@! TD*
D18*
G04 #@! TO.C,C4*
X17520000Y-23200000D03*
X16880000Y-23200000D03*
G04 #@! TD*
D16*
G04 #@! TO.C,C23*
X24770000Y-15000000D03*
X25730000Y-15000000D03*
G04 #@! TD*
D25*
G04 #@! TO.C,U1*
X27000000Y-19890000D03*
X26600000Y-19890000D03*
X26200000Y-19890000D03*
X25800000Y-19890000D03*
X25400000Y-19890000D03*
X25000000Y-19890000D03*
X24600000Y-19890000D03*
X24200000Y-19890000D03*
X23800000Y-19890000D03*
X23400000Y-19890000D03*
X23000000Y-19890000D03*
X22600000Y-19890000D03*
X22200000Y-19890000D03*
X21800000Y-19890000D03*
X21400000Y-19890000D03*
X21000000Y-19890000D03*
D26*
X20090000Y-20800000D03*
X20090000Y-21200000D03*
X20090000Y-21600000D03*
X20090000Y-22000000D03*
X20090000Y-22400000D03*
X20090000Y-22800000D03*
X20090000Y-23200000D03*
X20090000Y-23600000D03*
X20090000Y-24000000D03*
X20090000Y-24400000D03*
X20090000Y-24800000D03*
X20090000Y-25200000D03*
X20090000Y-25600000D03*
X20090000Y-26000000D03*
X20090000Y-26400000D03*
X20090000Y-26800000D03*
D25*
X21000000Y-27710000D03*
X21400000Y-27710000D03*
X21800000Y-27710000D03*
X22200000Y-27710000D03*
X22600000Y-27710000D03*
X23000000Y-27710000D03*
X23400000Y-27710000D03*
X23800000Y-27710000D03*
X24200000Y-27710000D03*
X24600000Y-27710000D03*
X25000000Y-27710000D03*
X25400000Y-27710000D03*
X25800000Y-27710000D03*
X26200000Y-27710000D03*
X26600000Y-27710000D03*
X27000000Y-27710000D03*
D26*
X27910000Y-26800000D03*
X27910000Y-26400000D03*
X27910000Y-26000000D03*
X27910000Y-25600000D03*
X27910000Y-25200000D03*
X27910000Y-24800000D03*
X27910000Y-24400000D03*
X27910000Y-24000000D03*
X27910000Y-23600000D03*
X27910000Y-23200000D03*
X27910000Y-22800000D03*
X27910000Y-22400000D03*
X27910000Y-22000000D03*
X27910000Y-21600000D03*
X27910000Y-21200000D03*
X27910000Y-20800000D03*
D27*
X24000000Y-23800000D03*
G04 #@! TD*
D16*
G04 #@! TO.C,C24*
X20270000Y-17750000D03*
X21230000Y-17750000D03*
G04 #@! TD*
G04 #@! TO.C,C29*
X18520000Y-16250000D03*
X19480000Y-16250000D03*
G04 #@! TD*
D20*
G04 #@! TO.C,C42*
X14500000Y-7730000D03*
X14500000Y-6770000D03*
G04 #@! TD*
D16*
G04 #@! TO.C,C22*
X17270000Y-17750000D03*
X18230000Y-17750000D03*
G04 #@! TD*
D17*
G04 #@! TO.C,R2*
X8490000Y-31250000D03*
X9510000Y-31250000D03*
G04 #@! TD*
D20*
G04 #@! TO.C,C14*
X12750000Y-29980000D03*
X12750000Y-29020000D03*
G04 #@! TD*
D17*
G04 #@! TO.C,R13*
X24740000Y-13500000D03*
X25760000Y-13500000D03*
G04 #@! TD*
D28*
G04 #@! TO.C,L1*
X30500000Y-20575000D03*
X30500000Y-18425000D03*
G04 #@! TD*
D20*
G04 #@! TO.C,C9*
X29500000Y-16480000D03*
X29500000Y-15520000D03*
G04 #@! TD*
D19*
G04 #@! TO.C,C7*
X33500000Y-20450000D03*
X33500000Y-18550000D03*
G04 #@! TD*
D21*
G04 #@! TO.C,R8*
X29250000Y-13760000D03*
X29250000Y-12740000D03*
G04 #@! TD*
G04 #@! TO.C,R7*
X33500000Y-15260000D03*
X33500000Y-14240000D03*
G04 #@! TD*
D16*
G04 #@! TO.C,C46*
X33770000Y-43250000D03*
X34730000Y-43250000D03*
G04 #@! TD*
D29*
G04 #@! TO.C,J2*
X13240000Y-37500000D03*
D30*
X33240000Y-37500000D03*
D31*
X13990000Y-32230000D03*
X14240000Y-39780000D03*
X14490000Y-32230000D03*
X14740000Y-39780000D03*
X14990000Y-32230000D03*
X15240000Y-39780000D03*
X15490000Y-32230000D03*
X15740000Y-39780000D03*
X15990000Y-32230000D03*
X16240000Y-39780000D03*
X16490000Y-32230000D03*
X16740000Y-39780000D03*
X16990000Y-32230000D03*
X17240000Y-39780000D03*
X17490000Y-32230000D03*
X17740000Y-39780000D03*
X17990000Y-32230000D03*
X18240000Y-39780000D03*
X18490000Y-32230000D03*
X18740000Y-39780000D03*
X18990000Y-32230000D03*
X19240000Y-39780000D03*
X19490000Y-32230000D03*
X19740000Y-39780000D03*
X19990000Y-32220000D03*
X20240000Y-39780000D03*
X20490000Y-32220000D03*
X20740000Y-39780000D03*
X20990000Y-32220000D03*
X21240000Y-39780000D03*
X21490000Y-32220000D03*
X21740000Y-39780000D03*
X21990000Y-32230000D03*
X22240000Y-39780000D03*
X22490000Y-32230000D03*
X22740000Y-39780000D03*
X22990000Y-32230000D03*
X23240000Y-39780000D03*
X23490000Y-32230000D03*
X23740000Y-39780000D03*
X23990000Y-32230000D03*
X24240000Y-39780000D03*
X24490000Y-32230000D03*
X24740000Y-39780000D03*
X24990000Y-32230000D03*
X25240000Y-39780000D03*
X25490000Y-32230000D03*
X25740000Y-39780000D03*
X25990000Y-32230000D03*
X26240000Y-39780000D03*
X26490000Y-32230000D03*
X26740000Y-39780000D03*
X26990000Y-32230000D03*
X27240000Y-39780000D03*
X27490000Y-32230000D03*
X27740000Y-39780000D03*
X27990000Y-32230000D03*
X28240000Y-39780000D03*
X30490000Y-32230000D03*
X30740000Y-39780000D03*
X30990000Y-32230000D03*
X31240000Y-39780000D03*
X31490000Y-32230000D03*
X31740000Y-39780000D03*
X31990000Y-32230000D03*
X32240000Y-39780000D03*
X32490000Y-32230000D03*
D32*
X12890000Y-33000000D03*
X33590000Y-33000000D03*
G04 #@! TD*
D16*
G04 #@! TO.C,C19*
X31770000Y-25250000D03*
X32730000Y-25250000D03*
G04 #@! TD*
D33*
G04 #@! TO.C,C38*
X10800000Y-14000000D03*
X12700000Y-14000000D03*
G04 #@! TD*
D16*
G04 #@! TO.C,C45*
X32770000Y-41750000D03*
X33730000Y-41750000D03*
G04 #@! TD*
D21*
G04 #@! TO.C,R6*
X21000000Y-16260000D03*
X21000000Y-15240000D03*
G04 #@! TD*
D20*
G04 #@! TO.C,C18*
X32500000Y-27730000D03*
X32500000Y-26770000D03*
G04 #@! TD*
D17*
G04 #@! TO.C,R1*
X10490000Y-19250000D03*
X11510000Y-19250000D03*
G04 #@! TD*
D21*
G04 #@! TO.C,R5*
X34000000Y-29510000D03*
X34000000Y-28490000D03*
G04 #@! TD*
D20*
G04 #@! TO.C,C31*
X34250000Y-24480000D03*
X34250000Y-23520000D03*
G04 #@! TD*
D16*
G04 #@! TO.C,C32*
X33520000Y-16750000D03*
X34480000Y-16750000D03*
G04 #@! TD*
D34*
G04 #@! TO.C,J1*
X8215000Y-21800000D03*
X8215000Y-22300000D03*
X8215000Y-22800000D03*
X8215000Y-23300000D03*
X8215000Y-23800000D03*
X8215000Y-24300000D03*
X8215000Y-25300000D03*
X8215000Y-25800000D03*
X8215000Y-26300000D03*
X8215000Y-26800000D03*
X8215000Y-27300000D03*
X8215000Y-27800000D03*
D35*
X6915000Y-27900000D03*
D34*
X6915000Y-27050000D03*
X6915000Y-26550000D03*
X6915000Y-26050000D03*
X6915000Y-25550000D03*
X6915000Y-25050000D03*
X6915000Y-24550000D03*
X6915000Y-24050000D03*
X6915000Y-23550000D03*
X6915000Y-23050000D03*
X6915000Y-22550000D03*
D35*
X6915000Y-21700000D03*
D36*
X7805000Y-20480000D03*
D37*
X2445000Y-20480000D03*
D36*
X7805000Y-29120000D03*
D37*
X2445000Y-29120000D03*
G04 #@! TD*
D16*
G04 #@! TO.C,C43*
X11770000Y-41750000D03*
X12730000Y-41750000D03*
G04 #@! TD*
G04 #@! TO.C,C30*
X17770000Y-14750000D03*
X18730000Y-14750000D03*
G04 #@! TD*
G04 #@! TO.C,C6*
X5770000Y-18250000D03*
X6730000Y-18250000D03*
G04 #@! TD*
G04 #@! TO.C,C39*
X8770000Y-7250000D03*
X9730000Y-7250000D03*
G04 #@! TD*
G04 #@! TO.C,C10*
X17270000Y-19250000D03*
X18230000Y-19250000D03*
G04 #@! TD*
D21*
G04 #@! TO.C,R14*
X9000000Y-13260000D03*
X9000000Y-12240000D03*
G04 #@! TD*
D17*
G04 #@! TO.C,R15*
X11990000Y-6750000D03*
X13010000Y-6750000D03*
G04 #@! TD*
D21*
G04 #@! TO.C,R9*
X20250000Y-12260000D03*
X20250000Y-11240000D03*
G04 #@! TD*
D38*
G04 #@! TO.C,LED1*
X23000000Y-17787500D03*
X23000000Y-16212500D03*
G04 #@! TD*
D39*
G04 #@! TO.C,C41*
X20120000Y-43500000D03*
X26360000Y-43500000D03*
G04 #@! TD*
D24*
G04 #@! TO.C,C37*
X22490000Y-28990000D03*
X22490000Y-29630000D03*
G04 #@! TD*
D40*
G04 #@! TO.C,U3*
X27760000Y-18000000D03*
X27760000Y-17500000D03*
X27760000Y-17000000D03*
X27760000Y-16500000D03*
X24740000Y-16500000D03*
X24740000Y-17000000D03*
X24740000Y-17500000D03*
X24740000Y-18000000D03*
D41*
X26250000Y-17250000D03*
G04 #@! TD*
D17*
G04 #@! TO.C,R16*
X11990000Y-5250000D03*
X13010000Y-5250000D03*
G04 #@! TD*
D33*
G04 #@! TO.C,C5*
X9300000Y-17250000D03*
X11200000Y-17250000D03*
G04 #@! TD*
D20*
G04 #@! TO.C,C21*
X15750000Y-19480000D03*
X15750000Y-18520000D03*
G04 #@! TD*
G04 #@! TO.C,C26*
X32250000Y-23730000D03*
X32250000Y-22770000D03*
G04 #@! TD*
D18*
G04 #@! TO.C,C3*
X16120000Y-23600000D03*
X15480000Y-23600000D03*
G04 #@! TD*
D17*
G04 #@! TO.C,R12*
X21740000Y-12000000D03*
X22760000Y-12000000D03*
G04 #@! TD*
D24*
G04 #@! TO.C,C36*
X22990000Y-30440000D03*
X22990000Y-31080000D03*
G04 #@! TD*
D20*
G04 #@! TO.C,C27*
X34250000Y-26980000D03*
X34250000Y-26020000D03*
G04 #@! TD*
D42*
G04 #@! TO.C,H1*
X21590000Y-5750000D03*
X22073274Y-4583274D03*
X22073274Y-6916726D03*
X23240000Y-4100000D03*
D43*
X23240000Y-5750000D03*
D42*
X23240000Y-7400000D03*
X24406726Y-4583274D03*
X24406726Y-6916726D03*
X24890000Y-5750000D03*
G04 #@! TD*
D24*
G04 #@! TO.C,C34*
X25990000Y-30440000D03*
X25990000Y-31080000D03*
G04 #@! TD*
D20*
G04 #@! TO.C,C17*
X32500000Y-30230000D03*
X32500000Y-29270000D03*
G04 #@! TD*
D44*
G04 #@! TO.C,Y1*
X30650000Y-28050000D03*
X30650000Y-26950000D03*
X29850000Y-26950000D03*
X29850000Y-28050000D03*
G04 #@! TD*
D20*
G04 #@! TO.C,C8*
X27750000Y-14980000D03*
X27750000Y-14020000D03*
G04 #@! TD*
%LPD*%
M02*
